<ttFont>
          <CharString index="0">
            rmoveto
            23 -121 18 -103 20 -90 rrcurveto
            -6 -31 -36 -3 -25 hhcurveto
            -26 -27 1 2 -27 hvcurveto
            35 114 44 120 32 86 rrcurveto
            81 -400 rmoveto
            -223 51 138 -232 141 hhcurveto
            71 37 44 64 hvcurveto
            -128 14 -99 132 -62 160 -45 115 -28 192 -25 105 -105 callgsubr
            -101 callsubr
            4 -18 callsubr
            return
          </CharString>
          <CharString index="1">
            263 282 -104 callgsubr
            112 -77 -97 callgsubr
            -104 callsubr
            10 26 hvcurveto
            return
          </CharString>
          <CharString index="2">
            -49 15 30 -61 62 hhcurveto
            41 42 25 41 16 hvcurveto
            -35 27 -28 37 -18 51 -42 118 -36 177 -25 106 -105 callgsubr
            284 530 rmoveto
            23 -121 18 -103 20 -90 rrcurveto
            -6 -31 -36 -3 -25 hhcurveto
            -26 -27 1 2 -27 hvcurveto
            35 114 44 120 32 86 rrcurveto
            endchar
          </CharString>
          <CharString index="3">
            -47 -195 -167 -336 -96 vvcurveto
            -91 callgsubr
            43 12 65 19 74 vhcurveto
            -5 34 54 -6 39 hhcurveto
            32 28 3 return
          </CharString>
          <CharString index="4">
            500 233 rmoveto
            3 28 30 2 23 hhcurveto
            125 107 -58 -126 54 hvcurveto
            24 32 22 30 49 vvcurveto
            108 -106 57 -148 -48 -74 -6 -7 -59 vhcurveto
            -22 98 -22 122 -8 39 rrcurveto
            85 -18 -34 55 -76 hhcurveto
            -23 -24 -5 -9 -27 hvcurveto
            -48 -197 -166 -332 -100 vvcurveto
            -46 36 -27 50 11 12 0 2 13 vhcurveto
            -1 6 0 6 7 vvcurveto
            43 12 65 19 74 vhcurveto
            return
          </CharString>
          <CharString index="5">
            rmoveto
            -61 34 -47 49 -31 57 rrcurveto
            -49 -46 -18 -39 -59 144 -62 49 20 15 9 29 6 hvcurveto
            return
          </CharString>
          <CharString index="6">
            -91 callgsubr
            48 11 63 18 68 vhcurveto
            -5 44 43 -3 42 hhcurveto
            32 28 return
          </CharString>
          <CharString index="7">
            66 63 -25 63 hhcurveto
            -53 callgsubr
            -70 callsubr
            -44 -9 -62 hhcurveto
            -38 -44 2 4 -42 hvcurveto
            1 66 3 58 5 66 rrcurveto
            return
          </CharString>
          <CharString index="8">
            232 rmoveto
            -148 63 -96 148 153 104 127 153 156 -66 94 -156 -149 -97 -137 -149 vhcurveto
            142 176 rmoveto
            18 31 32 7 38 hhcurveto
            91 10 -122 -91 -90 -16 -57 -90 -100 -14 104 100 54 4 32 14 45 hvcurveto
            return
          </CharString>
          <CharString index="9">
            -49 15 30 -61 62 hhcurveto
            41 42 25 41 16 hvcurveto
            -35 27 -28 37 -18 51 return
          </CharString>
          <CharString index="10">
            -16 -6 -11 -4 -16 -3 rrcurveto
            57 2 68 11 52 vhcurveto
            5 -18 -16 3 -22 hhcurveto
            -28 -27 -11 -18 -17 hvcurveto
            -23 -25 -47 -58 -57 -95 rrcurveto
            -26 10 -19 30 -4 vhcurveto
            34 -5 40 2 38 -1 rrcurveto
            -1 -17 -2 -19 -16 vvcurveto
            -70 123 rmoveto
            19 29 32 48 28 32 rrcurveto
            2 -8 0 -13 -9 vvcurveto
            -29 0 -23 -4 -30 vhcurveto
            -1 -8 -12 0 -10 hhcurveto
            -15 -15 1 3 -17 hvcurveto
            return
          </CharString>
          <CharString index="11">
            -63 -52 29 -68 hhcurveto
            -59 -38 -32 -38 -12 3 -14 7 -13 hvcurveto
            22 21 26 8 27 hhcurveto
            return
          </CharString>
          <CharString index="12">
            vvcurveto
            -47 42 -34 47 28 24 6 6 16 vhcurveto
            return
          </CharString>
          <CharString index="13">
            509 471 rmoveto
            25 -73 -73 16 -86 hhcurveto
            -161 -96 -160 -161 -106 54 -91 106 90 63 111 99 46 hvcurveto
            -9 -51 -4 -22 -38 vvcurveto
            return
          </CharString>
          <CharString index="14">
            -96 -19 -126 -60 vvcurveto
            -50 32 -34 50 -3 callsubr
            -17 106 -5 108 111 vvcurveto
            27 1 82 3 29 vhcurveto
            return
          </CharString>
          <CharString index="15">
            15 53 rmoveto
            -23 -16 17 23 9 1 7 4 7 hvcurveto
            4 7 7 2 9 hhcurveto
            23 17 -18 -23 -16 -13 -12 -16 hvcurveto
            return
          </CharString>
          <CharString index="16">
            168 402 rmoveto
            7 -18 -16 3 -14 hhcurveto
            -53 -37 -38 -80 -122 87 -184 209 205 131 177 213 185 -99 159 -191 hvcurveto
            return
          </CharString>
          <CharString index="17">
            vvcurveto
            -96 callgsubr
            return
          </CharString>
          <CharString index="18">
            63 72 -39 58 hhcurveto
            49 38 36 44 12 -3 14 -7 13 hvcurveto
            return
          </CharString>
          <CharString index="19">
            227 rmoveto
            -2 18 25 -2 27 hhcurveto
            114 118 40 114 98 -75 43 -98 -156 -95 -130 -156 -156 60 -88 156 88 117 57 88 42 -42 22 -42 hvcurveto
            return
          </CharString>
          <CharString index="20">
            -32 -73 -76 -12 -83 hhcurveto
            -26 -25 2 2 -24 hvcurveto
            -7 74 0 78 80 vvcurveto
            return
          </CharString>
          <CharString index="21">
            -49 -30 14 30 11 4 15 8 15 hvcurveto
            23 31 43 16 45 hhcurveto
            133 58 -121 -148 -119 -38 -160 -145 hvcurveto
            return
          </CharString>
          <CharString index="22">
            rmoveto
            -203 124 240 -522 292 hhcurveto
            66 38 41 62 3 hvcurveto
            -138 16 -106 65 -89 85 rrcurveto
            -13 99 -3 104 115 -85 callgsubr
            -110 170 -91 173 -82 167 rrcurveto
            return
          </CharString>
          <CharString index="23">
            -59 13 -34 59 23 29 6 6 18 vhcurveto
            -17 74 -9 77 77 vvcurveto
            77 9 77 18 77 vhcurveto
            -131 -60 rmoveto
            return
          </CharString>
          <CharString index="24">
            rmoveto
            -40 -12 -70 -40 -50 -11 44 50 36 4 30 10 30 vhcurveto
            9 11 13 5 15 hhcurveto
            51 9 -43 -51 hvcurveto
            95 6 rmoveto
            95 -36 69 -95 -107 -65 -84 -108 -96 36 -68 96 108 63 84 108 vhcurveto
            return
          </CharString>
          <CharString index="25">
            -76 callgsubr
            39 -420 -104 callgsubr
            return
          </CharString>
          <CharString index="26">
            21 callgsubr
            76 178 -62 callgsubr
            hintmask 1100010100000000
            -64 callgsubr
            hintmask 1100100100000000
            -68 callgsubr
            hintmask 1010100010000000
            -84 callgsubr
            hintmask 1100001100000000
            -14 callgsubr
            hintmask 0001000000000000
            return
          </CharString>
          <CharString index="27">
            -16 12 callsubr
            86 -2 callgsubr
            93 -16 callsubr
            hintmask 10101001
            522 12 rmoveto
            hintmask 10101010
            30 callgsubr
            hintmask 10101001
            -79 callgsubr
            hintmask 10100110
            -87 callgsubr
            hintmask 01101001
            -22 callsubr
            hintmask 00010000
            return
          </CharString>
          <CharString index="28">
            -49 callsubr
            -116 136 return
          </CharString>
          <CharString index="29">
            rmoveto
            -11 -19 -7 -25 -23 vvcurveto
            -44 26 -29 44 49 38 39 49 47 -27 22 -47 -22 -24 -7 -10 -19 vhcurveto
            endchar
          </CharString>
          <CharString index="30">
            -21 192 90 434 -20 return
          </CharString>
          <CharString index="31">
            -109 -20 -90 -88 -63 callgsubr
            154 129 vvcurveto
            return
          </CharString>
          <CharString index="32">
            -121 -108 -96 -49 32 -62 98 72 46 33 74 hvcurveto
            -6 -19 -18 -2 -18 hhcurveto
            return
          </CharString>
          <CharString index="33">
            61 11 rmoveto
            -166 30 -97 99 33 23 9 19 23 vhcurveto
            -65 13 callsubr
            160 215 vvcurveto
            return
          </CharString>
          <CharString index="34">
            72 80 -20 70 hhcurveto
            45 36 36 45 hvcurveto
            return
          </CharString>
          <CharString index="35">
            2 callsubr
            -36 -49 -75 70 -39 75 262 37 417 262 47 -34 30 -47 -22 -20 -4 -8 -21 hvcurveto
            11 -38 3 -37 3 -44 rrcurveto
            -74 -84 -201 -74 -45 0 54 45 vhcurveto
            return
          </CharString>
          <CharString index="36">
            -15 -95 -97 -3 -96 hhcurveto
            -50 -51 22 callsubr
            -54 13 -114 -127 vvcurveto
            return
          </CharString>
          <CharString index="37">
            -78 callgsubr
            hvcurveto
            -12 -30 return
          </CharString>
          <CharString index="38">
            rmoveto
            -32 20 -9 32 21 20 3 3 11 vhcurveto
            -6 27 -3 32 -1 27 rrcurveto
            7 hlineto
            31 10 19 31 16 -2 11 -4 12 hvcurveto
            return
          </CharString>
          <CharString index="39">
            78 -47 54 -57 52 -67 rrcurveto
            -98 -75 -90 -75 -50 vvcurveto
            -20 11 -17 28 -8 vhcurveto
            75 74 142 91 111 70 rrcurveto
            97 -91 -146 124 -70 hhcurveto
            -28 -22 -14 -26 -6 hvcurveto
            return
          </CharString>
          <CharString index="40">
            571 -35 callsubr
            113 -86 86 6 -20 31 -20 return
          </CharString>
          <CharString index="41">
            rmoveto
            51 46 41 51 48 -31 34 -48 -54 -42 -43 -54 return
          </CharString>
          <CharString index="42">
            -11 13 15 -5 16 hhcurveto
            86 74 109 86 46 -28 27 -46 -22 -23 -6 -10 -20 hvcurveto
            -8 -21 -10 -29 -25 vvcurveto
            -26 10 -23 34 -10 vhcurveto
            -15 -49 -24 -27 -52 -26 rrcurveto
            return
          </CharString>
          <CharString index="43">
            109 26 67 64 vvcurveto
            47 -34 27 -47 -22 -18 -3 -6 -21 vhcurveto
            endchar
          </CharString>
          <CharString index="44">
            494 rmoveto
            19 -59 9 -61 -64 -46 -10 -60 -38 vvcurveto
            -92 29 -66 92 81 73 74 106 39 vhcurveto
            -104 -46 -248 -104 -47 -14 41 47 -10 callsubr
            return
          </CharString>
          <CharString index="45">
            vvcurveto
            -50 27 -25 50 26 21 -36 callsubr
            vhcurveto
            return
          </CharString>
          <CharString index="46">
            -89 callsubr
            endchar
          </CharString>
          <CharString index="47">
            -17 callsubr
            203 hmoveto
            -77 callgsubr
            endchar
          </CharString>
          <CharString index="48">
            -13 -19 -6 -21 -22 vvcurveto
            -49 25 -28 49 49 32 41 49 40 -23 25 -40 -26 -25 -6 -10 -22 vhcurveto
            return
          </CharString>
          <CharString index="49">
            -92 callgsubr
            165 -10 return
          </CharString>
          <CharString index="50">
            -20 hstemhm
            61 -79 callsubr
            return
          </CharString>
          <CharString index="51">
            rmoveto
            -22 -21 -26 -8 -27 hhcurveto
            return
          </CharString>
          <CharString index="52">
            15 -21 27 -77 callsubr
            return
          </CharString>
          <CharString index="53">
            10 126 9 170 89 vvcurveto
            47 -34 30 -47 -26 -27 -6 -13 -21 vhcurveto
            24 -110 13 -113 -117 vvcurveto
            -83 -12 -228 -83 -36 return
          </CharString>
          <CharString index="54">
            136 -116 return
          </CharString>
          <CharString index="55">
            rmoveto
            -57 -69 0 2 -59 hvcurveto
            56 16 64 28 35 vhcurveto
            15 22 28 7 27 hhcurveto
            53 28 -36 -44 3 hvcurveto
            -12 -31 -7 -33 -1 -35 rrcurveto
            return
          </CharString>
          <CharString index="56">
            hhcurveto
            71 37 44 64 hvcurveto
            return
          </CharString>
          <CharString index="57">
            -50 callgsubr
            hvcurveto
            -12 47 -5 40 -3 48 rrcurveto
            73 12 55 181 67 hhcurveto
            22 7 -19 -22 -8 -1 -6 -2 -8 hvcurveto
            return
          </CharString>
          <CharString index="58">
            136 -9 callsubr
            return
          </CharString>
          <CharString index="59">
            -122 -63 114 142 25 2 18 4 21 hvcurveto
            return
          </CharString>
          <CharString index="60">
            49 -14 -26 55 -59 hhcurveto
            -41 -36 -23 -41 -16 hvcurveto
            30 -19 23 -31 18 -57 38 -121 27 -167 20 -107 rrcurveto
            -71 13 25 -79 85 hhcurveto
            26 20 3 9 33 hvcurveto
            12 98 50 158 34 108 12 -92 19 -83 13 -51 rrcurveto
            return
          </CharString>
          <CharString index="61">
            -40 callsubr
            188 132 return
          </CharString>
          <CharString index="62">
            -31 callgsubr
            hstemhm
            return
          </CharString>
          <CharString index="63">
            190 475 rmoveto
            102 -187 140 -248 57 -33 rrcurveto
            -9 15 28 -4 24 hhcurveto
            -50 callgsubr
            hvcurveto
            return
          </CharString>
          <CharString index="64">
            360 -55 callsubr
            return
          </CharString>
          <CharString index="65">
            rmoveto
            91 32 73 90 95 vvcurveto
            122 -101 37 -122 -94 -101 -20 -17 -62 vhcurveto
            19 -103 6 -100 -108 vvcurveto
            return
          </CharString>
          <CharString index="66">
            23 19 -3 -5 15 hvcurveto
            -8 -54 -5 -67 -73 vvcurveto
            -45 0 -47 11 -42 vhcurveto
            -9 -14 -27 -8 -25 hhcurveto
            -29 -18 18 29 hvcurveto
            56 18 35 130 vvcurveto
            -18 -22 -28 -39 -28 hhcurveto
            -34 -10 33 34 hvcurveto
            endchar
          </CharString>
          <CharString index="67">
            hstemhm
            30 132 -68 114 -114 248 return
          </CharString>
          <CharString index="68">
            165 -52 -72 177 -105 hhcurveto
            -29 -38 -14 -38 -17 hvcurveto
            115 -77 64 -162 40 -156 rrcurveto
            return
          </CharString>
          <CharString index="69">
            -120 rmoveto
            5 9 16 5 13 hhcurveto
            25 14 -9 -19 -23 -27 -13 -36 -22 -22 8 8 -13 hvcurveto
            return
          </CharString>
          <CharString index="70">
            104 -12 94 325 99 124 92 return
          </CharString>
          <CharString index="71">
            4 8 21 return
          </CharString>
          <CharString index="72">
            -14 callsubr
            211 111 -86 86 176 return
          </CharString>
          <CharString index="73">
            133 -55 -81 115 -95 hhcurveto
            -51 -31 -31 -51 hvcurveto
            95 76 -132 -123 56 hvcurveto
            -121 -144 -107 -85 -61 vvcurveto
            -67 59 -16 67 vhcurveto
            10 106 64 100 67 81 rrcurveto
            return
          </CharString>
          <CharString index="74">
            119 20 97 98 -90 callsubr
            17 -94 4 -79 -102 vvcurveto
            -13 -49 -36 -1 -74 hhcurveto
            -45 -43 2 3 -43 hvcurveto
            7 72 9 77 60 vvcurveto
            return
          </CharString>
          <CharString index="75">
            -88 -93 -47 -54 -93 -17 -13 2 5 -19 hvcurveto
            -5 -14 -2 -13 -11 vvcurveto
            -42 34 -16 42 return
          </CharString>
          <CharString index="76">
            64 callsubr
            662 377 rmoveto
            191 -99 154 -193 -209 -131 -180 -207 -192 98 -101 98 -32 vhcurveto
            29 -10 return
          </CharString>
          <CharString index="77">
            103 28 79 60 63 vhcurveto
            42 61 66 20 72 hhcurveto
            175 109 -132 -175 -157 -127 -149 -157 -163 -124 137 169 hvcurveto
            endchar
          </CharString>
          <CharString index="78">
            hhcurveto
            44 37 23 45 20 -6 13 -6 10 hvcurveto
            return
          </CharString>
          <CharString index="79">
            99 12 -20 hstemhm
            0 117 352 127 hintmask 10111000
            297 -29 callgsubr
            hintmask 11011000
            29 41 15 31 hhcurveto
            11 return
          </CharString>
          <CharString index="80">
            -129 -20 -113 -98 -73 callgsubr
            96 -3 96 97 vvcurveto
            26 vlineto
            5 52 57 2 54 hhcurveto
            44 44 -2 -2 42 hvcurveto
            return
          </CharString>
          <CharString index="81">
            hstemhm
            60 126 -107 107 312 106 return
          </CharString>
          <CharString index="82">
            -6 89 -62 -21 427 85 return
          </CharString>
          <CharString index="83">
            474 700 rmoveto
            5 callsubr
            29 callsubr
            return
          </CharString>
          <CharString index="84">
            rmoveto
            -200 142 -164 200 205 162 174 205 192 -149 158 -192 -198 -170 -167 -198 vhcurveto
            return
          </CharString>
          <CharString index="85">
            -51 16 -31 51 19 23 5 7 23 vhcurveto
            return
          </CharString>
          <CharString index="86">
            -12 84 -84 209 26 77 136 82 return
          </CharString>
          <CharString index="87">
            20 -6 17 -6 10 vhcurveto
            return
          </CharString>
          <CharString index="88">
            2 4 -49 hvcurveto
            return
          </CharString>
          <CharString index="89">
            9 26 hvcurveto
            return
          </CharString>
          <CharString index="90">
            rmoveto
            -77 callgsubr
            return
          </CharString>
          <CharString index="91">
            99 -99 121 181 109 -109 127 return
          </CharString>
          <CharString index="92">
            -157 -20 -134 -119 vvcurveto
            return
          </CharString>
          <CharString index="93">
            -6 100 -88 88 return
          </CharString>
          <CharString index="94">
            vvcurveto
            -1 24 24 0 25 hhcurveto
            97 272 4 193 53 -24 38 -34 32 hvcurveto
            -172 -45 -143 -62 -146 hhcurveto
            -47 hlineto
            return
          </CharString>
          <CharString index="95">
            -198 -97 -41 67 72 14 2 12 5 17 vhcurveto
            5 -11 -11 2 -11 hhcurveto
            -48 -43 -47 -63 -107 107 -70 116 344 29 return
          </CharString>
          <CharString index="96">
            47 -34 30 -47 -22 -20 -6 -6 -16 vhcurveto
            14 -60 9 -67 -67 vvcurveto
            return
          </CharString>
          <CharString index="97">
            9 1 5 2 9 vhcurveto
            return
          </CharString>
          <CharString index="98">
            -116 116 return
          </CharString>
          <CharString index="99">
            46 25 32 52 hvcurveto
            -85 19 -55 27 -39 69 rrcurveto
            75 44 85 92 77 vvcurveto
            68 -32 38 -68 -102 -102 -110 -87 -41 vhcurveto
            return
          </CharString>
          <CharString index="100">
            hhcurveto
            135 50 -125 -135 -140 -44 -139 -140 -28 -33 3 11 -32 hvcurveto
            -7 103 -4 89 103 vvcurveto
            endchar
          </CharString>
          <CharString index="101">
            -4 -9 -1 -5 -8 vvcurveto
            -21 13 -13 21 21 14 -16 -21 -27 -17 -15 -27 -23 -16 16 23 5 1 7 3 6 vhcurveto
            return
          </CharString>
          <CharString index="102">
            63 59 -25 60 hhcurveto
            -53 callgsubr
            -70 callsubr
            -44 -9 -62 hhcurveto
            -35 -41 2 4 -39 hvcurveto
            2 return
          </CharString>
          <CharString index="103">
            -47 callgsubr
            20 return
          </CharString>
          <CharString index="104">
            -50 callgsubr
            vhcurveto
            return
          </CharString>
          <CharString index="105">
            30 132 368 132 return
          </CharString>
          <CharString index="106">
            126 -98 98 -98 124 return
          </CharString>
          <CharString index="107">
            161 -50 -76 181 -99 hhcurveto
            -37 -34 -15 -37 -17 hvcurveto
            return
          </CharString>
          <CharString index="108">
            -14 103 -4 108 120 vvcurveto
            return
          </CharString>
          <CharString index="109">
            -20 callgsubr
            -49 -42 return
          </CharString>
          <CharString index="110">
            -231 -21 962 -20 return
          </CharString>
          <CharString index="111">
            -21 710 -20 26 -20 return
          </CharString>
          <CharString index="112">
            19 -121 5 -103 -116 vvcurveto
            -59 2 -80 1 -64 vhcurveto
            -110 170 -91 173 -82 167 rrcurveto
            return
          </CharString>
          <CharString index="113">
            -7 -20 -7 -16 -27 vvcurveto
            -31 26 -19 31 39 31 32 39 35 -19 21 -35 -23 -17 -5 -9 -19 vhcurveto
            return
          </CharString>
          <CharString index="114">
            vvcurveto
            -223 96 -124 99 34 27 15 33 26 vhcurveto
            return
          </CharString>
          <CharString index="115">
            55 34 44 55 106 -106 57 -106 -214 -125 -186 -214 -195 92 -133 195 return
          </CharString>
          <CharString index="116">
            -9 -1 -5 -2 -9 return
          </CharString>
          <CharString index="117">
            59 16 73 28 37 vhcurveto
            15 22 28 7 27 hhcurveto
            43 18 -35 -43 9 callsubr
            hvcurveto
            return
          </CharString>
          <CharString index="118">
            134 -117 117 -117 137 hintmask 10101000
            return
          </CharString>
          <CharString index="119">
            -6 101 -74 -21 506 -20 return
          </CharString>
          <CharString index="120">
            138 -7 return
          </CharString>
          <CharString index="121">
            5 9 14 3 13 hhcurveto
            20 13 -16 -20 -26 -11 -22 -26 -9 -6 0 2 -7 hvcurveto
            return
          </CharString>
          <CharString index="122">
            -250 86 -86 199 59 92 406 -20 return
          </CharString>
          <CharString index="123">
            5 callgsubr
            271 4 callsubr
            return
          </CharString>
          <CharString index="124">
            hstemhm
            213 138 118 106 return
          </CharString>
          <CharString index="125">
            -310 3 callsubr
            return
          </CharString>
          <CharString index="126">
            -18 96 -3 96 97 vvcurveto
            26 vlineto
            return
          </CharString>
          <CharString index="127">
            hstemhm
            66 -49 callsubr
            return
          </CharString>
          <CharString index="128">
            207 -174 174 -80 80 return
          </CharString>
          <CharString index="129">
            -19 callsubr
            8 return
          </CharString>
          <CharString index="130">
            100 122 106 73 63 vvcurveto
            59 -57 18 -69 vhcurveto
            -7 -98 -38 -78 -71 -78 rrcurveto
            return
          </CharString>
          <CharString index="131">
            hvcurveto
            hintmask 01000000
            -3 callgsubr
          </CharString>
          <CharString index="132">
            30 hhcurveto
            hintmask 11110000
            64 47 -26 -64 -120 -111 3 -96 -18 hvcurveto
            endchar
          </CharString>
          <CharString index="133">
            -7 -231 -21 853 109 6 -20 return
          </CharString>
          <CharString index="134">
            -33 29 -21 33 5 11 1 3 8 vhcurveto
            return
          </CharString>
          <CharString index="135">
            -72 -60 15 -44 48 callsubr
            return
          </CharString>
          <CharString index="136">
            28 -14 -26 15 -31 hhcurveto
            return
          </CharString>
          <CharString index="137">
            -28 -43 -6 -8 -16 hvcurveto
            return
          </CharString>
          <CharString index="138">
            -48 -12 85 360 85 return
          </CharString>
          <CharString index="139">
            67 140 146 -70 70 hstemhm
            35 110 58 89 hintmask 10111000
            127 return
          </CharString>
          <CharString index="140">
            -120 vvcurveto
            -60 27 -32 60 25 20 5 7 18 vhcurveto
            -19 59 -10 return
          </CharString>
          <CharString index="141">
            -107 -103 -116 -62 -103 -52 43 -31 52 10 11 2 3 12 vhcurveto
            return
          </CharString>
          <CharString index="142">
            -127 -17 47 callsubr
            return
          </CharString>
          <CharString index="143">
            55 -31 27 -55 -17 -23 -3 -4 -20 return
          </CharString>
          <CharString index="144">
            124 220 124 return
          </CharString>
          <CharString index="145">
            97 139 110 285 97 hstemhm
            24 134 187 return
          </CharString>
          <CharString index="146">
            vvcurveto
            -18 5 -18 12 -19 vhcurveto
            endchar
          </CharString>
          <CharString index="147">
            45 37 31 45 hvcurveto
            hintmask 10001100
            14 -3 13 -8 15 vhcurveto
            return
          </CharString>
          <CharString index="148">
            26 38 24 callsubr
          </CharString>
          <CharString index="149">
            76 204 76 hstem
            35 95 113 95 vstem
            243 return
          </CharString>
          <CharString index="150">
            vvcurveto
            57 -32 24 -57 -28 -25 -6 -6 -16 vhcurveto
            endchar
          </CharString>
          <CharString index="151">
            -26 callsubr
            -106 124 return
          </CharString>
          <CharString index="152">
            4 callsubr
            hstemhm
            60 120 -75 75 return
          </CharString>
          <CharString index="153">
            -167 -21 203 -21 return
          </CharString>
          <CharString index="154">
            -133 -111 vvcurveto
            -23 return
          </CharString>
          <CharString index="155">
            hhcurveto
            59 callgsubr
            hvcurveto
            return
          </CharString>
          <CharString index="156">
            34 -25 16 -34 -16 -17 -4 -4 -12 vhcurveto
            -1 return
          </CharString>
          <CharString index="157">
            72 70 10 90 60 vvcurveto
            68 -33 40 -68 -96 return
          </CharString>
          <CharString index="158">
            vvcurveto
            40 -20 21 -40 vhcurveto
            -31 -37 -8 -39 hhcurveto
            return
          </CharString>
          <CharString index="159">
            hhcurveto
            63 32 -34 -63 -15 -1 -11 -3 -15 hvcurveto
            return
          </CharString>
          <CharString index="160">
            698 rmoveto
            8 -52 13 -108 -123 vvcurveto
            return
          </CharString>
          <CharString index="161">
            vvcurveto
            51 -30 29 -46 -20 -27 -8 -8 -16 vhcurveto
            return
          </CharString>
          <CharString index="162">
            4 -14 -13 1 -12 hhcurveto
            -54 -41 -34 -54 -90 return
          </CharString>
          <CharString index="163">
            20 -116 4 -106 -130 return
          </CharString>
          <CharString index="164">
            108 -93 93 -93 121 return
          </CharString>
          <CharString index="165">
            hhcurveto
            -30 -20 -14 -30 return
          </CharString>
          <CharString index="166">
            -21 585 125 12 -20 hstemhm
            hintmask 10100000
            return
          </CharString>
          <CharString index="167">
            31 -18 24 -32 -16 -11 -4 -4 -9 vhcurveto
            return
          </CharString>
          <CharString index="168">
            21 -21 295 111 -86 86 186 return
          </CharString>
          <CharString index="169">
            -27 18 -12 27 16 13 4 4 12 vhcurveto
            return
          </CharString>
          <CharString index="170">
            70 42 -50 -70 -12 -1 -12 -2 -12 hvcurveto
            return
          </CharString>
          <CharString index="171">
            92 hstem
            -2 callsubr
            vstem
            return
          </CharString>
        <CharString name=".notdef">
          -268 endchar
        </CharString>
        <CharString name="A">
          27 -55 callsubr
          -18 callgsubr
          hintmask 01111000
          224 702 rmoveto
          -104 callsubr
          9 26 hvcurveto
          10 -39 9 -30 10 -31 rrcurveto
          hintmask 10111000
          -82 callsubr
          endchar
        </CharString>
        <CharString name="A.end">
          15 -21 27 -21 192 90 -44 92 386 -20 -18 callgsubr
          hintmask 01101100
          224 702 rmoveto
          -104 callsubr
          9 26 hvcurveto
          10 -39 9 -30 10 -31 rrcurveto
          hintmask 10011100
          -102 callgsubr
          hintmask 01101100
          39 -420 -104 callgsubr
          endchar
        </CharString>
        <CharString name="A.ini">
          -43 callsubr
          hstemhm
          10 90 243 121 hintmask 01111100
          343 75 rmoveto
          -101 callsubr
          -9 callgsubr
          10 -39 9 -30 10 -31 rrcurveto
          hintmask 10111100
          -105 callsubr
        </CharString>
        <CharString name="A.swash">
          27 -75 callgsubr
          hstem
          25 callgsubr
          vstem
          -106 callsubr
          endchar
        </CharString>
        <CharString name="A.swash_end">
          23 callgsubr
          163 -21 192 90 -44 92 386 -20 -18 callgsubr
          hintmask 11011100
          -103 callsubr
          hintmask 11101100
          -101 callgsubr
          endchar
        </CharString>
        <CharString name="A.swash_ini">
          -51 callgsubr
          hstem
          10 90 243 121 vstem
          627 605 -107 callsubr
          endchar
        </CharString>
        <CharString name="AE">
          238 -14 callsubr
          -73 -21 192 90 31 103 -87 87 176 112 -95 95 -95 107 6 -20 hstemhm
          10 118 hintmask 0101101000100000
          276 282 rmoveto
          -20 -29 2 3 -24 hvcurveto
          46 110 45 123 48 91 22 -119 7 -99 13 -102 rrcurveto
          -6 -31 -52 -3 -25 hhcurveto
          138 -238 rmoveto
          -22 4 19 -16 23 hhcurveto
          hintmask 1001011000100000
          94 87 -12 74 hhcurveto
          42 39 33 42 25 -2 22 -7 22 hvcurveto
          -32 -73 -81 -12 -94 hhcurveto
          -16 78 -9 67 -12 90 rrcurveto
          hintmask 1001100100100000
          -3 57 47 -13 56 hhcurveto
          47 34 28 47 20 -6 13 -6 10 hvcurveto
          -9 -30 -44 -6 -62 hhcurveto
          -35 -31 1 4 -38 hvcurveto
          -9 63 -7 58 -8 67 rrcurveto
          hintmask 1001101000100000
          95 70 -17 70 hhcurveto
          -53 callgsubr
          hvcurveto
          hintmask 1001100001100000
          19 -6 17 -6 11 vhcurveto
          hintmask 1001101000100000
          -15 -48 -42 -3 -48 hhcurveto
          hintmask 1001100010100000
          -102 -80 12 -78 hhcurveto
          hintmask 0011100001100000
          -36 -30 -5 -9 -30 hvcurveto
          -81 -235 -186 -315 -86 vvcurveto
          -47 35 -19 43 13 14 3 4 13 vhcurveto
          5 69 18 58 24 69 rrcurveto
          -5 34 49 -6 39 hhcurveto
          32 37 -9 callgsubr
          8 -55 5 -58 9 -47 rrcurveto
          endchar
        </CharString>
        <CharString name="Aacute">
          27 198 200 65 194 endchar
        </CharString>
        <CharString name="Aacute.end">
          15 -21 27 -21 192 90 -44 92 386 -20 76 178 -18 callgsubr
          hintmask 00000100
          248 810 -103 callgsubr
          hintmask 01101010
          -24 -108 rmoveto
          -104 callsubr
          9 26 hvcurveto
          10 -39 9 -30 10 -31 rrcurveto
          hintmask 10011010
          -102 callgsubr
          hintmask 01101010
          39 -420 -104 callgsubr
          endchar
        </CharString>
        <CharString name="Aacute.ini">
          -43 callsubr
          76 -2 callgsubr
          10 90 243 121 hintmask 00001000
          581 810 -103 callgsubr
          hintmask 01110110
          -238 -735 rmoveto
          -101 callsubr
          -9 callgsubr
          10 -39 9 -30 10 -31 rrcurveto
          hintmask 10110110
          -105 callsubr
        </CharString>
        <CharString name="Aacute.swash">
          27 -75 callgsubr
          76 178 -18 callgsubr
          hintmask 11110100
          -106 callsubr
          hintmask 00001000
          -127 605 -103 callgsubr
          endchar
        </CharString>
        <CharString name="Aacute.swash_end">
          23 callgsubr
          163 -21 192 90 -44 92 386 -20 76 178 -18 callgsubr
          hintmask 11011010
          -103 callsubr
          hintmask 11101010
          -101 callgsubr
          hintmask 00000100
          -15 528 -103 callgsubr
          endchar
        </CharString>
        <CharString name="Aacute.swash_ini">
          -51 callgsubr
          76 -2 callgsubr
          10 90 243 121 hintmask 00001000
          581 810 -103 callgsubr
          hintmask 11110110
          46 -205 -107 callsubr
          endchar
        </CharString>
        <CharString name="Acircumflex">
          27 88 200 65 195 endchar
        </CharString>
        <CharString name="Acircumflex.end">
          15 -21 27 -21 192 90 -44 92 386 -20 97 -45 callsubr
          10 121 hintmask 00000110
          491 800 -106 callgsubr
          hintmask 01101001
          -267 -98 rmoveto
          -104 callsubr
          9 26 hvcurveto
          10 -39 9 -30 10 -31 rrcurveto
          hintmask 10011001
          -102 callgsubr
          hintmask 01101001
          39 -420 -104 callgsubr
          endchar
        </CharString>
        <CharString name="Acircumflex.ini">
          -43 callsubr
          97 -45 callsubr
          10 90 243 121 hintmask 00001100
          824 800 -106 callgsubr
          hintmask 01110011
          -481 -725 rmoveto
          -101 callsubr
          -9 callgsubr
          10 -39 9 -30 10 -31 rrcurveto
          hintmask 10110011
          -105 callsubr
        </CharString>
        <CharString name="Acircumflex.swash">
          27 -75 callgsubr
          97 -45 callsubr
          10 121 hintmask 11110010
          -106 callsubr
          hintmask 00001100
          116 595 -106 callgsubr
          endchar
        </CharString>
        <CharString name="Acircumflex.swash_end">
          23 callgsubr
          163 -21 192 90 -44 92 386 -20 97 -45 callsubr
          10 121 hintmask 11011001
          -103 callsubr
          hintmask 11101001
          -101 callgsubr
          hintmask 00000110
          228 518 -106 callgsubr
          endchar
        </CharString>
        <CharString name="Acircumflex.swash_ini">
          -51 callgsubr
          97 -45 callsubr
          10 90 243 121 hintmask 11110011
          627 605 -107 callsubr
          hintmask 00001100
          116 595 -106 callgsubr
          endchar
        </CharString>
        <CharString name="Adieresis">
          27 64 200 65 200 endchar
        </CharString>
        <CharString name="Adieresis.end">
          15 -21 27 -21 192 90 -44 92 386 -20 125 117 hstemhm
          10 19 callgsubr
          hintmask 0000010110000000
          142 926 -107 callgsubr
          hintmask 0110101000000000
          -142 -224 rmoveto
          -104 callsubr
          9 26 hvcurveto
          10 -39 9 -30 10 -31 rrcurveto
          hintmask 1001101000000000
          -102 callgsubr
          hintmask 0110101000000000
          39 -420 -104 callgsubr
          endchar
        </CharString>
        <CharString name="Adieresis.ini">
          -43 callsubr
          125 10 callgsubr
          10 90 243 19 callgsubr
          hintmask 0000100110000000
          475 926 -107 callgsubr
          hintmask 0111011000000000
          -356 -851 rmoveto
          -101 callsubr
          -9 callgsubr
          10 -39 9 -30 10 -31 rrcurveto
          hintmask 1011011000000000
          -105 callsubr
        </CharString>
        <CharString name="Adieresis.swash">
          27 -75 callgsubr
          125 117 hstemhm
          10 19 callgsubr
          hintmask 11110100
          -106 callsubr
          hintmask 00001011
          -233 721 -107 callgsubr
          endchar
        </CharString>
        <CharString name="Adieresis.swash_end">
          23 callgsubr
          163 -21 192 90 -44 92 386 -20 125 117 hstemhm
          10 19 callgsubr
          hintmask 1101101000000000
          -103 callsubr
          hintmask 1110101000000000
          -101 callgsubr
          hintmask 0000010110000000
          -121 644 -107 callgsubr
          endchar
        </CharString>
        <CharString name="Adieresis.swash_ini">
          -51 callgsubr
          125 10 callgsubr
          10 90 243 19 callgsubr
          hintmask 1111011000000000
          627 605 -107 callsubr
          hintmask 0000100110000000
          -233 721 -107 callgsubr
          endchar
        </CharString>
        <CharString name="Agrave">
          27 -55 callsubr
          76 178 -18 callgsubr
          hintmask 01110100
          224 702 rmoveto
          -104 callsubr
          9 26 hvcurveto
          10 -39 9 -30 10 -31 rrcurveto
          hintmask 10110100
          -82 callsubr
          hintmask 00001000
          139 528 -102 callsubr
          endchar
        </CharString>
        <CharString name="Agrave.end">
          15 -21 27 -21 192 90 -44 92 386 -20 76 178 -18 callgsubr
          hintmask 00000100
          402 810 -102 callsubr
          hintmask 01101010
          -178 -108 rmoveto
          -104 callsubr
          9 26 hvcurveto
          10 -39 9 -30 10 -31 rrcurveto
          hintmask 10011010
          -102 callgsubr
          hintmask 01101010
          39 -420 -104 callgsubr
          endchar
        </CharString>
        <CharString name="Agrave.ini">
          -43 callsubr
          76 -2 callgsubr
          10 90 243 121 hintmask 00001000
          735 810 -102 callsubr
          hintmask 01110110
          -392 -735 rmoveto
          -101 callsubr
          -9 callgsubr
          10 -39 9 -30 10 -31 rrcurveto
          hintmask 10110110
          -105 callsubr
        </CharString>
        <CharString name="Agrave.swash">
          27 -75 callgsubr
          76 178 -18 callgsubr
          hintmask 11110100
          -106 callsubr
          hintmask 00001000
          27 605 -102 callsubr
          endchar
        </CharString>
        <CharString name="Agrave.swash_end">
          23 callgsubr
          163 -21 192 90 -44 92 386 -20 76 178 -18 callgsubr
          hintmask 11011010
          -103 callsubr
          hintmask 11101010
          -101 callgsubr
          hintmask 00000100
          139 528 -102 callsubr
          endchar
        </CharString>
        <CharString name="Agrave.swash_ini">
          -51 callgsubr
          76 -2 callgsubr
          10 90 243 121 hintmask 11110110
          627 605 -107 callsubr
          hintmask 00001000
          27 605 -102 callsubr
          endchar
        </CharString>
        <CharString name="Aring">
          27 -55 callsubr
          80 53 69 52 hstemhm
          10 48 callgsubr
          hintmask 0111001000000000
          224 702 rmoveto
          -104 callsubr
          9 26 hvcurveto
          10 -39 9 -30 10 -31 rrcurveto
          hintmask 1011001000000000
          -82 callsubr
          32 494 -66 callsubr
          hvcurveto
          hintmask 0000110110000000
          -45 33 -32 45 vhcurveto
          -92 callsubr
          endchar
        </CharString>
        <CharString name="Aring.end">
          15 -21 27 -21 192 90 -44 92 386 -20 80 53 69 52 hstemhm
          10 48 callgsubr
          hintmask 0000011011000000
          295 -41 callgsubr
          hintmask 0110100100000000
          -86 -127 rmoveto
          -104 callsubr
          9 26 hvcurveto
          10 -39 9 -30 10 -31 rrcurveto
          hintmask 1001100100000000
          -102 callgsubr
          hintmask 0110100100000000
          39 -420 -104 callgsubr
          endchar
        </CharString>
        <CharString name="Aring.ini">
          -43 callsubr
          80 53 69 52 hstemhm
          10 90 243 48 callgsubr
          hintmask 0000110011000000
          628 -41 callgsubr
          hintmask 0111001100000000
          -300 -754 rmoveto
          -101 callsubr
          -9 callgsubr
          10 -39 9 -30 10 -31 rrcurveto
          hintmask 1011001100000000
          -105 callsubr
        </CharString>
        <CharString name="Aring.swash">
          27 -75 callgsubr
          80 53 69 52 hstemhm
          10 48 callgsubr
          hintmask 1111001000000000
          -106 callsubr
          -80 571 -66 callsubr
          hvcurveto
          hintmask 0000110110000000
          -45 33 -32 45 vhcurveto
          -92 callsubr
          endchar
        </CharString>
        <CharString name="Aring.swash_end">
          23 callgsubr
          163 -21 192 90 -44 92 386 -20 80 53 69 52 hstemhm
          10 48 callgsubr
          hintmask 1101100100000000
          -103 callsubr
          hintmask 1110100100000000
          -101 callgsubr
          32 494 -66 callsubr
          hvcurveto
          hintmask 0000011011000000
          -45 33 -32 45 vhcurveto
          -92 callsubr
          endchar
        </CharString>
        <CharString name="Aring.swash_ini">
          -51 callgsubr
          80 53 69 52 hstemhm
          10 90 243 48 callgsubr
          hintmask 1111001100000000
          627 605 -107 callsubr
          -80 571 -66 callsubr
          hvcurveto
          hintmask 0000110011000000
          -45 33 -32 45 vhcurveto
          -92 callsubr
          endchar
        </CharString>
        <CharString name="Atilde">
          27 -55 callsubr
          86 -66 callgsubr
          10 121 hintmask 0111000010000000
          224 702 rmoveto
          -104 callsubr
          9 26 hvcurveto
          10 -39 9 -30 10 -31 rrcurveto
          hintmask 1011000010000000
          -82 callsubr
          hintmask 0000010100000000
          221 619 -95 callgsubr
          endchar
        </CharString>
        <CharString name="Atilde.end">
          15 -21 27 -21 192 90 -44 92 386 -20 86 -66 callgsubr
          10 121 hintmask 0000001010000000
          484 901 -56 callsubr
          hintmask 0000000100000000
          -96 callsubr
          hintmask 0000010010000000
          -89 callsubr
          hintmask 0110100001000000
          -260 -199 rmoveto
          -104 callsubr
          9 26 hvcurveto
          10 -39 9 -30 10 -31 rrcurveto
          hintmask 1001100001000000
          -102 callgsubr
          hintmask 0110100001000000
          39 -420 -104 callgsubr
          endchar
        </CharString>
        <CharString name="Atilde.ini">
          -43 callsubr
          86 -66 callgsubr
          10 90 243 121 hintmask 0000010100000000
          817 901 -95 callgsubr
          hintmask 0111000011000000
          -474 -826 rmoveto
          -101 callsubr
          -9 callgsubr
          10 -39 9 -30 10 -31 rrcurveto
          hintmask 1011000011000000
          -105 callsubr
        </CharString>
        <CharString name="Atilde.swash">
          27 -75 callgsubr
          86 -66 callgsubr
          10 121 hintmask 1111000010000000
          -106 callsubr
          hintmask 0000010100000000
          109 696 -95 callgsubr
          endchar
        </CharString>
        <CharString name="Atilde.swash_end">
          23 callgsubr
          163 -21 192 90 -44 92 386 -20 86 -66 callgsubr
          10 121 hintmask 1101100001000000
          -103 callsubr
          hintmask 1110100001000000
          -101 callgsubr
          hintmask 0000001010000000
          221 619 -56 callsubr
          hintmask 0000000100000000
          -96 callsubr
          hintmask 0000010010000000
          -61 callsubr
        </CharString>
        <CharString name="Atilde.swash_ini">
          -51 callgsubr
          86 -66 callgsubr
          10 90 243 121 hintmask 1111000011000000
          627 605 -107 callsubr
          hintmask 0000010100000000
          109 696 -95 callgsubr
          endchar
        </CharString>
        <CharString name="B">
          48 -6 94 539 89 hstemhm
          91 40 callgsubr
          66 678 rmoveto
          15 -94 10 -122 -120 -34 callgsubr
          -97 -104 -23 -15 -57 vhcurveto
          151 -576 -17 callgsubr
          56 3 77 vhcurveto
          6 26 32 6 25 callsubr
        </CharString>
        <CharString name="B.ini">
          501 -6 94 539 89 hstemhm
          543 40 callgsubr
          531 586 rmoveto
          8 -76 4 -84 -84 -34 callgsubr
          8 callgsubr
          vhcurveto
          22 178 169 101 209 59 rrcurveto
          138 -484 -17 callgsubr
          59 3 77 vhcurveto
          6 26 32 3 25 callsubr
        </CharString>
        <CharString name="B.swash">
          118 -249 99 171 -21 627 89 hstemhm
          71 -49 callsubr
          207 132 -12 132 hintmask 11110100
          207 382 rmoveto
          88 5 60 3 85 vhcurveto
          6 26 32 6 30 hhcurveto
          64 47 -26 -64 -138 -111 3 -96 -20 hvcurveto
          hintmask 11101100
          -116 -12 rmoveto
          hintmask 11110010
          -109 -20 -92 -88 -95 callsubr
          -14 74 -5 109 -1 99 rrcurveto
          15 37 46 11 43 hhcurveto
          119 81 -66 -147 -183 -177 -74 -184 -192 -219 67 155 -37 hvcurveto
          43 callgsubr
          286 254 137 237 140 -101 96 -110 28 vhcurveto
          hintmask 11101100
          52 33 39 56 79 vvcurveto
          120 -102 39 -120 -97 -104 -23 -15 -57 vhcurveto
          14 -87 10 -110 1 -111 rrcurveto
          endchar
        </CharString>
        <CharString name="C">
          24 -12 97 540 97 hstemhm
          25 134 286 147 -119 119 hintmask 11101000
          364 722 rmoveto
          -216 -123 -181 -213 -195 92 -145 195 136 144 91 136 61 -60 18 -59 hvcurveto
          6 callgsubr
          hintmask 11110000
          -6 callgsubr
          hvcurveto
          endchar
        </CharString>
        <CharString name="C.swash">
          128 -250 97 780 97 hstemhm
          25 134 399 137 -114 114 hintmask 11101000
          554 381 rmoveto
          -5 15 12 -5 19 hhcurveto
          45 50 28 83 94 -64 148 -185 -245 -176 -262 -283 -229 115 -200 224 191 144 145 126 73 -48 18 -70 hvcurveto
          -137 -44 -128 -136 -114 -128 91 268 160 46 117 52 74 vhcurveto
          40 43 65 30 55 hhcurveto
          hintmask 11110000
          96 42 -91 -113 -18 -1 -8 -3 -16 hvcurveto
          endchar
        </CharString>
        <CharString name="Ccedilla">
          24 -250 76 64 61 38 96 540 97 hstemhm
          25 134 69 21 callsubr
          10 147 -119 119 hintmask 1111100110000000
          278 -38 callsubr
          hintmask 1111110001000000
          -58 callgsubr
          19 6 16 13 13 vhcurveto
          129 10 127 88 128 vvcurveto
          61 -60 18 -59 vhcurveto
          6 callgsubr
          hintmask 1111101010000000
          -6 callgsubr
          -216 -123 -181 -213 -183 81 -138 170 -17 hvcurveto
          -11 -16 -4 -18 -21 39 callsubr
        </CharString>
        <CharString name="D">
          68 -6 94 539 89 hstem
          91 115 288 132 vstem
          60 45 rmoveto
          11 callgsubr
          -73 -82 -14 -24 -86 hvcurveto
          16 -105 9 -105 -105 vvcurveto
          -106 -9 -106 -22 -106 vhcurveto
          146 352 rmoveto
          68 4 82 5 68 vhcurveto
          10 34 32 2 28 -7 callsubr
        </CharString>
        <CharString name="D.ini">
          537 -6 94 539 89 hstem
          60 71 429 123 280 132 vstem
          131 248 rmoveto
          158 214 124 203 59 vhcurveto
          8 -75 4 -76 -75 vvcurveto
          -106 -9 -106 -22 -106 vhcurveto
          11 callgsubr
          8 callgsubr
          hvcurveto
          544 149 rmoveto
          66 3 89 5 67 vhcurveto
          5 34 32 3 29 -7 callsubr
        </CharString>
        <CharString name="D.swash">
          68 -249 99 171 -21 627 89 hstemhm
          71 -49 callsubr
          347 132 hintmask 11101100
          554 277 rmoveto
          -295 -187 -132 -194 -192 -219 67 155 -37 vhcurveto
          43 callgsubr
          296 264 223 333 271 -129 138 -250 -73 -82 -14 -24 -86 vhcurveto
          19 -103 6 -99 -108 vvcurveto
          hintmask 11110100
          -76 callsubr
          78 3 64 5 77 vhcurveto
          9 34 32 2 28 hhcurveto
          177 68 -170 -180 hvcurveto
          endchar
        </CharString>
        <CharString name="E">
          -35 -6 100 -88 88 211 -70 callgsubr
          hstemhm
          64 133 -9 callsubr
          hintmask 0101100010000000
          511 138 rmoveto
          -87 callsubr
          hintmask 1010010100000000
          -100 callsubr
          hintmask 1010100100000000
          -73 callsubr
          hintmask 1010001100000000
          -78 callgsubr
          vhcurveto
          hintmask 1010100010000000
          -71 callsubr
          hintmask 0110100100000000
          -74 callgsubr
          hintmask 1010100100000000
          -81 callgsubr
          endchar
        </CharString>
        <CharString name="E.end">
          155 -6 97 214 -70 callgsubr
          hstemhm
          64 133 -9 callsubr
          hintmask 10110001
          442 -6 rmoveto
          75 196 4 136 44 -21 42 -37 34 hvcurveto
          -129 -40 -93 -34 -164 hhcurveto
          -49 -57 3 4 -48 hvcurveto
          -7 74 0 78 80 vvcurveto
          hintmask 11001010
          62 75 -25 47 hhcurveto
          66 23 48 35 -70 callsubr
          -42 -9 -68 hhcurveto
          -32 -46 2 4 -42 hvcurveto
          1 66 3 58 5 66 rrcurveto
          hintmask 11010010
          -61 callgsubr
          hintmask 11000110
          -78 callgsubr
          vhcurveto
          hintmask 11010001
          -15 -95 -101 -3 -80 hhcurveto
          -66 -47 22 callsubr
          -54 13 -117 -119 vvcurveto
          hintmask 11010010
          -137 -17 -126 -113 vvcurveto
          -23 23 -14 23 -1 vhcurveto
          -5 94 139 -7 99 hhcurveto
          endchar
        </CharString>
        <CharString name="E.ini">
          -55 callgsubr
          -10 callgsubr
          hintmask 10110010
          429 431 rmoveto
          -97 -272 -4 -178 -53 24 -38 34 -32 hvcurveto
          162 45 143 57 146 hhcurveto
          17 hlineto
          -4 -105 -11 -105 -91 vvcurveto
          -23 23 -14 23 -1 vhcurveto
          -5 94 13 callsubr
          100 hhcurveto
          45 36 37 50 14 -3 23 -9 20 hvcurveto
          -32 -73 -77 -12 -74 hhcurveto
          -22 -30 1 3 -31 hvcurveto
          -6 74 -2 80 80 vvcurveto
          hintmask 11001001
          -7 37 85 -20 53 hhcurveto
          72 27 38 44 21 -6 18 -6 11 hvcurveto
          -14 -34 -36 -7 -65 hhcurveto
          -34 -49 2 4 -44 hvcurveto
          2 63 5 63 4 64 rrcurveto
          hintmask 11010010
          -61 callgsubr
          hintmask 11000110
          -78 callgsubr
          vhcurveto
          hintmask 10110001
          -15 -95 -101 -3 -80 hhcurveto
          -66 -47 -19 callsubr
          7 -52 13 -107 1 -121 rrcurveto
          1 -14 -14 0 -14 hhcurveto
          endchar
        </CharString>
        <CharString name="E.swash_ini">
          -67 callsubr
          hstemhm
          671 133 -9 callsubr
          hintmask 1010010001000000
          51 callgsubr
          hintmask 0110100010000000
          -74 callgsubr
          hintmask 1001100010000000
          -81 callgsubr
          -87 callsubr
          hintmask 1010100010000000
          -100 callsubr
          -73 callsubr
          hintmask 1010000110000000
          -78 callgsubr
          vhcurveto
          hintmask 1010010010000000
          -14 -82 -68 -3 -68 hhcurveto
          hintmask 1010001010000000
          -87 -87 6 -114 hhcurveto
          -178 -361 -23 -178 -40 18 -34 35 -28 hvcurveto
          hintmask 1010010010000000
          -25 callgsubr
          endchar
        </CharString>
        <CharString name="Eacute">
          -15 -6 100 -88 88 211 -70 callgsubr
          70 -2 callgsubr
          64 133 -9 callsubr
          hintmask 0101100001000000
          511 138 rmoveto
          -87 callsubr
          hintmask 1010010010000000
          -100 callsubr
          hintmask 1010100010000000
          -73 callsubr
          hintmask 1010001010000000
          -78 callgsubr
          vhcurveto
          hintmask 1010100001000000
          -71 callsubr
          hintmask 0110100010000000
          -74 callgsubr
          hintmask 1010100010000000
          -81 callgsubr
          hintmask 0000000100000000
          -276 672 -103 callgsubr
          endchar
        </CharString>
        <CharString name="Eacute.end">
          155 -6 97 214 -70 callgsubr
          70 -2 callgsubr
          64 133 -9 callsubr
          -98 callgsubr
          hintmask 0000001000000000
          -207 816 -103 callgsubr
          endchar
        </CharString>
        <CharString name="Eacute.ini">
          -55 callgsubr
          70 178 -10 callgsubr
          -100 callgsubr
          hintmask 0000001000000000
          196 379 -103 callgsubr
          endchar
        </CharString>
        <CharString name="Eacute.swash_ini">
          -67 callsubr
          70 -2 callgsubr
          671 133 -9 callsubr
          hintmask 1010010000100000
          678 619 rmoveto
          6 -56 4 -71 -77 -22 callgsubr
          hintmask 1001100001000000
          -81 callgsubr
          -87 callsubr
          hintmask 1010100001000000
          -100 callsubr
          -73 callsubr
          hintmask 1010000101000000
          -78 callgsubr
          vhcurveto
          hintmask 1010010001000000
          -14 -82 -68 -3 -68 hhcurveto
          hintmask 1010001001000000
          -87 -87 6 -114 hhcurveto
          -178 -361 -23 -178 -40 18 -34 35 -28 hvcurveto
          hintmask 1010010001000000
          -25 callgsubr
          hintmask 0000000010000000
          218 191 -103 callgsubr
          endchar
        </CharString>
        <CharString name="Ecircumflex">
          -15 -6 100 -88 88 211 -70 callgsubr
          91 -45 callsubr
          64 133 -9 callsubr
          hintmask 0101100000100000
          511 138 rmoveto
          -87 callsubr
          hintmask 1010010001000000
          -100 callsubr
          hintmask 1010100001000000
          -73 callsubr
          hintmask 1010001001000000
          -78 callgsubr
          vhcurveto
          hintmask 1010100000100000
          -71 callsubr
          hintmask 0110100001000000
          35 callsubr
          23 -14 23 -1 vhcurveto
          hintmask 1010100001000000
          -81 callgsubr
          hintmask 0000000110000000
          -32 662 -106 callgsubr
          endchar
        </CharString>
        <CharString name="Ecircumflex.end">
          155 -6 97 214 -70 callgsubr
          91 -45 callsubr
          64 133 -9 callsubr
          hintmask 1011000001000000
          442 -6 rmoveto
          75 196 4 136 44 -21 42 -37 34 hvcurveto
          -129 -40 -93 -34 -164 hhcurveto
          -49 -57 3 4 -48 hvcurveto
          -7 74 0 78 80 vvcurveto
          hintmask 1100100010000000
          62 75 -25 47 hhcurveto
          66 23 48 35 -70 callsubr
          -42 -9 -68 hhcurveto
          -32 -46 2 4 -42 hvcurveto
          1 66 3 58 5 66 rrcurveto
          hintmask 1101000010000000
          -61 callgsubr
          hintmask 1100010010000000
          -78 callgsubr
          vhcurveto
          hintmask 1101000001000000
          -15 -95 -101 -3 -80 hhcurveto
          -66 -47 22 callsubr
          -54 13 -117 -119 vvcurveto
          hintmask 1101000010000000
          -137 -17 -126 -113 vvcurveto
          -23 23 -14 23 -1 vhcurveto
          -5 94 139 -7 99 hhcurveto
          hintmask 0000001100000000
          37 806 -106 callgsubr
          endchar
        </CharString>
        <CharString name="Ecircumflex.ini">
          -55 callgsubr
          91 -21 198 -20 -10 callgsubr
          hintmask 1011000010000000
          429 431 rmoveto
          -97 -272 -4 -178 -53 24 -38 34 -32 hvcurveto
          162 45 143 57 146 hhcurveto
          17 hlineto
          -4 -105 -11 -105 -91 vvcurveto
          -23 23 -14 23 -1 vhcurveto
          -5 94 13 callsubr
          100 hhcurveto
          45 36 37 50 14 -3 23 -9 20 hvcurveto
          -32 -73 -77 -12 -74 hhcurveto
          -22 -30 1 3 -31 hvcurveto
          -6 74 -2 80 80 vvcurveto
          hintmask 1100100001000000
          -7 37 85 -20 53 hhcurveto
          72 27 38 44 21 -6 18 -6 11 hvcurveto
          -14 -34 -36 -7 -65 hhcurveto
          -34 -49 2 4 -44 hvcurveto
          2 63 5 63 4 64 rrcurveto
          hintmask 1101000010000000
          -61 callgsubr
          hintmask 1100010010000000
          -78 callgsubr
          vhcurveto
          hintmask 1011000001000000
          -15 -95 -101 -3 -80 hhcurveto
          -66 -47 -19 callsubr
          7 -52 13 -107 1 -121 rrcurveto
          1 -14 -14 0 -14 hhcurveto
          hintmask 0000001100000000
          440 369 -106 callgsubr
          endchar
        </CharString>
        <CharString name="Ecircumflex.swash_ini">
          -67 callsubr
          91 -45 callsubr
          671 133 -9 callsubr
          hintmask 1010010000010000
          51 callgsubr
          hintmask 0110100000100000
          -74 callgsubr
          hintmask 1001100000100000
          -81 callgsubr
          -87 callsubr
          hintmask 1010100000100000
          -100 callsubr
          -73 callsubr
          hintmask 1010000100100000
          -78 callgsubr
          vhcurveto
          hintmask 1010010000100000
          -14 -82 -68 -3 -68 hhcurveto
          hintmask 1010001000100000
          -87 -87 6 -114 hhcurveto
          -178 -361 -23 -178 -40 18 -34 35 -28 hvcurveto
          hintmask 1010010000100000
          -25 callgsubr
          hintmask 0000000011000000
          462 181 -106 callgsubr
          endchar
        </CharString>
        <CharString name="Edieresis">
          -15 -6 100 -88 88 211 -70 callgsubr
          119 10 callgsubr
          64 133 -9 callsubr
          -64 -45 callgsubr
          hintmask 0101100001000000
          511 138 rmoveto
          -87 callsubr
          hintmask 1010010010000000
          -100 callsubr
          hintmask 1010100010000000
          -73 callsubr
          hintmask 1010001010000000
          -78 callgsubr
          vhcurveto
          hintmask 1010100001000000
          -71 callsubr
          hintmask 0110100010000000
          -74 callgsubr
          hintmask 1010100010000000
          -81 callgsubr
          hintmask 0000000100110000
          -370 788 -107 callgsubr
          endchar
        </CharString>
        <CharString name="Edieresis.end">
          155 -6 97 214 -70 callgsubr
          119 10 callgsubr
          64 133 -9 callsubr
          -64 -45 callgsubr
          -98 callgsubr
          hintmask 0000001001100000
          -301 932 -107 callgsubr
          endchar
        </CharString>
        <CharString name="Edieresis.ini">
          -55 callgsubr
          119 117 -10 callgsubr
          -63 -45 callgsubr
          -100 callgsubr
          hintmask 0000001001100000
          102 495 -107 callgsubr
          endchar
        </CharString>
        <CharString name="Edieresis.swash_ini">
          -67 callsubr
          119 10 callgsubr
          671 133 -9 callsubr
          -64 -45 callgsubr
          hintmask 1010010000100000
          678 619 rmoveto
          6 -56 4 -71 -77 -22 callgsubr
          hintmask 1001100001000000
          -81 callgsubr
          -87 callsubr
          hintmask 1010100001000000
          -100 callsubr
          -73 callsubr
          hintmask 1010000101000000
          -78 callgsubr
          vhcurveto
          hintmask 1010010001000000
          -14 -82 -68 -3 -68 hhcurveto
          hintmask 1010001001000000
          -87 -87 6 -114 hhcurveto
          -178 -361 -23 -178 -40 18 -34 35 -28 hvcurveto
          hintmask 1010010001000000
          -25 callgsubr
          hintmask 0000000010011000
          124 307 -107 callgsubr
          endchar
        </CharString>
        <CharString name="Egrave">
          -15 -6 100 -88 88 211 -70 callgsubr
          70 -2 callgsubr
          64 133 -9 callsubr
          hintmask 0101100001000000
          511 138 rmoveto
          -87 callsubr
          hintmask 1010010010000000
          -100 callsubr
          hintmask 1010100010000000
          -73 callsubr
          hintmask 1010001010000000
          -78 callgsubr
          vhcurveto
          hintmask 1010100001000000
          -71 callsubr
          hintmask 0110100010000000
          -74 callgsubr
          hintmask 1010100010000000
          -81 callgsubr
          hintmask 0000000100000000
          -112 672 -102 callsubr
          endchar
        </CharString>
        <CharString name="Egrave.end">
          155 -6 97 214 -70 callgsubr
          70 -2 callgsubr
          64 133 -9 callsubr
          -98 callgsubr
          hintmask 0000001000000000
          -43 816 -102 callsubr
          endchar
        </CharString>
        <CharString name="Egrave.ini">
          -55 callgsubr
          70 178 -10 callgsubr
          -100 callgsubr
          hintmask 0000001000000000
          360 379 -102 callsubr
          endchar
        </CharString>
        <CharString name="Egrave.swash_ini">
          -67 callsubr
          70 -2 callgsubr
          671 133 -9 callsubr
          hintmask 1010010000100000
          678 619 rmoveto
          6 -56 4 -71 -77 -22 callgsubr
          hintmask 1001100001000000
          -81 callgsubr
          -87 callsubr
          hintmask 1010100001000000
          -100 callsubr
          -73 callsubr
          hintmask 1010000101000000
          -78 callgsubr
          vhcurveto
          hintmask 1010010001000000
          -14 -82 -68 -3 -68 hhcurveto
          hintmask 1010001001000000
          -87 -87 6 -114 hhcurveto
          -178 -361 -23 -178 -40 18 -34 35 -28 hvcurveto
          hintmask 1010010001000000
          -25 callgsubr
          hintmask 0000000010000000
          382 191 -102 callsubr
          endchar
        </CharString>
        <CharString name="Eth">
          138 -12 95 210 96 -81 96 224 90 hstemhm
          40 236 -115 115 288 132 hintmask 10111010
          160 401 rmoveto
          2 -14 -13 1 -12 48 callsubr
          hintmask 11011010
          -19 callgsubr
          hintmask 10110110
          32 10 31 4 46 1 -1 -89 -9 -91 -21 -89 rrcurveto
          -34 80 83 -17 80 hhcurveto
          220 103 189 220 172 -110 149 -172 -99 -80 -15 -33 -99 hvcurveto
          19 -81 4 -99 1 -89 rrcurveto
          117 -102 rmoveto
          hintmask 11011010
          -3 22 18 -3 17 32 callgsubr
          hintmask 10111010
          -20 callsubr
          hintmask 11011010
          -12 -35 -36 -3 -56 hhcurveto
          68 4 88 5 68 vhcurveto
          10 38 33 5 38 hhcurveto
          129 41 -132 -129 -141 -37 -143 -141 -33 -35 4 13 -33 hvcurveto
          -5 69 -2 64 -1 66 rrcurveto
          endchar
        </CharString>
        <CharString name="F">
          -63 61 callsubr
          3 callgsubr
          hstemhm
          61 -49 callsubr
          hintmask 10110010
          197 320 rmoveto
          hintmask 11001001
          -5 callsubr
          77 4 66 4 57 rrcurveto
          hintmask 11010010
          -73 callsubr
          hintmask 11000110
          -78 callgsubr
          vhcurveto
          hintmask 11010001
          -71 callsubr
          hintmask 10110010
          -119 -20 -117 -98 -95 callsubr
          -20 110 -1 98 100 vvcurveto
          endchar
        </CharString>
        <CharString name="F.ini">
          355 21 -21 295 111 -55 92 149 3 callgsubr
          hstemhm
          479 137 -117 117 hintmask 11001001
          797 295 rmoveto
          -53 callgsubr
          -70 callsubr
          -44 -9 -62 hhcurveto
          -40 -37 2 4 -37 hvcurveto
          2 71 3 82 4 47 rrcurveto
          hintmask 11010010
          -73 callsubr
          hintmask 11000110
          -78 callgsubr
          vhcurveto
          hintmask 10110001
          -15 -95 -97 -3 -96 hhcurveto
          -50 -51 22 callsubr
          -53 12 -109 1 -123 rrcurveto
          9 -74 -78 9 -95 hhcurveto
          -109 -133 -40 -132 -38 24 -38 22 -28 hvcurveto
          125 53 109 59 120 hhcurveto
          57 53 -4 -6 49 hvcurveto
          hintmask 11010010
          -5 -93 -13 -90 -77 -73 callgsubr
          95 -2 120 96 vvcurveto
          -14 77 62 -14 42 hhcurveto
          endchar
        </CharString>
        <CharString name="F.swash_ini">
          544 61 callsubr
          119 -92 92 -7 -20 38 -20 hstemhm
          668 -49 callsubr
          hintmask 1100010100000000
          857 704 rmoveto
          hintmask 1100100010000000
          -77 -87 7 -94 hhcurveto
          -178 -361 -23 -178 -40 18 -34 35 -28 hvcurveto
          -25 callgsubr
          19 18 0 -1 17 hvcurveto
          5 -57 5 -70 -76 vvcurveto
          hintmask 1011000100000000
          -119 -20 -117 -98 -95 callsubr
          -20 110 -1 98 100 vvcurveto
          hintmask 1101000100000000
          -5 callsubr
          69 3 76 3 56 rrcurveto
          -8 120 54 -13 50 hhcurveto
          45 36 36 45 hvcurveto
          hintmask 1100001100000000
          -78 callgsubr
          vhcurveto
          hintmask 1100010100000000
          -15 -75 -97 -3 -76 hhcurveto
          endchar
        </CharString>
        <CharString name="G">
          47 -6 38 callsubr
          230 -137 137 hintmask 11111000
          435 469 rmoveto
          -9 15 16 0 20 hhcurveto
          8 callsubr
          101 77 45 11 78 hvcurveto
          88 18 67 74 51 callsubr
          -46 callgsubr
          hintmask 11110100
          63 callsubr
          endchar
        </CharString>
        <CharString name="G.swash">
          47 5 callgsubr
          244 38 callsubr
          240 -147 131 -117 117 hintmask 11111010
          hintmask 11111100
          452 19 rmoveto
          -2 -92 -14 -84 -74 -59 rrcurveto
          -21 30 42 -13 28 hhcurveto
          94 13 133 125 hvcurveto
          103 16 111 57 51 callsubr
          hintmask 11111010
          -46 callgsubr
          63 callsubr
          -9 15 16 0 20 hhcurveto
          hintmask 11111001
          8 callsubr
          52 46 12 13 43 hvcurveto
          endchar
        </CharString>
        <CharString name="H">
          100 15 -21 27 -21 327 94 289 -20 26 -57 callsubr
          254 -53 callsubr
          136 hintmask 1010110010000000
          218 12 rmoveto
          19 callsubr
          104 90 0 -7 98 hvcurveto
          -5 -88 -13 -84 -73 vvcurveto
          39 callgsubr
          123 vvcurveto
          hintmask 1010100101000000
          119 20 97 98 -90 callsubr
          17 -94 4 -79 -102 vvcurveto
          -8 -53 -54 0 -52 42 callgsubr
          hintmask 1011001010000000
          -96 callgsubr
          21 -102 0 -72 -103 vvcurveto
          hintmask 0110110010000000
          -129 -20 -113 -98 -95 callsubr
          endchar
        </CharString>
        <CharString name="H.end">
          466 15 -21 27 -21 334 75 -75 91 285 -20 26 -20 hstemhm
          61 -53 callsubr
          136 254 -79 callsubr
          hintmask 0101100110000000
          202 425 rmoveto
          6 83 9 48 73 -90 callsubr
          21 -102 0 -72 -103 vvcurveto
          hintmask 0110101010000000
          -27 callsubr
          -5 -85 -14 -109 -61 vvcurveto
          hintmask 1010101001000000
          39 callgsubr
          126 -13 callsubr
          hintmask 0101011000100000
          -12 callgsubr
          endchar
        </CharString>
        <CharString name="H.ini">
          467 15 -21 27 7 callgsubr
          254 -79 callsubr
          hintmask 0101010101000000
          448 429 rmoveto
          -8 callgsubr
          hintmask 0110011001000000
          -5 -98 -13 -88 -78 -73 callgsubr
          96 -3 96 97 vvcurveto
          39 vlineto
          98 -5 98 -8 96 -7 rrcurveto
          -5 -88 -13 -84 -73 vvcurveto
          hintmask 1010011000100000
          39 callgsubr
          123 vvcurveto
          hintmask 0110010010010000
          -33 callsubr
          hintmask 0110100101000000
          -96 callgsubr
          19 -97 2 -60 -112 vvcurveto
          endchar
        </CharString>
        <CharString name="H.swash">
          100 5 callgsubr
          271 -21 327 94 289 -20 26 -57 callsubr
          269 121 -121 141 hintmask 1110110010000000
          768 -202 rmoveto
          63 callgsubr
          hintmask 1110100101000000
          109 20 130 55 vvcurveto
          79 -42 22 -49 -25 -25 -6 -6 -16 vhcurveto
          17 -94 4 -79 -102 vvcurveto
          -7 -49 -36 -1 -74 42 callgsubr
          hintmask 1111001010000000
          47 -40 34 -53 -22 -26 -6 -6 -16 vhcurveto
          20 -99 1 -60 -118 vvcurveto
          hintmask 1110110010000000
          -119 -20 -146 -55 vvcurveto
          -79 42 -22 49 25 25 6 6 16 vhcurveto
          19 callsubr
          104 90 0 -7 98 hvcurveto
          -1 -58 -2 -133 -32 7 callsubr
          endchar
        </CharString>
        <CharString name="H.swash_end">
          466 5 callgsubr
          271 -21 323 86 -86 102 285 -20 26 -57 callsubr
          269 121 -121 141 hintmask 1110011001000000
          490 330 rmoveto
          -1 -61 -3 -139 -33 7 callsubr
          -160 125 -1 200 201 -13 callsubr
          hintmask 1101010010100000
          -12 callgsubr
          6 83 9 48 73 vvcurveto
          hintmask 1110100101000000
          -96 callgsubr
          21 -102 0 -72 -103 vvcurveto
          hintmask 1110011001000000
          -27 callsubr
          endchar
        </CharString>
        <CharString name="H.swash_ini">
          467 5 callgsubr
          271 7 callgsubr
          269 121 -121 141 hintmask 1101010101000000
          427 698 rmoveto
          19 -97 2 -60 -112 vvcurveto
          -8 callgsubr
          hintmask 1110011001000000
          -5 -98 -13 -88 -78 -73 callgsubr
          96 -3 96 97 vvcurveto
          39 vlineto
          98 -5 98 -8 96 -7 rrcurveto
          -1 -58 -2 -133 -32 7 callsubr
          63 callgsubr
          hintmask 1110010010100000
          -33 callsubr
          hintmask 1110101001000000
          -96 callgsubr
          endchar
        </CharString>
        <CharString name="I">
          -310 21 -21 710 -57 callsubr
          hintmask 11010000
          218 12 49 callgsubr
          vvcurveto
          hintmask 11001000
          129 20 113 98 -90 callsubr
          21 -102 0 -72 -103 vvcurveto
          hintmask 11100000
          -129 -20 -113 -98 -95 callsubr
          endchar
        </CharString>
        <CharString name="I.swash">
          -310 -231 -21 962 -57 callsubr
          hintmask 11010000
          -74 callsubr
          hintmask 11001000
          129 20 113 98 -90 callsubr
          20 -99 1 -60 -118 vvcurveto
          hintmask 11100000
          -15 callsubr
          endchar
        </CharString>
        <CharString name="Iacute">
          -310 2 200 73 194 endchar
        </CharString>
        <CharString name="Iacute.swash">
          18 callsubr
          82 -2 callgsubr
          61 -79 callsubr
          hintmask 11001000
          -74 callsubr
          hintmask 11000100
          129 20 113 98 -90 callsubr
          20 -99 1 -60 -118 vvcurveto
          hintmask 11010000
          -15 callsubr
          hintmask 00100000
          -9 799 -103 callgsubr
          endchar
        </CharString>
        <CharString name="Icircumflex">
          -310 -85 200 73 195 endchar
        </CharString>
        <CharString name="Icircumflex.swash">
          18 callsubr
          103 -21 198 -57 callsubr
          hintmask 11000100
          -74 callsubr
          hintmask 11000010
          129 20 113 98 -90 callsubr
          20 -99 1 -60 -118 vvcurveto
          hintmask 11001000
          -15 callsubr
          hintmask 00110000
          257 789 -106 callgsubr
          endchar
        </CharString>
        <CharString name="Idieresis">
          -310 -101 200 73 200 endchar
        </CharString>
        <CharString name="Idieresis.swash">
          18 callsubr
          131 10 callgsubr
          -31 117 -25 -79 callsubr
          -24 117 hintmask 11000100
          -74 callsubr
          hintmask 11000010
          129 20 113 98 -90 callsubr
          20 -99 1 -60 -118 vvcurveto
          hintmask 11001000
          -15 callsubr
          hintmask 00110001
          -84 915 -107 callgsubr
          endchar
        </CharString>
        <CharString name="Igrave">
          -310 21 -21 710 -20 82 -2 callgsubr
          61 -79 callsubr
          hintmask 11001000
          218 12 49 callgsubr
          vvcurveto
          hintmask 11000100
          129 20 113 98 -90 callsubr
          21 -102 0 -72 -103 vvcurveto
          hintmask 11010000
          -129 -20 -113 -98 -95 callsubr
          hintmask 00100000
          17 798 -102 callsubr
          endchar
        </CharString>
        <CharString name="Igrave.swash">
          18 callsubr
          82 -2 callgsubr
          61 -79 callsubr
          hintmask 11001000
          -74 callsubr
          hintmask 11000100
          129 20 113 98 -90 callsubr
          20 -99 1 -60 -118 vvcurveto
          hintmask 11010000
          -15 callsubr
          hintmask 00100000
          174 799 -102 callsubr
          endchar
        </CharString>
        <CharString name="Itilde">
          -310 -113 204 73 196 endchar
        </CharString>
        <CharString name="Itilde.swash">
          18 callsubr
          96 89 -50 50 -50 79 1 -57 callsubr
          hintmask 1100000100000000
          -74 callsubr
          hintmask 1100000010000000
          129 20 113 98 -90 callsubr
          20 -99 1 -60 -118 vvcurveto
          hintmask 1100001000000000
          -15 callsubr
          hintmask 0001010000000000
          250 894 -56 callsubr
          hintmask 0000100000000000
          -96 callsubr
          hintmask 0010010000000000
          -61 callsubr
        </CharString>
        <CharString name="J">
          -143 -11 98 -98 207 415 99 12 -20 hstemhm
          0 112 152 126 hintmask 10011100
          92 -29 callgsubr
          hintmask 10101100
          29 41 15 31 hhcurveto
          8 -72 5 -84 -78 vvcurveto
          -30 0 -29 -2 -28 vhcurveto
          -75 -5 -12 -128 -75 hhcurveto
          -38 -20 31 38 12 2 8 5 13 hvcurveto
          hintmask 01101100
          5 -11 -11 2 -11 hhcurveto
          -50 -36 -45 -50 -71 67 -41 71 141 91 124 141 12 hvcurveto
          5 57 3 66 63 vvcurveto
          75 -3 74 -3 58 vhcurveto
          39 -2 -22 24 -39 hhcurveto
          hintmask 10011100
          29 callgsubr
        </CharString>
        <CharString name="J.ini">
          62 -21 98 534 -28 callsubr
          -82 2 -72 -79 vvcurveto
          -101 -16 -200 -12 callsubr
          260 179 75 -3 91 -4 63 hvcurveto
          39 -2 -22 24 -39 hhcurveto
          hintmask 10111000
          29 callgsubr
        </CharString>
        <CharString name="J.swash">
          -143 -251 98 -98 207 655 99 12 -20 hstemhm
          -95 117 242 127 hintmask 10011100
          92 -29 callgsubr
          hintmask 10101100
          29 41 15 31 hhcurveto
          11 -104 2 -99 -100 vvcurveto
          -159 -11 -302 -153 -55 -23 31 38 12 2 8 5 13 vhcurveto
          hintmask 01101100
          5 -11 -11 2 -11 hhcurveto
          -48 -43 -39 -51 -71 77 -46 86 299 24 356 243 96 -3 119 -4 84 hvcurveto
          39 -2 -22 24 -39 hhcurveto
          hintmask 10011100
          29 callgsubr
        </CharString>
        <CharString name="J.swash_ini">
          62 -251 98 764 -28 callsubr
          -134 2 -111 -118 vvcurveto
          -131 -16 -270 -12 callsubr
          320 219 114 -3 143 -4 102 hvcurveto
          39 -2 -22 24 -39 hhcurveto
          hintmask 10111000
          29 callgsubr
        </CharString>
        <CharString name="Jcircumflex">
          -143 14 204 74 195 endchar
        </CharString>
        <CharString name="K">
          52 15 -21 27 -21 710 -20 26 -57 callsubr
          243 106 hintmask 10010101
          -5 callgsubr
          -134 40 167 -276 115 hhcurveto
          55 30 33 55 hvcurveto
          -95 28 -112 154 -62 126 rrcurveto
          -141 -378 49 callgsubr
          vvcurveto
          hintmask 10100011
          129 20 113 98 -90 callsubr
          21 -102 0 -72 -103 vvcurveto
          hintmask 01011001
          -129 -20 -113 -98 -95 callsubr
          endchar
        </CharString>
        <CharString name="K.swash">
          52 23 callgsubr
          163 4 callsubr
          hstemhm
          61 -49 callsubr
          263 106 hintmask 11010110
          -5 callgsubr
          -206 72 297 -448 273 -51 callsubr
          -312 20 -170 296 -130 216 rrcurveto
          -141 -378 49 callgsubr
          129 20 113 98 vvcurveto
          hintmask 11100110
          -96 callgsubr
          21 -102 0 -72 -103 vvcurveto
          hintmask 11011010
          -129 -20 -113 -98 -95 callsubr
          endchar
        </CharString>
        <CharString name="L">
          -74 -14 callsubr
          616 -20 hstemhm
          64 11 callsubr
          60 698 rmoveto
          8 -52 13 -108 -123 -59 callgsubr
          -28 -25 -6 -6 -16 vhcurveto
          endchar
        </CharString>
        <CharString name="L.end">
          26 -14 callsubr
          616 -20 hstemhm
          64 11 callsubr
          60 53 callsubr
          hintmask 01110000
          35 callsubr
          24 -14 23 -1 vhcurveto
          hintmask 10110000
          -7 190 58 -5 163 hhcurveto
          44 37 53 60 25 -11 30 -11 26 hvcurveto
          -67 -100 -103 -27 -119 hhcurveto
          -19 -17 1 2 -18 hvcurveto
          -5 51 -2 57 116 vvcurveto
          hintmask 10100100
          119 20 95 94 43 callsubr
        </CharString>
        <CharString name="L.ini">
          152 -14 callsubr
          515 101 hstemhm
          290 11 callsubr
          297 609 rmoveto
          5 -53 5 -70 -71 -59 callgsubr
          -128 -217 -53 -160 -54 33 -50 44 -28 vhcurveto
          18 127 76 112 116 5 rrcurveto
          endchar
        </CharString>
        <CharString name="L.swash">
          -74 -14 callsubr
          698 -20 hstemhm
          64 134 -107 107 hintmask 10101000
          91 415 rmoveto
          hintmask 01110000
          -127 -27 47 callsubr
          24 -14 23 -1 vhcurveto
          hintmask 10101000
          -7 140 48 -5 123 hhcurveto
          -53 callgsubr
          25 -6 30 -16 26 hvcurveto
          -46 -58 -60 -18 -64 hhcurveto
          -35 -29 1 2 -30 hvcurveto
          -5 51 -2 57 116 vvcurveto
          119 20 95 94 vvcurveto
          79 -45 84 -84 -28 -26 -14 -21 -22 vhcurveto
          75 -88 3 -103 -151 vvcurveto
          endchar
        </CharString>
        <CharString name="Lslash">
          -37 -14 callsubr
          616 -20 hstemhm
          20 216 -135 135 -118 137 -137 214 hintmask 10100010
          97 53 callsubr
          -32 -1 -33 -2 -32 vhcurveto
          hintmask 10110000
          -53 -22 -42 -23 -41 vvcurveto
          -24 13 -22 24 vhcurveto
          13 18 19 15 21 13 rrcurveto
          hintmask 01101000
          -4 -66 -5 -64 -58 vvcurveto
          -23 24 -14 23 -1 vhcurveto
          hintmask 10100010
          -7 140 48 -5 123 hhcurveto
          -53 callgsubr
          19 -3 22 -9 20 hvcurveto
          -32 -73 -76 -12 -83 hhcurveto
          -19 -17 1 2 -18 hvcurveto
          -5 45 -2 52 92 vvcurveto
          53 22 44 23 42 vvcurveto
          24 -13 22 -24 vhcurveto
          hintmask 10110000
          -15 -20 -20 -16 -24 -14 rrcurveto
          hintmask 10100100
          4 97 15 82 81 43 callsubr
        </CharString>
        <CharString name="M">
          274 15 -21 27 45 callsubr
          475 119 -106 106 hintmask 10011001
          668 496 rmoveto
          hintmask 10011010
          -42 callgsubr
          -70 140 -48 135 -66 137 rrcurveto
          hintmask 10101010
          29 -14 -29 10 -31 hhcurveto
          hintmask 10010110
          -29 -32 -8 -6 -23 hvcurveto
          8 -64 3 -57 -55 vvcurveto
          hintmask 01011001
          -54 callgsubr
          endchar
        </CharString>
        <CharString name="M.ini">
          571 15 -21 27 -21 614 102 hstemhm
          10 105 242 120 -75 75 475 119 -106 106 hintmask 01110110
          10 465 rmoveto
          -66 45 -58 60 -22 vhcurveto
          141 50 154 148 36 36 -8 -12 15 vhcurveto
          -23 2 -20 -31 vvcurveto
          hintmask 01111001
          -54 callgsubr
          hintmask 10111010
          -42 callgsubr
          -53 106 -38 104 -47 101 rrcurveto
          84 -39 -70 62 -137 hhcurveto
          -200 -139 -107 -144 hvcurveto
          endchar
        </CharString>
        <CharString name="M.swash">
          274 -229 -21 271 45 callsubr
          480 112 hintmask 11010110
          188 12 rmoveto
          -5 48 -3 55 67 vvcurveto
          102 7 96 19 118 vhcurveto
          63 -136 41 -118 28 -57 rrcurveto
          -45 22 27 -33 57 hhcurveto
          22 20 5 9 14 hvcurveto
          -4 11 -1 13 5 vvcurveto
          53 102 188 71 103 vhcurveto
          -123 -8 -164 -68 vvcurveto
          -210 77 -181 116 34 27 15 33 26 vhcurveto
          -153 103 -15 224 142 vvcurveto
          37 1 131 1 54 vhcurveto
          1 93 4 23 49 vvcurveto
          45 -40 17 -44 -25 -26 -5 -5 -18 vhcurveto
          -20 -146 -120 -198 -50 -103 -70 140 -48 136 -66 136 rrcurveto
          hintmask 11101010
          29 -14 -29 10 -31 hhcurveto
          hintmask 11010110
          -29 -32 -8 -6 -23 hvcurveto
          8 -64 3 -58 -53 vvcurveto
          hintmask 11011010
          -203 -45 -149 -92 vvcurveto
          -53 15 -24 50 21 21 -36 callsubr
          vhcurveto
          endchar
        </CharString>
        <CharString name="N">
          78 15 -21 27 4 callsubr
          44 callsubr
          hintmask 01101001
          -24 callsubr
          hintmask 01011010
          30 callsubr
          hintmask 01100110
          2 callgsubr
          hintmask 01101010
          -93 callsubr
          102 -187 140 -248 57 -33 rrcurveto
          hintmask 10101001
          -9 15 28 -4 24 hhcurveto
          -50 callgsubr
          hvcurveto
          hintmask 01101010
          1 callsubr
          hintmask 01011001
          112 18 123 64 vvcurveto
          48 -33 32 -48 -28 -23 -8 -8 -16 vhcurveto
          endchar
        </CharString>
        <CharString name="N.ini">
          27 callgsubr
          44 callsubr
          hintmask 10111001
          -44 callsubr
          hintmask 10111010
          1 callsubr
          hintmask 10110101
          -85 callgsubr
          233 -191 -101 454 -293 hhcurveto
          -55 -34 -35 -60 -8 hvcurveto
          112 -8 64 -39 72 -65 rrcurveto
          11 -86 1 -98 -87 vvcurveto
          hintmask 01111010
          -93 callsubr
          endchar
        </CharString>
        <CharString name="N.swash">
          78 16 callsubr
          -26 callsubr
          hintmask 11011010
          190 475 -85 callsubr
          hintmask 11101010
          29 callsubr
          hintmask 11011010
          30 callsubr
          hintmask 11010110
          2 callgsubr
          hintmask 11011010
          -93 callsubr
          endchar
        </CharString>
        <CharString name="Nacute">
          78 15 -21 27 4 callsubr
          80 178 44 callsubr
          hintmask 0110010010000000
          -24 callsubr
          hintmask 0101010100000000
          30 callsubr
          hintmask 0110001100000000
          2 callgsubr
          hintmask 0110010100000000
          -93 callsubr
          102 -187 140 -248 57 -33 rrcurveto
          hintmask 1010010010000000
          -9 15 28 -4 24 hhcurveto
          -50 callgsubr
          hvcurveto
          hintmask 0110010100000000
          1 callsubr
          hintmask 0101010010000000
          112 18 123 64 vvcurveto
          48 -33 32 -48 -28 -23 -8 -8 -16 vhcurveto
          hintmask 0000100000000000
          -218 114 -103 callgsubr
          endchar
        </CharString>
        <CharString name="Nacute.ini">
          27 callgsubr
          -68 178 44 callsubr
          hintmask 1011010010000000
          -44 callsubr
          hintmask 1011010100000000
          1 callsubr
          hintmask 1011001010000000
          -85 callgsubr
          233 -191 -101 454 -293 hhcurveto
          -55 -34 -35 -60 -8 hvcurveto
          112 -8 64 -39 72 -65 rrcurveto
          11 -86 1 -98 -87 vvcurveto
          hintmask 0111010100000000
          -93 callsubr
          hintmask 0000100000000000
          66 339 -103 callgsubr
          endchar
        </CharString>
        <CharString name="Nacute.swash">
          78 16 callsubr
          80 178 -26 callsubr
          hintmask 11010101
          190 475 -85 callsubr
          hintmask 11100101
          29 callsubr
          hintmask 11010101
          30 callsubr
          hintmask 11010011
          2 callgsubr
          hintmask 11010101
          -93 callsubr
          hintmask 00001000
          66 339 -103 callgsubr
          endchar
        </CharString>
        <CharString name="Ntilde">
          78 88 200 78 196 endchar
        </CharString>
        <CharString name="Ntilde.ini">
          27 callgsubr
          -62 89 -50 50 -50 79 1 -20 44 callsubr
          hintmask 1011000010010000
          -44 callsubr
          hintmask 1011000010100000
          1 callsubr
          hintmask 1011000001010000
          -85 callgsubr
          233 -191 -101 454 -293 hhcurveto
          -55 -34 -35 -60 -8 hvcurveto
          112 -8 64 -39 72 -65 rrcurveto
          11 -86 1 -98 -87 vvcurveto
          hintmask 0111000010100000
          -93 callsubr
          hintmask 0000010100000000
          322 426 -95 callgsubr
          endchar
        </CharString>
        <CharString name="Ntilde.swash">
          78 16 callsubr
          86 89 -50 50 -50 79 1 -20 -26 callsubr
          hintmask 0000010100000000
          512 901 -95 callgsubr
          hintmask 1101000010100000
          -322 -426 -85 callsubr
          hintmask 1110000010100000
          29 callsubr
          hintmask 1101000010100000
          30 callsubr
          hintmask 1101000001100000
          2 callgsubr
          hintmask 1101000010100000
          -93 callsubr
          endchar
        </CharString>
        <CharString name="O">
          104 -12 94 548 64 callsubr
          -99 callgsubr
          endchar
        </CharString>
        <CharString name="O.swash">
          -37 callsubr
          -46 callsubr
          hintmask 11110010
          -91 callsubr
          hintmask 11100110
          -157 -75 callsubr
          hintmask 11101010
          -86 callsubr
          hintmask 11110010
          -48 callsubr
          endchar
        </CharString>
        <CharString name="OE">
          415 -12 94 -76 76 -76 88 -79 -21 311 111 -86 86 176 112 -92 92 -74 74 -74 92 hstemhm
          30 132 368 117 hintmask 0010011000110000
          961 138 rmoveto
          -87 callsubr
          hintmask 1000100100110000
          -100 callsubr
          hintmask 1000101000110000
          -73 callsubr
          hintmask 1000100001110000
          -78 callgsubr
          vhcurveto
          hintmask 1000100010110000
          -15 -95 -97 -3 -96 hhcurveto
          -41 -39 2 4 -40 hvcurveto
          8 -60 rlineto
          hintmask 1000100001110000
          45 -44 -60 27 -74 hhcurveto
          -209 -131 -181 -209 -193 99 -151 193 92 76 39 62 54 hvcurveto
          -45 vlineto
          hintmask 0100101000110000
          -23 23 -14 23 -1 vhcurveto
          hintmask 0001101000110000
          -5 85 126 -7 91 hhcurveto
          -53 callgsubr
          19 -3 22 -9 20 hvcurveto
          -431 226 rmoveto
          hintmask 1000100010110000
          -122 -46 -160 -122 -146 -54 114 146 80 20 109 38 59 vhcurveto
          21 25 43 19 42 hhcurveto
          146 54 -120 -146 hvcurveto
          endchar
        </CharString>
        <CharString name="Oacute">
          31 callgsubr
          50 -2 callgsubr
          -2 callsubr
          hintmask 11011000
          -99 callgsubr
          hintmask 00100000
          249 478 -103 callgsubr
          endchar
        </CharString>
        <CharString name="Oacute.swash">
          -82 callgsubr
          111 408 -103 callgsubr
          endchar
        </CharString>
        <CharString name="Ocircumflex">
          31 callgsubr
          71 -45 callsubr
          -2 callsubr
          hintmask 11001100
          -99 callgsubr
          hintmask 00110000
          505 468 -106 callgsubr
          endchar
        </CharString>
        <CharString name="Ocircumflex.swash">
          -37 callsubr
          71 -21 198 35 callgsubr
          hintmask 1110010010000000
          -91 callsubr
          hintmask 1110000110000000
          -157 -75 callsubr
          hintmask 1110001010000000
          -86 callsubr
          hintmask 1110010010000000
          -48 callsubr
          hintmask 0001100000000000
          367 398 -106 callgsubr
          endchar
        </CharString>
        <CharString name="Odieresis">
          31 callgsubr
          99 10 callgsubr
          30 132 20 -45 callgsubr
          7 132 hintmask 11010010
          -99 callgsubr
          hintmask 00101100
          160 594 -107 callgsubr
          endchar
        </CharString>
        <CharString name="Odieresis.swash">
          -37 callsubr
          99 117 -40 callsubr
          -160 -45 callgsubr
          7 132 hintmask 1110100001000000
          -91 callsubr
          hintmask 1110001001000000
          -157 -75 callsubr
          hintmask 1110010001000000
          -86 callsubr
          hintmask 1110100001000000
          -48 callsubr
          hintmask 0001000110000000
          22 524 -107 callgsubr
          endchar
        </CharString>
        <CharString name="Ograve">
          31 callgsubr
          50 -2 callgsubr
          -2 callsubr
          hintmask 11011000
          -99 callgsubr
          hintmask 00100000
          403 478 -102 callsubr
          endchar
        </CharString>
        <CharString name="Ograve.swash">
          -82 callgsubr
          265 408 -102 callsubr
          endchar
        </CharString>
        <CharString name="Oslash">
          104 -12 91 554 89 -6 -20 hstemhm
          30 130 372 130 hintmask 10111000
          30 332 rmoveto
          -105 29 -92 57 -63 vhcurveto
          -23 -29 -21 -22 -14 -11 rrcurveto
          -15 12 16 -7 22 hhcurveto
          31 21 20 18 13 hvcurveto
          -25 41 50 -13 58 hhcurveto
          209 131 177 209 99 -26 89 -52 63 hvcurveto
          22 28 21 23 17 18 rrcurveto
          15 -13 -20 7 -23 hhcurveto
          -21 -21 -12 -24 -16 hvcurveto
          -1 -1 -1 -1 -1 vvcurveto
          hintmask 11011000
          28 -43 -53 17 -62 hhcurveto
          -209 -131 -181 -209 hvcurveto
          294 29 rmoveto
          -32 -49 -49 -71 -49 -67 rrcurveto
          -24 45 -10 58 65 vvcurveto
          81 20 110 39 59 vhcurveto
          22 25 43 19 43 hhcurveto
          60 44 -20 -34 32 hvcurveto
          -43 -67 -54 -84 -45 -67 rrcurveto
          208 3 rmoveto
          -123 -47 -162 -123 -54 -42 15 27 -31 vhcurveto
          46 70 60 92 45 66 32 48 43 62 43 60 rrcurveto
          19 -44 9 -53 -58 vvcurveto
          endchar
        </CharString>
        <CharString name="Oslash.swash">
          -37 callsubr
          -6 35 callgsubr
          hintmask 11011001
          168 402 rmoveto
          7 -18 -16 3 -14 hhcurveto
          -53 -37 -38 -80 -68 27 -87 60 -64 hvcurveto
          -20 -23 -20 -22 -19 -20 rrcurveto
          -15 12 17 -7 20 hhcurveto
          34 20 21 19 13 hvcurveto
          -25 41 50 -15 60 hhcurveto
          206 131 177 213 94 -26 88 -51 63 hvcurveto
          22 28 20 24 17 19 rrcurveto
          15 -13 -22 7 -17 hhcurveto
          -25 -25 -14 -22 -12 hvcurveto
          -2 -4 rlineto
          hintmask 11100011
          29 -42 -53 17 -62 hhcurveto
          -156 -75 callsubr
          hintmask 11100101
          -49 -30 14 30 11 4 15 8 15 hvcurveto
          23 31 42 16 47 hhcurveto
          52 42 -20 -34 30 hvcurveto
          -140 -215 -28 -43 -46 -70 -53 -71 rlinecurve
          hintmask 11101001
          -23 44 -12 56 61 vvcurveto
          25 2 18 4 21 vhcurveto
          218 -53 rmoveto
          25 38 32 47 60 81 rrcurveto
          18 -44 9 -53 -57 vvcurveto
          -119 -38 -160 -145 -45 -37 15 27 -28 vhcurveto
          117 179 23 32 9 14 rrcurveto
          endchar
        </CharString>
        <CharString name="Otilde">
          104 101 200 79 196 endchar
        </CharString>
        <CharString name="Otilde.swash">
          -37 callsubr
          60 89 -50 50 -50 79 1 35 callgsubr
          hintmask 1110000100100000
          -91 callsubr
          hintmask 1110000001100000
          -157 -75 callsubr
          hintmask 1110000010100000
          -86 callsubr
          hintmask 1110000100100000
          -48 callsubr
          hintmask 0000101000000000
          357 499 -56 callsubr
          hintmask 0000010000000000
          -96 callsubr
          hintmask 0001001000000000
          -61 callsubr
        </CharString>
        <CharString name="P">
          3 21 -21 261 89 277 9 callgsubr
          237 132 hintmask 11101100
          61 678 rmoveto
          19 -103 6 -99 -108 vvcurveto
          hintmask 11110100
          -76 callsubr
          78 3 63 5 77 vhcurveto
          7 29 28 5 28 hhcurveto
          88 56 -42 -32 callsubr
          28 callgsubr
          -130 58 -151 -83 -84 -17 -21 -62 vhcurveto
          endchar
        </CharString>
        <CharString name="P.ini">
          483 21 -21 261 89 277 89 hstemhm
          60 71 415 -49 callsubr
          237 132 hintmask 11110110
          131 248 rmoveto
          160 220 124 203 59 vhcurveto
          7 -69 5 -83 -71 -76 callsubr
          72 2 77 5 73 vhcurveto
          6 40 32 2 14 hhcurveto
          88 56 -42 -32 callsubr
          vhcurveto
          hintmask 11111010
          28 callgsubr
          -124 58 -151 8 callgsubr
          hvcurveto
          endchar
        </CharString>
        <CharString name="Q">
          104 -214 106 738 -31 callsubr
          37 -10 29 -23 rrcurveto
          -83 104 63 -98 114 hhcurveto
          58 28 48 58 hvcurveto
          -119 -66 47 62 -109 -44 callgsubr
        </CharString>
        <CharString name="Q.swash">
          104 -238 106 762 -31 callsubr
          33 -17 33 -16 rrcurveto
          -94 192 107 -111 202 hhcurveto
          58 28 48 58 hvcurveto
          -207 -110 57 76 -197 -44 callgsubr
        </CharString>
        <CharString name="R">
          50 15 -21 27 -21 627 9 callgsubr
          207 132 hintmask 01101100
          377 340 -42 callsubr
          hintmask 01110100
          -76 callsubr
          78 3 63 4 77 vhcurveto
          6 26 31 6 31 hhcurveto
          65 47 -25 -65 -98 -73 -50 -92 hvcurveto
          hintmask 10110100
          -37 callgsubr
          endchar
        </CharString>
        <CharString name="R.swash">
          50 23 callgsubr
          151 -21 635 9 callgsubr
          207 132 hintmask 11101100
          372 337 rmoveto
          97 32 72 87 95 vvcurveto
          119 -93 42 -119 -89 -92 -12 -26 -87 vhcurveto
          19 -103 6 -101 -108 vvcurveto
          hintmask 11110100
          -109 -20 -96 -88 -63 callgsubr
          160 129 vvcurveto
          78 1 66 5 77 vhcurveto
          7 34 26 4 41 hhcurveto
          63 37 -29 -63 -98 -77 -50 -98 hvcurveto
          -134 42 282 -499 308 hhcurveto
          68 37 40 68 hvcurveto
          -282 -251 359 120 -66 hvcurveto
          endchar
        </CharString>
        <CharString name="Racute">
          50 192 204 82 194 endchar
        </CharString>
        <CharString name="Rcaron">
          50 15 -21 27 -21 627 89 81 -21 198 -20 20 callsubr
          207 132 hintmask 00011000
          132 946 -38 callgsubr
          hintmask 01100011
          245 -606 -42 callsubr
          hintmask 01100101
          -76 callsubr
          78 3 63 4 77 vhcurveto
          6 26 31 6 31 hhcurveto
          65 47 -25 -65 -98 -73 -50 -92 hvcurveto
          hintmask 10100101
          -37 callgsubr
          endchar
        </CharString>
        <CharString name="Rcommaaccent">
          50 -250 201 64 -21 27 -21 627 9 callgsubr
          72 127 8 132 hintmask 00110101
          377 340 -42 callsubr
          hintmask 00111001
          -76 callsubr
          78 3 63 4 77 vhcurveto
          6 26 31 6 31 hhcurveto
          65 47 -25 -65 -98 -73 -50 -92 hvcurveto
          hintmask 01011001
          -37 callgsubr
          hintmask 10000010
          -140 -572 -56 callgsubr
        </CharString>
        <CharString name="S">
          -26 -12 92 411 231 -90 90 hstemhm
          40 131 -119 119 -119 132 196 125 -99 99 -99 126 hintmask 1100100100000000
          376 494 rmoveto
          -2 10 9 -1 8 hhcurveto
          59 43 48 60 89 -98 34 -89 -131 -135 -87 -131 hvcurveto
          -216 354 62 -166 vvcurveto
          -65 -49 -39 -71 -72 -43 45 72 18 4 21 4 15 vhcurveto
          6 -11 -21 3 -16 hhcurveto
          hintmask 1101000010000000
          -55 -36 -44 -55 -114 104 -59 114 145 129 92 145 hvcurveto
          hintmask 1010011000000000
          234 -348 -52 128 vvcurveto
          32 12 28 16 19 vhcurveto
          13 22 25 5 26 52 callsubr
          endchar
        </CharString>
        <CharString name="S.ini">
          134 61 callgsubr
          30 137 -15 132 196 125 -39 39 -39 126 hintmask 11010001
          185 171 rmoveto
          7 -16 -15 3 -14 hhcurveto
          -74 -36 -75 -74 -153 144 -91 153 195 170 129 195 hvcurveto
          hintmask 10101100
          289 -408 -63 191 vvcurveto
          34 14 32 18 17 vhcurveto
          10 22 23 4 24 52 callsubr
          hintmask 11001010
          -2 9 9 -1 9 hhcurveto
          57 45 46 57 87 -100 43 -87 -131 -135 -89 -131 hvcurveto
          -263 414 67 -231 vvcurveto
          -108 -97 -83 -108 vhcurveto
          hintmask 11010100
          -120 -74 87 120 24 9 39 9 21 hvcurveto
          endchar
        </CharString>
        <CharString name="S.swash">
          -26 61 callgsubr
          2 137 -85 85 -85 132 196 125 -89 89 -89 126 hintmask 1101000010000000
          157 51 rmoveto
          7 -15 -15 3 -17 hhcurveto
          -72 -36 -54 -58 -101 109 -60 119 169 145 120 187 hvcurveto
          hintmask 1010011000000000
          295 -358 -57 193 vvcurveto
          38 14 31 18 17 vhcurveto
          10 22 23 4 22 hhcurveto
          65 32 -33 -66 -12 -1 -12 -3 -15 hvcurveto
          hintmask 1100100100000000
          -2 9 9 -1 9 hhcurveto
          57 45 46 58 86 -100 43 -89 -116 -148 -73 -158 hvcurveto
          -249 364 45 -229 vvcurveto
          -99 -69 -75 -90 -72 -48 49 54 24 9 28 9 16 vhcurveto
          endchar
        </CharString>
        <CharString name="T">
          -36 21 -21 604 106 -91 91 3 -20 29 -20 hstemhm
          196 -49 callsubr
          -116 135 hintmask 11000100
          466 604 rmoveto
          40 callsubr
          hintmask 10100100
          -11 -70 -88 -1 -82 hhcurveto
          hintmask 10010100
          -81 -77 3 -53 hhcurveto
          -47 -34 -36 -47 -15 4 -15 8 -15 hvcurveto
          hintmask 10100010
          43 18 60 12 86 4 rrcurveto
          7 -60 3 -59 -85 vvcurveto
          hintmask 11000100
          -11 callgsubr
          -8 52 -13 128 123 vvcurveto
          hintmask 11000001
          135 16 122 3 45 vhcurveto
          -5 63 27 -8 25 hhcurveto
          endchar
        </CharString>
        <CharString name="T.ini">
          243 21 -21 604 106 -93 93 3 -20 29 -20 hstemhm
          475 -49 callsubr
          -116 135 hintmask 11000010
          485 622 rmoveto
          7 -60 3 -62 -85 vvcurveto
          hintmask 10100100
          -11 callgsubr
          -8 52 -13 128 123 vvcurveto
          hintmask 10100001
          135 16 122 3 45 vhcurveto
          hintmask 11000100
          -5 63 27 -8 25 hhcurveto
          40 callsubr
          hintmask 11000100
          -11 -70 -88 -1 -82 hhcurveto
          hintmask 10010100
          -40 -75 3 -74 hhcurveto
          -132 -250 -7 -181 -48 27 -46 36 -29 hvcurveto
          34 131 99 59 118 22 rrcurveto
          7 39 41 2 38 hhcurveto
          17 16 0 -1 15 hvcurveto
          endchar
        </CharString>
        <CharString name="Thorn">
          -1 21 -21 125 89 284 84 -84 212 hstemhm
          62 -79 callsubr
          217 132 hintmask 11100101
          219 12 rmoveto
          -8 52 -13 128 123 vvcurveto
          72 4 53 5 47 vhcurveto
          6 28 29 5 27 hhcurveto
          88 56 -49 -32 callsubr
          28 callgsubr
          -121 60 -151 -26 -27 -2 -3 -26 vhcurveto
          hintmask 11010011
          1 17 1 17 18 vvcurveto
          55 -41 26 -51 -21 -22 -4 -8 -22 vhcurveto
          14 -92 7 -68 -123 vvcurveto
          hintmask 11101001
          -11 callgsubr
          endchar
        </CharString>
        <CharString name="U">
          76 37 callgsubr
          -62 callgsubr
          hintmask 11001010
          -64 callgsubr
          hintmask 11010010
          -68 callgsubr
          hintmask 10110001
          -84 callgsubr
          hintmask 11000110
          -14 callgsubr
          endchar
        </CharString>
        <CharString name="U.end">
          514 -12 97 103 133 389 -20 26 -20 -62 callgsubr
          hintmask 1101100100000000
          1035 105 rmoveto
          7 20 5 23 22 vvcurveto
          92 -77 59 -80 -98 -125 -64 -43 -73 vhcurveto
          -2 49 0 48 52 vvcurveto
          hintmask 1101010010000000
          101 17 89 82 -90 callsubr
          22 -96 3 -101 -100 vvcurveto
          -94 -2 -84 -11 -94 vhcurveto
          -25 -35 -65 -25 -35 hhcurveto
          -97 -46 67 97 hvcurveto
          hintmask 1110001100000000
          123 29 113 144 -90 callsubr
          20 -71 0 -70 -81 vvcurveto
          hintmask 1101100100000000
          -82 -13 -106 -72 vvcurveto
          -150 91 -78 150 vhcurveto
          177 166 200 193 hhcurveto
          69 66 -24 -59 58 hvcurveto
          endchar
        </CharString>
        <CharString name="Uacute">
          -81 callsubr
          33 181 -103 callgsubr
          endchar
        </CharString>
        <CharString name="Ucircumflex">
          21 callgsubr
          97 -21 198 -20 -62 callgsubr
          hintmask 1100001010000000
          -64 callgsubr
          hintmask 1100010010000000
          -68 callgsubr
          hintmask 1010010001000000
          -84 callgsubr
          hintmask 1100000110000000
          -14 callgsubr
          hintmask 0001100000000000
          300 171 -106 callgsubr
          endchar
        </CharString>
        <CharString name="Udieresis">
          21 callgsubr
          125 10 callgsubr
          65 121 -108 108 -108 137 -47 -45 callgsubr
          -32 115 -115 132 hintmask 1100010001000000
          -64 callgsubr
          hintmask 1100100001000000
          -68 callgsubr
          hintmask 1010100000100000
          -84 callgsubr
          hintmask 1100001001000000
          -14 callgsubr
          hintmask 0001000110000000
          -39 297 -107 callgsubr
          endchar
        </CharString>
        <CharString name="Ugrave">
          -81 callsubr
          181 181 -102 callsubr
          endchar
        </CharString>
        <CharString name="V">
          32 15 -21 716 -20 26 -20 hstemhm
          494 121 hintmask 10110000
          396 -23 callgsubr
          -45 221 -27 156 -43 120 rrcurveto
          hintmask 11010000
          -33 callgsubr
        </CharString>
        <CharString name="V.ini">
          242 15 -21 607 109 6 -20 hstemhm
          704 121 hintmask 10110000
          606 -23 callgsubr
          -37 182 -19 119 -37 96 rrcurveto
          hintmask 11010000
          105 -40 -107 99 -152 -57 callgsubr
          108 71 -74 -98 30 hvcurveto
          27 -88 31 -127 20 -76 rrcurveto
          -80 21 31 -64 74 hhcurveto
          26 23 5 9 27 hvcurveto
          endchar
        </CharString>
        <CharString name="V.swash">
          32 15 -21 716 -20 102 -20 hstem
          462 153 vstem
          396 8 rmoveto
          55 228 164 271 137 vvcurveto
          70 -42 78 -90 -28 -28 -14 -21 -23 vhcurveto
          43 -48 15 -70 -73 vvcurveto
          -101 -106 -283 -30 -73 vhcurveto
          -45 221 -27 156 -43 120 rrcurveto
          -33 callgsubr
        </CharString>
        <CharString name="W">
          301 9 -21 27 -21 716 -20 26 -20 hstemhm
          763 121 hintmask 01011000
          696 hmoveto
          -60 callgsubr
          -40 217 -20 163 -33 117 rrcurveto
          hintmask 01101000
          -47 callsubr
          hintmask 10011000
          12 callgsubr
          endchar
        </CharString>
        <CharString name="W.ini">
          536 9 -21 27 -21 607 109 6 -20 hstemhm
          998 121 hintmask 10011000
          598 6 rmoveto
          12 98 50 158 34 108 12 -92 19 -83 13 -51 rrcurveto
          12 callgsubr
          -60 callgsubr
          -33 182 -17 119 -35 96 rrcurveto
          hintmask 01101000
          105 -37 -105 99 -151 hhcurveto
          -85 -45 -53 -83 -12 hvcurveto
          19 41 37 8 34 hhcurveto
          108 71 -74 -98 29 hvcurveto
          26 -88 24 -127 19 -76 rrcurveto
          -80 19 30 -64 74 hhcurveto
          26 28 3 9 27 hvcurveto
          endchar
        </CharString>
        <CharString name="W.swash">
          301 9 -21 27 -21 716 -20 102 -20 hstemhm
          737 150 hintmask 01111000
          625 109 rmoveto
          -35 175 -14 122 -25 90 rrcurveto
          50 -14 -22 34 -62 hhcurveto
          -24 -19 -10 -14 -12 hvcurveto
          4 -6 1 -16 -7 vvcurveto
          -82 -68 -210 -45 -126 vhcurveto
          -40 217 -20 163 -33 117 rrcurveto
          -47 callsubr
          hintmask 10111000
          12 callgsubr
          42 223 149 272 140 vvcurveto
          79 -50 78 -90 -28 -26 -14 -21 -22 vhcurveto
          44 -48 22 -70 -81 vvcurveto
          -107 -87 -271 -25 -71 vhcurveto
          endchar
        </CharString>
        <CharString name="X">
          3 -6 119 -92 53 callgsubr
          hintmask 10011000
          507 -6 rmoveto
          45 34 30 45 16 -4 16 -8 18 hvcurveto
          -4 -9 -12 -2 -9 hhcurveto
          -78 -65 167 101 -46 hvcurveto
          23 callsubr
          hintmask 01101000
          -34 callsubr
          hintmask 10101000
          -127 55 73 -166 107 hhcurveto
          endchar
        </CharString>
        <CharString name="X.swash">
          3 23 callgsubr
          163 53 callgsubr
          hintmask 11011000
          355 381 rmoveto
          23 callsubr
          hintmask 11101000
          -34 callsubr
          -223 103 213 -314 205 -51 callsubr
          -278 20 -169 288 -99 215 rrcurveto
          endchar
        </CharString>
        <CharString name="Y">
          -7 21 4 callsubr
          18 callgsubr
          hintmask 10111000
          5 658 rmoveto
          115 -77 64 -162 40 -156 rrcurveto
          -89 callgsubr
          48 -58 8 -48 vhcurveto
          -90 -79 -150 -72 -108 vhcurveto
          hintmask 11011000
          0 callsubr
          endchar
        </CharString>
        <CharString name="Y.ini">
          -7 21 -21 601 109 6 -20 18 callgsubr
          hintmask 11011000
          318 368 -80 callgsubr
          hintmask 10111000
          -69 callgsubr
          endchar
        </CharString>
        <CharString name="Y.swash">
          -7 3 callsubr
          26 -20 17 callsubr
          hintmask 10111000
          224 263 rmoveto
          -86 callgsubr
          26 95 191 210 89 vvcurveto
          48 -57 8 -49 vhcurveto
          -90 -79 -150 -72 -108 vhcurveto
          hintmask 11011000
          -39 callsubr
          endchar
        </CharString>
        <CharString name="Y.swash_ini">
          26 callsubr
          17 callsubr
          hintmask 10111000
          358 266 -35 callgsubr
          hintmask 11011000
          173 -43 -117 169 -165 -57 callgsubr
          133 90 -141 -197 35 hvcurveto
          -86 callgsubr
          endchar
        </CharString>
        <CharString name="Yacute">
          -7 21 4 callsubr
          76 178 18 callgsubr
          hintmask 10101100
          5 658 rmoveto
          115 -77 64 -162 40 -156 rrcurveto
          -89 callgsubr
          48 -58 8 -48 vhcurveto
          -90 -79 -150 -72 -108 vhcurveto
          hintmask 11001100
          0 callsubr
          hintmask 00010000
          229 152 -103 callgsubr
          endchar
        </CharString>
        <CharString name="Yacute.ini">
          -7 21 -21 601 109 6 -20 76 178 18 callgsubr
          hintmask 00010000
          234 810 -103 callgsubr
          hintmask 11001100
          84 -442 -80 callgsubr
          hintmask 10101100
          -69 callgsubr
          endchar
        </CharString>
        <CharString name="Yacute.swash">
          -7 3 callsubr
          26 -20 76 178 17 callsubr
          hintmask 10101100
          224 263 rmoveto
          -86 callgsubr
          26 95 191 210 89 vvcurveto
          48 -57 8 -49 vhcurveto
          -90 -79 -150 -72 -108 vhcurveto
          hintmask 11001100
          -39 callsubr
          hintmask 00010000
          10 547 -103 callgsubr
          endchar
        </CharString>
        <CharString name="Yacute.swash_ini">
          26 callsubr
          76 178 17 callsubr
          hintmask 10101100
          358 266 -35 callgsubr
          hintmask 11001100
          173 -43 -117 169 -165 -57 callgsubr
          133 90 -141 -197 35 hvcurveto
          -86 callgsubr
          hintmask 00010000
          -124 544 -103 callgsubr
          endchar
        </CharString>
        <CharString name="Ydieresis">
          -7 21 -21 710 -20 26 26 callgsubr
          hintmask 10100101
          5 658 rmoveto
          115 -77 64 -162 40 -156 rrcurveto
          -89 callgsubr
          48 -58 8 -48 vhcurveto
          -90 -79 -150 -72 -108 vhcurveto
          hintmask 11000101
          0 callsubr
          hintmask 00011010
          151 268 -107 callgsubr
          endchar
        </CharString>
        <CharString name="Ydieresis.ini">
          -7 21 -21 601 109 6 26 callgsubr
          hintmask 11000101
          318 368 -80 callgsubr
          hintmask 10100101
          -69 callgsubr
          hintmask 00011010
          -162 558 -107 callgsubr
          endchar
        </CharString>
        <CharString name="Ydieresis.swash">
          -7 3 callsubr
          26 -20 125 10 callgsubr
          148 117 -52 138 21 117 -20 106 hintmask 10100101
          224 263 rmoveto
          -86 callgsubr
          26 95 191 210 89 vvcurveto
          48 -57 8 -49 vhcurveto
          -90 -79 -150 -72 -108 vhcurveto
          hintmask 11000101
          -39 callsubr
          hintmask 00011010
          -68 663 -107 callgsubr
          endchar
        </CharString>
        <CharString name="Ydieresis.swash_ini">
          26 callsubr
          125 10 callgsubr
          148 117 -52 138 21 117 -20 106 hintmask 00011010
          156 926 -107 callgsubr
          hintmask 10100101
          -22 -660 -35 callgsubr
          hintmask 11000101
          173 -43 -117 169 -165 -57 callgsubr
          133 90 -141 -197 35 hvcurveto
          -86 callgsubr
          endchar
        </CharString>
        <CharString name="Z">
          -33 -6 100 -73 59 callsubr
          508 138 rmoveto
          -32 -73 -76 -12 -83 hhcurveto
          -35 -34 2 2 -33 -52 callgsubr
          146 137 -6 113 hhcurveto
          -53 callgsubr
          19 -3 22 -9 20 hvcurveto
          endchar
        </CharString>
        <CharString name="Z.end">
          238 -6 93 -66 59 callsubr
          386 87 rmoveto
          -68 -78 5 6 -66 -52 callgsubr
          132 129 -6 116 hhcurveto
          97 274 4 193 53 -24 38 -34 32 hvcurveto
          -175 -45 -156 -52 -146 hhcurveto
          endchar
        </CharString>
        <CharString name="Z.swash">
          -13 -250 131 702 123 16 -20 hstemhm
          hintmask 10100000
          48 722 rmoveto
          -6 -20 -6 -22 -31 vvcurveto
          hintmask 11000000
          -43 38 -23 43 92 94 22 14 99 vhcurveto
          -71 -129 -306 -330 -89 vvcurveto
          -30 16 -18 21 -15 vhcurveto
          -148 206 243 -110 192 hhcurveto
          75 68 34 74 21 -6 16 -9 20 hvcurveto
          -26 -71 -77 -8 -83 hhcurveto
          -138 -157 80 113 -131 hvcurveto
          75 224 291 255 98 vvcurveto
          37 -34 18 -37 vhcurveto
          -66 -66 -5 -73 hhcurveto
          hintmask 10100000
          -71 -72 6 15 -73 hvcurveto
          endchar
        </CharString>
        <CharString name="a">
          -43 -25 callsubr
          hstemhm
          20 122 224 116 hintmask 10111000
          -94 callsubr
          hintmask 01111000
          -84 callsubr
          hintmask 10111000
          -88 callgsubr
          endchar
        </CharString>
        <CharString name="aacute">
          -36 -25 callsubr
          60 -2 callgsubr
          20 122 224 116 hintmask 10101100
          -94 callsubr
          hintmask 01101100
          -84 callsubr
          hintmask 10101100
          -88 callgsubr
          hintmask 00010000
          -148 199 -103 callgsubr
          endchar
        </CharString>
        <CharString name="acircumflex">
          -36 -25 callsubr
          81 -45 callsubr
          20 122 224 116 hintmask 10100110
          -94 callsubr
          hintmask 01100110
          -84 callsubr
          hintmask 10100110
          -88 callgsubr
          hintmask 00011000
          94 189 -106 callgsubr
          endchar
        </CharString>
        <CharString name="acute">
          -254 572 178 hstem
          50 610 -103 callgsubr
          endchar
        </CharString>
        <CharString name="acutecomb">
          -254 572 178 hstem
          50 610 -103 callgsubr
          endchar
        </CharString>
        <CharString name="adieresis">
          -36 -25 callsubr
          109 10 callgsubr
          20 122 -22 -45 callgsubr
          -95 116 hintmask 10101001
          -94 callsubr
          hintmask 01101001
          -84 callsubr
          hintmask 10101001
          -88 callgsubr
          hintmask 00010110
          -250 315 -107 callgsubr
          endchar
        </CharString>
        <CharString name="ae">
          215 -7 79 -79 204 -188 -21 235 61 -61 77 5 213 -84 84 hstemhm
          35 122 -105 105 211 91 191 108 -84 84 hintmask 0101001101100000
          160 316 rmoveto
          -2 10 -1 9 10 vvcurveto
          25 7 22 14 24 vhcurveto
          10 26 37 8 24 hhcurveto
          67 36 -30 -67 -17 -2 -26 -5 -24 hvcurveto
          8 -33 -41 6 -35 hhcurveto
          -149 -68 -88 -79 -74 60 -50 74 73 75 38 69 40 hvcurveto
          hintmask 0011010101010000
          -73 29 62 -39 105 hhcurveto
          88 117 57 88 hvcurveto
          hintmask 0101010101010000
          42 -42 22 -42 vhcurveto
          hintmask 1000110011100000
          -26 callgsubr
          -2 18 25 -2 27 hhcurveto
          114 118 40 114 98 -75 43 -98 -64 -54 -22 -36 -41 hvcurveto
          37 -27 -48 21 -65 hhcurveto
          -100 -137 -65 -100 -34 29 -14 34 12 17 3 8 16 hvcurveto
          300 -10 -93 callgsubr
          -113 -96 rmoveto
          -69 -18 -79 -76 -49 hhcurveto
          -30 -10 34 30 28 6 29 18 23 hvcurveto
          8 25 27 3 27 hhcurveto
          28 29 -3 -7 26 hvcurveto
          endchar
        </CharString>
        <CharString name="agrave">
          -36 -25 callsubr
          60 -2 callgsubr
          20 122 224 116 hintmask 10101100
          -94 callsubr
          hintmask 01101100
          -84 callsubr
          hintmask 10101100
          -88 callgsubr
          hintmask 00010000
          4 199 -102 callsubr
          endchar
        </CharString>
        <CharString name="ampersand">
          154 -12 100 -71 -21 640 88 hstemhm
          40 124 -64 125 142 103 73 128 hintmask 10101110
          532 458 rmoveto
          8 -36 3 -34 -33 vvcurveto
          -57 -28 -54 -42 -49 vhcurveto
          -73 53 -68 62 -46 69 rrcurveto
          85 64 99 59 104 vvcurveto
          79 -57 39 -79 -118 -116 -92 -118 vhcurveto
          hintmask 10110110
          -44 18 -50 30 -52 vhcurveto
          -60 -50 -48 -63 -89 vvcurveto
          -117 68 -61 117 76 84 29 48 74 vhcurveto
          -42 70 69 -27 55 hhcurveto
          58 27 31 58 hvcurveto
          -54 -65 22 35 -64 hvcurveto
          69 70 47 79 86 vvcurveto
          56 -36 33 -56 -14 -18 -3 -5 -15 vhcurveto
          -335 -162 rmoveto
          hintmask 10101110
          51 -66 65 -59 68 -52 rrcurveto
          hintmask 10110110
          -20 -35 -37 -11 -36 hhcurveto
          -72 -37 39 72 hvcurveto
          hintmask 10101110
          37 13 32 20 28 vhcurveto
          170 280 rmoveto
          -52 -54 -38 -63 -44 vhcurveto
          -16 35 -9 35 32 vvcurveto
          30 8 28 13 18 vhcurveto
          11 19 22 5 23 hhcurveto
          hintmask 01110110
          37 20 -23 -37 hvcurveto
          endchar
        </CharString>
        <CharString name="aring">
          -36 -25 callsubr
          60 53 69 52 hstemhm
          20 122 51 54 68 53 -2 116 hintmask 1010010010000000
          -94 callsubr
          hintmask 0110010010000000
          -84 callsubr
          hintmask 1010010010000000
          -88 callgsubr
          -107 161 -66 callsubr
          hvcurveto
          hintmask 0001101100000000
          -45 33 -32 45 vhcurveto
          -92 callsubr
          endchar
        </CharString>
        <CharString name="asciicircum">
          38 141 -21 404 -20 hstem
          130 120 rmoveto
          31 104 61 83 74 62 rrcurveto
          -115 70 68 -108 57 hhcurveto
          50 25 18 31 15 hvcurveto
          -90 79 -87 112 -54 138 rrcurveto
          -135 -93 -170 -157 -78 vvcurveto
          -38 33 -30 52 -8 vhcurveto
          endchar
        </CharString>
        <CharString name="asciitilde">
          -62 209 92 -50 50 -50 82 1 -20 hstemhm
          hintmask 01010000
          471 334 rmoveto
          -25 -21 -44 -8 -27 hhcurveto
          hintmask 00100000
          -81 -52 32 -86 hhcurveto
          -71 -44 -35 -38 -12 3 -14 7 -16 hvcurveto
          25 21 44 8 27 hhcurveto
          hintmask 10010000
          81 72 -42 76 hhcurveto
          60 45 39 44 12 -3 14 -7 16 hvcurveto
          endchar
        </CharString>
        <CharString name="asterisk">
          -104 348 -21 22 -21 156 226 -187 106 hstemhm
          hintmask 10010000
          42 523 rmoveto
          47 54 -8 -13 51 hvcurveto
          -54 -23 -55 -40 -36 vvcurveto
          -27 33 -23 50 -26 vhcurveto
          11 43 28 50 28 45 rrcurveto
          hintmask 01100000
          -71 14 12 -66 45 hhcurveto
          24 30 25 33 34 hvcurveto
          -38 26 -39 40 -32 41 rrcurveto
          -5 22 29 -4 25 hhcurveto
          39 37 9 39 25 -14 31 -15 31 hvcurveto
          -38 -29 -52 -24 -45 -18 rrcurveto
          19 33 20 48 32 vvcurveto
          37 -31 12 -37 -19 -19 -3 -2 -16 vhcurveto
          15 -45 11 -64 -42 vvcurveto
          hintmask 10010000
          32 -31 -44 43 -37 hhcurveto
          -39 -12 -41 -65 -11 hvcurveto
          endchar
        </CharString>
        <CharString name="at">
          206 -12 59 87 98 247 89 91 59 hstem
          35 78 71 116 159 103 119 78 vstem
          474 68 rmoveto
          -14 -25 -33 -7 -39 hhcurveto
          -173 -91 131 173 92 36 93 54 57 hvcurveto
          44 60 66 22 68 hhcurveto
          179 105 -129 -179 -51 -7 -68 -51 -48 -13 57 48 66 5 66 15 71 hvcurveto
          17 -53 -65 11 -64 hhcurveto
          -153 -63 -124 -153 -90 40 -67 90 70 38 77 81 37 hvcurveto
          -89 35 -69 89 122 54 114 122 206 -136 142 -206 -220 -162 -168 -220 -200 122 -142 200 46 82 4 46 9 -5 14 -6 7 vhcurveto
          -13 400 rmoveto
          -51 -5 -56 -185 -46 hhcurveto
          -41 -13 50 41 43 7 54 18 40 hvcurveto
          14 19 23 5 22 hhcurveto
          32 22 -6 -5 18 hvcurveto
          endchar
        </CharString>
        <CharString name="atilde">
          -36 -25 callsubr
          70 -66 callgsubr
          20 122 224 116 hintmask 1010000110000000
          -94 callsubr
          hintmask 0110000110000000
          -84 callsubr
          hintmask 1010000110000000
          -88 callgsubr
          hintmask 0000101000000000
          80 290 -56 callsubr
          hintmask 0000010000000000
          -96 callsubr
          hintmask 0001001000000000
          -61 callsubr
        </CharString>
        <CharString name="b">
          -24 -6 89 340 89 238 -20 hstemhm
          58 146 -129 102 234 123 hintmask 11101100
          52 35 rmoveto
          -27 65 67 -14 77 hhcurveto
          172 101 140 175 106 -39 97 -78 -115 -71 -111 -99 -54 hvcurveto
          hintmask 11110100
          8 132 19 130 105 vvcurveto
          47 -36 34 -47 -29 -19 -6 -6 -15 vhcurveto
          hintmask 11101100
          10 -129 7 -153 -147 vvcurveto
          -98 -11 -72 -12 -104 vhcurveto
          120 63 rmoveto
          160 47 96 165 50 hhcurveto
          37 9 -91 -45 -66 -13 -55 -36 -62 hvcurveto
          -13 -25 -46 -8 -27 hhcurveto
          -31 -32 4 11 -29 hvcurveto
          endchar
        </CharString>
        <CharString name="backslash">
          -3 15 -21 722 -20 hstem
          36 676 rmoveto
          72 -65 73 -148 39 -73 42 -78 89 -206 26 -48 rrcurveto
          -44 24 32 -20 31 hhcurveto
          34 28 11 27 19 hvcurveto
          -73 84 -63 134 -41 81 -38 75 -98 200 -26 45 rrcurveto
          41 -24 -33 24 -31 hhcurveto
          -32 -32 -13 -27 -18 hvcurveto
          endchar
        </CharString>
        <CharString name="bar">
          -336 5 callgsubr
          1180 -20 hstemhm
          70 95 -78 78 -78 95 hintmask 11010000
          176 -237 rmoveto
          -5 116 -6 165 280 vvcurveto
          hintmask 11001000
          276 17 110 165 vvcurveto
          31 -19 24 -31 -21 -18 -5 -8 -17 vhcurveto
          9 -171 2 -151 -211 vvcurveto
          hintmask 11100000
          -237 -17 -223 -119 vvcurveto
          60 callgsubr
          endchar
        </CharString>
        <CharString name="braceleft">
          -205 -124 66 822 59 hstemhm
          65 183 -137 106 -106 223 -206 89 hintmask 11100000
          65 316 rmoveto
          hintmask 11000100
          52 -7 11 -48 -57 vvcurveto
          hintmask 11001000
          -71 -17 -27 -60 vvcurveto
          -116 62 -54 72 53 36 29 44 vhcurveto
          -4 -13 -10 -3 -14 hhcurveto
          hintmask 11010000
          -43 -37 29 63 hvcurveto
          hintmask 11100000
          55 29 61 2 65 vhcurveto
          -2 64 -37 46 -64 17 rrcurveto
          67 27 34 50 69 62 -27 59 53 vvcurveto
          73 50 27 40 2 vhcurveto
          12 5 -2 -1 10 hvcurveto
          24 -16 38 -58 -73 -79 -60 -127 vhcurveto
          -64 20 -30 -67 -122 -65 38 -75 vvcurveto
          endchar
        </CharString>
        <CharString name="braceright">
          -205 -123 59 822 66 hstemhm
          49 223 -137 183 -152 89 -89 106 hintmask 11010000
          318 384 rmoveto
          hintmask 11001000
          -52 7 -11 48 57 vvcurveto
          hintmask 11100000
          71 17 27 60 vvcurveto
          116 -62 54 -72 -53 -36 -29 -44 vhcurveto
          4 13 10 3 14 hhcurveto
          hintmask 11000100
          43 37 -29 -63 hvcurveto
          hintmask 11010000
          -55 -29 -61 -2 -65 vhcurveto
          2 -64 37 -46 64 -17 rrcurveto
          -67 -27 -34 -50 -69 -62 27 -59 -53 vvcurveto
          -73 -50 -27 -40 -2 vhcurveto
          -12 -5 2 1 -10 hvcurveto
          -24 16 -38 58 73 79 60 127 vhcurveto
          64 -20 30 67 122 65 -38 75 vvcurveto
          endchar
        </CharString>
        <CharString name="bracketleft">
          -230 -82 -21 820 90 10 -20 hstemhm
          55 105 -88 88 -88 101 -101 231 hintmask 11001000
          283 5 rmoveto
          -15 -36 -35 -8 -45 hhcurveto
          -4 83 -3 113 156 vvcurveto
          hintmask 11000100
          204 11 66 2 116 vhcurveto
          -2 16 26 -1 23 hhcurveto
          hintmask 10100010
          40 25 35 31 15 -5 11 -5 8 hvcurveto
          hintmask 11001000
          -6 -30 -45 -4 -65 hhcurveto
          -46 hlineto
          -19 -13 -3 -5 -14 hvcurveto
          9 -135 2 -107 -163 vvcurveto
          hintmask 11010000
          -185 -17 -175 -93 vvcurveto
          -27 15 -10 24 -2 vhcurveto
          -2 22 72 -3 46 hhcurveto
          33 26 26 34 17 -3 17 -7 14 hvcurveto
          endchar
        </CharString>
        <CharString name="bracketright">
          -230 -103 20 -10 90 799 21 hstemhm
          55 231 -101 101 -88 88 -88 105 hintmask 01100100
          75 709 rmoveto
          15 36 35 8 45 hhcurveto
          4 -83 3 -113 -156 vvcurveto
          hintmask 01101000
          -204 -11 -66 -2 -116 vhcurveto
          2 -16 -26 1 -23 hhcurveto
          hintmask 10110000
          -40 -25 -35 -31 -15 5 -11 5 -8 hvcurveto
          hintmask 01100100
          6 30 45 4 65 hhcurveto
          46 hlineto
          19 13 3 5 14 hvcurveto
          -9 135 -2 107 163 vvcurveto
          hintmask 01100010
          185 17 175 93 vvcurveto
          27 -15 10 -24 2 vhcurveto
          2 -22 -72 3 -46 hhcurveto
          -33 -26 -26 -34 -17 3 -17 7 -14 hvcurveto
          endchar
        </CharString>
        <CharString name="brokenbar">
          -341 5 callgsubr
          1180 -20 hstemhm
          70 96 -80 80 hintmask 11010000
          177 875 rmoveto
          31 -18 24 -32 -21 -18 -5 -8 -17 vhcurveto
          11 -54 4 -52 -75 -91 -1 -6 -54 vvcurveto
          -31 3 -24 41 13 14 4 4 12 vhcurveto
          -1 23 -1 23 22 107 11 76 86 vvcurveto
          hintmask 11100000
          -107 -1070 rmoveto
          60 callgsubr
          -11 54 -4 52 75 91 1 6 54 vvcurveto
          31 -3 24 -41 -13 -14 -4 -4 -12 vhcurveto
          1 -23 1 -23 -22 -107 -11 -76 -86 vvcurveto
          endchar
        </CharString>
        <CharString name="bullet">
          -253 135 235 hstem
          50 235 vstem
          77 345 rmoveto
          -15 -38 -12 -30 -49 vvcurveto
          -57 48 -36 57 73 57 58 74 64 -36 39 -64 -44 -30 -9 -16 -34 vhcurveto
          endchar
        </CharString>
        <CharString name="c">
          -92 -12 88 62 callgsubr
          191 116 -84 84 hintmask 10110100
          251 -12 rmoveto
          92 117 54 92 42 -42 22 -42 hvcurveto
          15 callgsubr
          hintmask 11011000
          -13 callgsubr
          -142 79 -79 142 hvcurveto
          endchar
        </CharString>
        <CharString name="ccedilla">
          -92 -250 76 64 61 -61 186 62 callgsubr
          14 21 callsubr
          -30 116 -84 84 hintmask 1101010010100000
          217 -38 callsubr
          hintmask 1101011000100000
          -58 callgsubr
          19 7 17 13 13 vhcurveto
          hintmask 1010111000100000
          87 8 97 52 84 vvcurveto
          42 -42 22 -42 vhcurveto
          15 callgsubr
          hintmask 1101010001000000
          -13 callgsubr
          -130 66 -77 119 -12 hvcurveto
          hintmask 1101010100100000
          -11 -16 -4 -18 -21 39 callsubr
        </CharString>
        <CharString name="cedilla">
          -272 -250 76 64 61 -61 119 hstemhm
          89 21 callsubr
          hintmask 11000100
          139 -38 callsubr
          hintmask 11010000
          -58 callgsubr
          hintmask 10101000
          31 19 26 35 11 vhcurveto
          -77 hlineto
          -23 -20 -10 -24 -30 39 callsubr
        </CharString>
        <CharString name="cent">
          -13 -3 -21 407 199 80 -20 hstemhm
          45 124 113 38 80 130 -94 94 hintmask 11111010
          261 654 rmoveto
          2 -28 3 -26 3 -26 rrcurveto
          -142 -28 -82 -107 -128 vvcurveto
          -143 75 -89 137 -14 vhcurveto
          -1 -19 -1 -17 -14 vvcurveto
          62 callsubr
          -8 82 rlineto
          95 11 102 52 81 vvcurveto
          41 -46 23 -48 vhcurveto
          -49 -30 -60 -81 -11 vhcurveto
          -3 45 -2 53 64 vvcurveto
          77 7 52 7 46 vhcurveto
          hintmask 11111100
          47 -11 19 -37 -35 vvcurveto
          9 callsubr
          vhcurveto
          -1 6 9 -1 7 hhcurveto
          53 50 43 47 75 -77 34 -99 hvcurveto
          1 8 0 8 9 vvcurveto
          60 callsubr
          -92 -334 rmoveto
          48 10 50 23 36 vhcurveto
          18 16 26 15 31 6 rrcurveto
          3 -36 2 -37 -42 vvcurveto
          -78 -8 -77 -7 -66 vhcurveto
          -75 14 -23 67 84 vvcurveto
          endchar
        </CharString>
        <CharString name="circumflex">
          -135 593 -31 callgsubr
          hstem
          403 600 -106 callgsubr
          endchar
        </CharString>
        <CharString name="colon">
          -331 0 306 46 46 endchar
        </CharString>
        <CharString name="comma">
          -319 -135 -21 307 -20 hstem
          92 127 vstem
          -27 callgsubr
          endchar
        </CharString>
        <CharString name="commaaccent">
          -306 -250 201 hstem
          92 127 vstem
          55 -232 -56 callgsubr
        </CharString>
        <CharString name="copyright">
          211 -17 58 83 79 -79 184 183 79 84 58 hstemhm
          45 69 93 100 152 108 -92 92 118 69 hintmask 1011111011000000
          421 570 rmoveto
          -136 -78 -114 -128 -117 58 -87 124 87 91 56 81 36 -47 11 -45 hvcurveto
          hintmask 1101111101000000
          -58 -12 -47 -61 -71 -24 66 67 45 11 60 12 31 vhcurveto
          11 18 22 8 28 hhcurveto
          41 19 -29 -36 1 hvcurveto
          -6 -1 -8 -2 -6 vhcurveto
          -4 13 12 -2 16 hhcurveto
          39 25 27 33 68 -70 42 -70 hvcurveto
          -376 -223 -23 callsubr
          69 hmoveto
          -30 callsubr
        </CharString>
        <CharString name="currency">
          -62 86 125 -105 -21 53 73 196 70 44 -20 23 -20 hstemhm
          45 121 -74 74 195 72 -72 120 hintmask 1001011010000000
          428 524 rmoveto
          -10 -15 -28 -34 -22 -24 rrcurveto
          17 -24 -30 9 -35 hhcurveto
          -31 -29 -8 -13 -26 hvcurveto
          hintmask 1001100110000000
          31 -25 -37 34 -21 hhcurveto
          -35 -26 -36 -16 -6 hvcurveto
          17 -12 38 -33 28 -26 rrcurveto
          -22 -31 -12 -38 -41 vvcurveto
          -21 4 -20 7 -18 vhcurveto
          hintmask 0111011010000000
          -28 -25 -30 -34 -19 vvcurveto
          -35 39 -24 15 -7 vhcurveto
          11 15 29 34 23 25 rrcurveto
          -14 23 28 -7 31 hhcurveto
          29 27 7 12 26 hvcurveto
          hintmask 1001011010000000
          -34 29 39 -37 22 hhcurveto
          35 23 38 15 8 hvcurveto
          -18 12 -39 34 -30 27 rrcurveto
          24 29 14 37 40 vvcurveto
          22 -4 20 -6 19 vhcurveto
          hintmask 1001011001000000
          27 24 31 35 19 vvcurveto
          33 -37 27 -16 7 vhcurveto
          -161 -313 rmoveto
          -66 -35 38 75 26 3 21 11 18 hvcurveto
          12 21 29 6 28 hhcurveto
          64 39 -42 -75 -45 -49 -34 -45 hvcurveto
          endchar
        </CharString>
        <CharString name="d">
          -30 -25 callsubr
          238 -20 hstemhm
          30 123 223 117 -102 102 -102 122 hintmask 10111010
          369 738 rmoveto
          14 -79 7 -86 1 -79 rrcurveto
          12 -33 -38 6 -37 hhcurveto
          -157 -96 -166 -155 -106 51 -91 106 95 61 111 99 46 hvcurveto
          hintmask 01111100
          -7 -43 -6 -30 -38 vvcurveto
          -53 13 -40 53 31 20 4 8 24 vhcurveto
          -18 102 -6 97 87 vvcurveto
          hintmask 10111001
          161 20 130 77 vvcurveto
          52 -31 32 -52 -28 -17 -6 -6 -16 vhcurveto
          22 -329 rmoveto
          -162 -26 -95 -164 -61 hhcurveto
          -45 -11 85 45 66 8 53 26 62 hvcurveto
          22 27 38 11 42 hhcurveto
          31 33 -6 -12 33 hvcurveto
          endchar
        </CharString>
        <CharString name="degree">
          -195 323 83 176 80 hstem
          40 90 135 88 vstem
          209 662 rmoveto
          -109 -60 -80 -109 -85 60 -65 85 100 68 80 100 90 -54 69 -90 hvcurveto
          -13 -256 rmoveto
          -51 -15 40 51 24 5 27 7 18 hvcurveto
          11 13 20 5 18 hhcurveto
          56 16 -34 -56 -43 -26 -43 -43 hvcurveto
          endchar
        </CharString>
        <CharString name="dieresis">
          -107 621 117 hstem
          70 -45 callgsubr
          vstem
          78 726 -107 callgsubr
          endchar
        </CharString>
        <CharString name="divide">
          -63 33 127 33 96 -81 96 35 127 hstemhm
          199 127 hintmask 10111000
          213 146 rmoveto
          6 callsubr
          306 vmoveto
          6 callsubr
          245 -148 rmoveto
          hintmask 11011000
          4 callgsubr
          hintmask 10111000
          28 callsubr
          hintmask 11011000
          -19 callgsubr
          hintmask 10111000
          12 44 40 3 72 hhcurveto
          hintmask 11011000
          -21 callgsubr
          hintmask 10111000
          -3 callgsubr
        </CharString>
        <CharString name="dollar">
          -6 -130 210 -85 85 -85 247 209 211 -90 90 -90 -2 callgsubr
          55 122 -122 134 56 92 52 125 -103 103 -103 126 hintmask 1001001010100000
          384 454 rmoveto
          -2 10 9 -1 9 hhcurveto
          57 45 42 57 81 -97 28 -81 3 hvcurveto
          1 10 0 11 12 vvcurveto
          hintmask 0100011010010000
          60 callsubr
          7 -87 rlineto
          -108 -20 -95 -70 -101 -197 356 56 -151 vvcurveto
          -63 -54 -29 -63 -69 -48 36 69 16 5 19 3 14 vhcurveto
          hintmask 0011001011000000
          6 -11 -21 2 -16 hhcurveto
          -53 -39 -37 -53 -104 99 -49 104 -4 hvcurveto
          -2 -30 -1 -34 -22 vvcurveto
          hintmask 1000100110010000
          62 callsubr
          -2 33 -6 44 -1 44 rrcurveto
          119 19 96 79 115 213 -348 -47 116 vvcurveto
          27 12 21 16 15 vhcurveto
          11 24 25 4 27 hhcurveto
          hintmask 1001001011000000
          61 35 -20 -61 -13 -1 -10 -4 -14 hvcurveto
          endchar
        </CharString>
        <CharString name="dotaccent">
          -331 583 22 callgsubr
          723 -78 callsubr
        </CharString>
        <CharString name="dotlessi">
          -330 15 -21 512 -20 hstemhm
          50 -1 callsubr
          hintmask 11010000
          60 497 -1 callgsubr
          hintmask 11100000
          -72 callgsubr
          hintmask 11001000
          -64 callsubr
        </CharString>
        <CharString name="e">
          -102 -21 callsubr
          hstemhm
          20 20 callgsubr
          hintmask 01111010
          142 -88 callsubr
          hintmask 10111100
          -26 callgsubr
          1 79 -93 callgsubr
          endchar
        </CharString>
        <CharString name="eacute">
          -92 -21 callsubr
          54 -2 callgsubr
          30 20 callgsubr
          hintmask 01110101
          152 -88 callsubr
          hintmask 10110110
          -26 callgsubr
          1 79 -93 callgsubr
          hintmask 00001000
          51 304 -103 callgsubr
          endchar
        </CharString>
        <CharString name="ecircumflex">
          -92 -21 callsubr
          75 -45 callsubr
          30 20 callgsubr
          hintmask 0111001010000000
          152 -88 callsubr
          hintmask 1011001100000000
          -26 callgsubr
          1 79 -93 callgsubr
          hintmask 0000110000000000
          303 294 -106 callgsubr
          endchar
        </CharString>
        <CharString name="edieresis">
          -92 -21 callsubr
          103 10 callgsubr
          30 122 -49 -45 callgsubr
          -101 111 -87 87 hintmask 0111010001000000
          152 -88 callsubr
          hintmask 1011010010000000
          -26 callgsubr
          1 79 -93 callgsubr
          hintmask 0000101100000000
          -42 420 -107 callgsubr
          endchar
        </CharString>
        <CharString name="egrave">
          -92 -21 callsubr
          54 -2 callgsubr
          30 20 callgsubr
          hintmask 01110101
          152 -88 callsubr
          hintmask 10110110
          -26 callgsubr
          1 79 -93 callgsubr
          hintmask 00001000
          211 304 -102 callsubr
          endchar
        </CharString>
        <CharString name="eight">
          -5 -12 93 487 94 hstemhm
          45 127 -94 125 202 103 -87 117 hintmask 11100100
          538 212 rmoveto
          76 -48 53 -64 25 vhcurveto
          hintmask 11011000
          55 48 27 48 52 vvcurveto
          98 -81 50 -98 -117 -134 -70 -117 -60 33 -40 55 -29 vhcurveto
          hintmask 11100100
          -77 -40 -44 -69 -77 vvcurveto
          -114 109 -58 114 139 131 85 139 vhcurveto
          -117 -27 rmoveto
          -65 -68 -39 -65 -64 -52 37 64 62 30 42 36 29 vhcurveto
          91 -27 92 -26 -77 vvcurveto
          hintmask 11011000
          -218 299 rmoveto
          23 7 20 10 15 vhcurveto
          18 27 33 8 32 hhcurveto
          50 43 -24 -50 -46 -23 -33 -28 -21 hvcurveto
          -31 7 -120 26 57 vvcurveto
          endchar
        </CharString>
        <CharString name="emdash">
          287 193 46 callgsubr
          808 304 rmoveto
          hintmask 10000000
          -12 -91 -84 -3 -151 hhcurveto
          hintmask 01000000
          -142 -118 15 -86 -40 callgsubr
          91 84 3 151 hhcurveto
          hintmask 10000000
          142 116 -15 88 hhcurveto
          51 30 41 callsubr
        </CharString>
        <CharString name="endash">
          -13 193 46 callgsubr
          508 304 rmoveto
          hintmask 10000000
          -12 -50 -44 -3 -82 hhcurveto
          hintmask 01000000
          -80 -67 15 -49 -40 callgsubr
          50 44 3 82 hhcurveto
          hintmask 10000000
          80 67 -15 49 hhcurveto
          50 31 41 callsubr
        </CharString>
        <CharString name="equal">
          -63 110 96 -81 96 55 46 callgsubr
          458 221 -48 callgsubr
          hintmask 00010000
          166 vmoveto
          hintmask 00100000
          4 callgsubr
          hintmask 00010000
          28 callsubr
          hintmask 00100000
          -19 callgsubr
          hintmask 00010000
          12 44 40 3 72 hhcurveto
          hintmask 00100000
          -21 callgsubr
          hintmask 00010000
          -3 callgsubr
        </CharString>
        <CharString name="eth">
          -50 -18 81 343 90 21 -20 162 -20 111 -20 hstem
          30 124 241 113 vstem
          145 659 rmoveto
          30 37 -9 -15 36 hvcurveto
          -44 -25 -35 -22 -33 vvcurveto
          -22 20 -16 22 vhcurveto
          21 30 37 23 39 20 27 -25 20 -32 12 -44 rrcurveto
          4 -21 -23 3 -26 hhcurveto
          -162 -105 -117 -155 -141 85 -101 141 165 87 123 235 135 -41 98 -51 66 hvcurveto
          34 20 26 24 29 vvcurveto
          22 -20 16 -22 vhcurveto
          -16 -23 -25 -19 -29 -16 rrcurveto
          38 -47 -52 20 -40 hhcurveto
          -50 -30 -41 -50 hvcurveto
          241 -268 rmoveto
          8 -25 1 -34 -30 vvcurveto
          -73 -6 -67 -33 -63 vhcurveto
          -21 -29 -31 -15 -38 hhcurveto
          -75 -29 90 75 72 9 37 17 42 hvcurveto
          20 25 32 7 30 hhcurveto
          34 43 -5 -10 42 hvcurveto
          endchar
        </CharString>
        <CharString name="exclam">
          -270 -6 141 615 -20 hstemhm
          102 141 -118 87 hintmask 11100000
          118 120 rmoveto
          -10 -17 -6 -22 -20 vvcurveto
          -40 23 -27 40 44 34 35 44 39 -21 23 -39 -26 -18 -5 -10 -21 vhcurveto
          -43 608 rmoveto
          hintmask 11010000
          50 -88 0 -189 -179 vvcurveto
          -29 23 -15 29 15 16 4 8 11 vhcurveto
          -5 31 -2 34 34 127 27 136 77 vvcurveto
          47 -35 24 -47 -29 -32 -9 -13 -21 vhcurveto
          endchar
        </CharString>
        <CharString name="exclamdown">
          -270 -244 20 595 141 hstemhm
          75 141 -110 87 hintmask 11100000
          200 386 rmoveto
          10 17 6 22 20 vvcurveto
          40 -23 27 -40 -44 -34 -35 -44 -39 21 -23 39 26 18 5 10 21 vhcurveto
          43 -608 rmoveto
          hintmask 11010000
          -50 88 0 189 179 vvcurveto
          29 -23 15 -29 -15 -16 -4 -8 -11 vhcurveto
          5 -31 2 -34 -34 -127 -27 -136 -77 vvcurveto
          -47 35 -24 47 29 32 9 13 21 vhcurveto
          endchar
        </CharString>
        <CharString name="f">
          -200 -167 -21 571 90 88 189 -86 86 -36 callgsubr
          174 108 hintmask 11011010
          208 473 rmoveto
          10 callsubr
          hintmask 11100110
          1 callgsubr
          73 -72 30 -73 -148 -104 -122 -148 -28 callgsubr
          hintmask 11101010
          -49 callgsubr
          hintmask 11100110
          -90 callgsubr
          165 -10 168 187 vvcurveto
          -5 40 55 -9 18 -29 callsubr
          -6 -26 -69 -15 -62 hhcurveto
          endchar
        </CharString>
        <CharString name="f_t">
          204 -167 -21 176 101 294 90 -72 72 88 189 -86 86 -36 callgsubr
          124 108 36 108 -87 122 hintmask 1110101011000000
          484 194 rmoveto
          -126 50 -80 126 56 54 18 56 15 -4 16 -9 19 vhcurveto
          -15 -28 -25 -8 -23 hhcurveto
          -67 -22 57 67 60 7 57 8 57 hvcurveto
          -2 31 31 -2 27 -29 callsubr
          -39 -9 -38 -9 -69 -3 rrcurveto
          hintmask 1101011010100000
          4 39 4 38 39 54 callsubr
          12 -40 5 -42 -50 vvcurveto
          -16 0 -17 -1 -17 vhcurveto
          -1 -39 -46 -1 -51 hhcurveto
          -51 -55 1 3 -54 hvcurveto
          59 6 61 25 51 vhcurveto
          15 15 19 5 16 hhcurveto
          36 15 -35 -43 9 callsubr
          hvcurveto
          hintmask 1110100111000000
          1 callgsubr
          73 -67 30 -68 -124 -88 -122 -148 -28 callgsubr
          hintmask 1110101011000000
          -49 callgsubr
          hintmask 1101100111000000
          20 10 29 6 29 1 rrcurveto
          2 -73 7 -84 -58 callsubr
          172 187 vvcurveto
          2 38 37 1 35 hhcurveto
          67 61 -3 -4 55 hvcurveto
          -6 -74 -9 -73 -56 vvcurveto
          endchar
        </CharString>
        <CharString name="ff">
          98 -167 -21 571 90 -75 75 88 179 -86 -20 30 76 10 -20 -36 callgsubr
          186 112 174 108 hintmask 1100110011100000
          353 740 rmoveto
          -148 -104 -117 -143 -28 callgsubr
          hintmask 1101000101100000
          -49 callgsubr
          hintmask 1011000011100000
          -90 callgsubr
          165 -10 169 187 vvcurveto
          2 63 66 0 58 hhcurveto
          2 -73 7 -87 -58 callsubr
          168 187 vvcurveto
          hintmask 1100110101100000
          -5 40 55 -9 18 -29 callsubr
          -6 -26 -69 -15 -85 hhcurveto
          10 callsubr
          hintmask 1101000101100000
          1 callgsubr
          hvcurveto
          hintmask 1100101101100000
          73 -72 30 -73 -69 -60 -28 -44 -44 vhcurveto
          hintmask 1100110101100000
          35 -25 -45 27 -55 hhcurveto
          40 -265 -52 callsubr
          endchar
        </CharString>
        <CharString name="ffi">
          301 46 callsubr
          408 71 -71 92 90 166 -96 96 -10 -20 -36 callgsubr
          177 121 -112 112 174 124 -100 121 hintmask 1110010101010000
          393 475 -52 callsubr
          -75 vmoveto
          hintmask 1101100100101000
          2 -73 7 -87 -58 callsubr
          170 187 vvcurveto
          1 34 48 2 43 hhcurveto
          35 31 -2 -8 12 hvcurveto
          4 -35 1 -33 -37 vvcurveto
          hintmask 1110100101010000
          -89 -24 -71 47 callgsubr
          vhcurveto
          hintmask 1110100101001000
          26 21 -36 callsubr
          hvcurveto
          hintmask 1110100101010000
          -15 62 -6 60 77 vvcurveto
          hintmask 1101100101001000
          64 callgsubr
          hintmask 1110100101010000
          -56 -60 -21 -76 hhcurveto
          -53 hlineto
          -15 callgsubr
          14 11 -1 -6 12 hvcurveto
          -45 25 -28 49 44 37 36 44 20 -2 14 -8 14 vhcurveto
          27 -46 -46 11 -66 hhcurveto
          -75 -70 -28 -44 -48 hvcurveto
          hintmask 1110001011010000
          35 -25 -45 27 -55 hhcurveto
          -148 -104 -117 -143 -28 callgsubr
          hintmask 1110100101010000
          -49 callgsubr
          hintmask 1110100011010000
          -90 callgsubr
          165 -10 169 187 vvcurveto
          2 63 66 0 58 hhcurveto
          endchar
        </CharString>
        <CharString name="ffl">
          337 46 callsubr
          389 90 -75 75 181 -20 30 76 10 -20 -36 callgsubr
          186 112 207 122 -100 100 hintmask 1110110011100000
          481 677 rmoveto
          35 -25 -48 28 -55 hhcurveto
          -148 -104 -117 -143 -28 callgsubr
          hintmask 1110110101100000
          -49 callgsubr
          hintmask 1101110011100000
          -90 callgsubr
          165 -10 169 187 vvcurveto
          2 63 66 0 58 hhcurveto
          2 -73 7 -87 -58 callsubr
          168 187 vvcurveto
          hintmask 1110110101010000
          -5 33 46 -9 14 -29 callsubr
          -6 -22 -61 -15 -77 hhcurveto
          -15 callgsubr
          36 27 -12 -26 20 hvcurveto
          11 -78 2 -75 -87 vvcurveto
          hintmask 1110101101100000
          -30 callgsubr
          -76 -66 -28 -45 -48 hvcurveto
          -88 -202 -52 callsubr
          endchar
        </CharString>
        <CharString name="fi">
          3 46 callsubr
          408 71 -71 92 90 166 -86 86 -36 callgsubr
          174 124 -100 100 -100 127 hintmask 1110011010000000
          208 473 rmoveto
          -15 callgsubr
          14 11 -1 -6 12 hvcurveto
          hintmask 1110101010000000
          -45 25 -28 49 vhcurveto
          hintmask 1110010100100000
          44 37 36 44 20 -2 14 -8 14 hvcurveto
          27 -46 -46 11 -66 hhcurveto
          -160 -112 -122 -148 -28 callgsubr
          hintmask 1110101010000000
          -49 callgsubr
          hintmask 1101100101000000
          -90 callgsubr
          165 -10 170 187 vvcurveto
          1 34 48 2 43 hhcurveto
          35 31 -2 -8 12 hvcurveto
          4 -35 1 -33 -37 vvcurveto
          hintmask 1101101010000000
          -89 -24 -71 47 callgsubr
          26 21 -36 callsubr
          vhcurveto
          -15 62 -6 60 77 64 callgsubr
          hintmask 1110101010000000
          -56 -60 -21 -76 hhcurveto
          endchar
        </CharString>
        <CharString name="five">
          -32 -12 94 -94 212 95 109 -88 88 127 109 -93 93 30 -20 hstemhm
          45 127 206 133 hintmask 1010101110000000
          265 82 rmoveto
          -50 -43 25 50 11 2 13 5 14 hvcurveto
          hintmask 0110011110000000
          55 callsubr
          98 -34 90 149 129 95 149 117 -89 55 -117 -27 -40 -6 -9 -43 hvcurveto
          48 0 55 12 55 vhcurveto
          hintmask 1010101110000000
          -5 67 61 -11 64 hhcurveto
          43 38 23 43 31 -6 22 -6 20 hvcurveto
          -27 -94 -105 -3 -93 hhcurveto
          -57 -32 -24 -57 -81 -8 -84 -15 -87 hvcurveto
          -9 21 22 -3 21 hhcurveto
          hintmask 1001101110000000
          54 52 21 41 hhcurveto
          73 30 -41 -73 -71 -42 -49 -71 hvcurveto
          endchar
        </CharString>
        <CharString name="fl">
          39 46 callsubr
          389 90 191 86 -36 callgsubr
          207 122 -100 100 hintmask 11111001
          208 473 rmoveto
          -15 callgsubr
          36 27 -12 -26 20 hvcurveto
          11 -78 2 -75 -87 vvcurveto
          hintmask 11110110
          -30 callgsubr
          -160 -112 -122 -148 -28 callgsubr
          hintmask 11111010
          -49 callgsubr
          hintmask 11110110
          -90 callgsubr
          165 -10 168 187 vvcurveto
          -5 33 46 -9 14 -29 callsubr
          -6 -22 -61 -15 -54 hhcurveto
          endchar
        </CharString>
        <CharString name="four">
          -21 15 -21 182 88 398 -20 hstemhm
          310 119 -119 212 -192 99 hintmask 11101000
          450 6 rmoveto
          -12 59 -4 52 -3 57 rrcurveto
          56 35 27 56 14 -2 17 -5 16 hvcurveto
          hintmask 11110000
          -30 -10 -25 -7 -31 -6 rrcurveto
          134 5 121 17 116 vhcurveto
          7 -22 -16 3 -26 hhcurveto
          -36 -28 -18 -18 -16 hvcurveto
          -59 -63 -97 -112 -126 -192 rrcurveto
          -41 20 -28 56 -6 vhcurveto
          66 -7 75 0 75 -1 rrcurveto
          -3 -39 -4 -24 -38 vvcurveto
          -51 28 -30 51 19 21 -36 callsubr
          vhcurveto
          -314 267 rmoveto
          45 67 76 111 70 73 rrcurveto
          hintmask 11100100
          2 -23 1 -20 -25 vvcurveto
          -61 0 -63 -7 -65 vhcurveto
          -2 -23 -29 -1 -24 hhcurveto
          -36 -37 2 7 -38 hvcurveto
          endchar
        </CharString>
        <CharString name="fourinferior">
          -227 15 44 callgsubr
          35 -69 callsubr
          hintmask 11100000
          -97 callsubr
          endchar
        </CharString>
        <CharString name="foursuperior">
          -227 321 44 callgsubr
          341 -69 callsubr
          hintmask 11100000
          -97 callsubr
          endchar
        </CharString>
        <CharString name="fraction">
          -1 4 -21 679 -20 hstem
          35 6 -94 callgsubr
          endchar
        </CharString>
        <CharString name="g">
          -36 -250 86 -86 199 69 89 320 85 hstemhm
          30 123 -110 110 225 104 -104 118 hintmask 10110110
          392 411 rmoveto
          -140 -45 -91 -164 -47 hhcurveto
          -45 -11 91 45 53 11 50 25 50 hvcurveto
          23 34 37 8 29 hhcurveto
          34 36 -6 -10 33 hvcurveto
          -150 -575 rmoveto
          -49 -42 39 49 9 1 5 2 9 hvcurveto
          hintmask 01110101
          2 callsubr
          -37 -49 -84 91 -29 84 163 115 121 163 hvcurveto
          hintmask 10111010
          74 -14 62 93 vvcurveto
          69 9 66 21 75 vhcurveto
          23 -67 -71 16 -81 hhcurveto
          -165 -98 -146 -145 -106 51 -97 106 85 53 90 76 43 hvcurveto
          3 -73 7 -57 -61 vvcurveto
          -88 -48 -69 -88 vhcurveto
          endchar
        </CharString>
        <CharString name="germandbls">
          63 -167 -21 170 86 -86 199 483 86 -36 callgsubr
          35 98 -98 117 42 114 -18 115 hintmask 1101101010000000
          339 664 rmoveto
          41 30 -22 -41 hvcurveto
          -64 -159 -63 -89 vvcurveto
          hintmask 1101101001000000
          -155 255 39 -131 vvcurveto
          -40 -26 -30 -40 -55 -36 33 55 -10 callsubr
          hintmask 1011100101000000
          2 callsubr
          -32 -49 -84 91 -34 84 108 97 72 108 hvcurveto
          185 -253 -29 98 vvcurveto
          hintmask 1101011010000000
          60 156 46 106 vvcurveto
          84 -77 38 -84 -154 -108 -122 -148 -6 vhcurveto
          1 -10 -9 0 -10 hhcurveto
          hintmask 1101101010000000
          -49 callgsubr
          hintmask 1101011010000000
          -90 callgsubr
          186 -8 203 207 vvcurveto
          69 16 58 35 42 vhcurveto
          15 22 31 7 27 hhcurveto
          endchar
        </CharString>
        <CharString name="grave">
          -254 572 178 hstem
          284 610 -102 callsubr
          endchar
        </CharString>
        <CharString name="gravecomb">
          -254 572 178 hstem
          284 610 -102 callsubr
          endchar
        </CharString>
        <CharString name="greater">
          -1 87 -21 476 -20 hstem
          49 502 rmoveto
          118 -50 84 -60 82 -71 rrcurveto
          -148 -79 -140 -79 -52 vvcurveto
          -21 11 -16 28 -8 vhcurveto
          101 77 207 95 150 73 rrcurveto
          101 -130 -211 130 -96 hhcurveto
          -28 -22 -15 -25 -6 hvcurveto
          endchar
        </CharString>
        <CharString name="guillemotleft">
          169 97 -21 456 -20 hstem
          413 116 rmoveto
          -67 callgsubr
          290 hmoveto
          -67 callgsubr
          endchar
        </CharString>
        <CharString name="guillemotright">
          169 97 -21 456 -20 hstem
          344 492 rmoveto
          -68 callsubr
          -290 hmoveto
          -68 callsubr
          endchar
        </CharString>
        <CharString name="guilsinglleft">
          -121 97 -21 456 -20 hstem
          413 116 rmoveto
          -67 callgsubr
          endchar
        </CharString>
        <CharString name="guilsinglright">
          -121 97 -21 456 -20 hstem
          54 492 rmoveto
          -68 callsubr
          endchar
        </CharString>
        <CharString name="h">
          -5 56 callgsubr
          36 callgsubr
          186 121 -97 97 hintmask 01111010
          176 315 rmoveto
          hintmask 01110101
          -71 callgsubr
          74 10 99 176 72 hhcurveto
          32 15 -20 -32 hvcurveto
          hintmask 10111010
          -57 -24 -96 33 callsubr
          47 50 callsubr
          -100 -110 -87 -41 vhcurveto
          endchar
        </CharString>
        <CharString name="hbar">
          50 9 -21 27 -21 417 101 46 71 -71 192 hstemhm
          20 244 -154 129 -101 101 -101 239 61 121 -97 97 hintmask 0111000011000000
          327 548 52 callgsubr
          -8 -33 -40 -2 -31 hhcurveto
          hintmask 0110110001000000
          1 15 1 16 16 vvcurveto
          52 -31 32 -52 -28 -17 -6 -6 -16 vhcurveto
          6 -38 4 -37 2 -37 rrcurveto
          hintmask 0111010001000000
          2 -22 -21 1 -19 58 callsubr
          -16 3 -12 8 -9 hvcurveto
          33 7 41 2 31 1 rrcurveto
          hintmask 0111000101000000
          2 -50 0 -52 -56 vvcurveto
          hintmask 0111001000100000
          -173 -28 -84 -84 vvcurveto
          -45 31 -20 45 26 21 -36 callsubr
          vhcurveto
          -9 50 -6 40 60 vvcurveto
          72 104 183 72 32 15 -20 -32 vhcurveto
          hintmask 1011010001000000
          -57 -24 -102 33 callsubr
          53 50 callsubr
          -95 -110 -87 -41 vhcurveto
          103 11 70 8 64 vhcurveto
          -3 24 25 -1 23 hhcurveto
          endchar
        </CharString>
        <CharString name="hyphen">
          -103 193 95 -79 95 hstemhm
          hintmask 01000000
          418 304 rmoveto
          hintmask 10000000
          -12 -22 -32 -4 -35 hhcurveto
          hintmask 01000000
          -70 -82 16 -41 hhcurveto
          -45 -36 -22 -45 hvcurveto
          hintmask 10000000
          -14 4 -16 8 -14 vhcurveto
          hintmask 01000000
          12 22 32 4 35 hhcurveto
          hintmask 10000000
          70 82 -16 41 hhcurveto
          45 36 22 45 hvcurveto
          hintmask 01000000
          14 -4 16 -8 14 vhcurveto
          endchar
        </CharString>
        <CharString name="i">
          -333 21 38 callgsubr
          hintmask 11101000
          65 callgsubr
          hintmask 11110000
          -89 -24 -65 47 callgsubr
          vhcurveto
          hintmask 11101000
          26 21 -36 callsubr
          hvcurveto
          hintmask 11110000
          -16 62 -5 54 77 vvcurveto
          hintmask 11101000
          81 21 84 62 vvcurveto
          47 -35 27 -47 -22 -18 -3 -6 -21 vhcurveto
          13 226 rmoveto
          -59 callsubr
          endchar
        </CharString>
        <CharString name="iacute">
          14 callgsubr
          56 610 -103 callgsubr
          hintmask 11001000
          14 -113 -1 callgsubr
          hintmask 11010000
          -72 callgsubr
          hintmask 11000100
          -64 callsubr
        </CharString>
        <CharString name="icircumflex">
          -322 15 -21 512 -20 107 -45 callsubr
          60 -1 callsubr
          hintmask 00110000
          322 600 -106 callgsubr
          hintmask 11000100
          -252 -103 -1 callgsubr
          hintmask 11001000
          -72 callgsubr
          hintmask 11000010
          -64 callsubr
        </CharString>
        <CharString name="idieresis">
          -322 15 -21 512 -20 135 10 callgsubr
          -28 117 -29 -1 callsubr
          -16 117 hintmask 00110001
          -20 726 -107 callgsubr
          hintmask 11000100
          -134 -229 -1 callgsubr
          hintmask 11001000
          -72 callgsubr
          hintmask 11000010
          -64 callsubr
        </CharString>
        <CharString name="igrave">
          14 callgsubr
          219 610 -102 callsubr
          hintmask 11001000
          -149 -113 -1 callgsubr
          hintmask 11010000
          -72 callgsubr
          hintmask 11000100
          -64 callsubr
        </CharString>
        <CharString name="ij">
          -75 -250 86 -86 175 96 38 callgsubr
          -112 108 104 155 -114 99 hintmask 0011101000000000
          65 callgsubr
          hintmask 0011110000000000
          -89 -24 -65 47 callgsubr
          vhcurveto
          hintmask 0011101000000000
          26 21 -36 callsubr
          hvcurveto
          hintmask 0011110000000000
          -16 62 -5 54 77 vvcurveto
          hintmask 0011101000000000
          81 21 84 62 vvcurveto
          47 -35 27 -47 -22 -18 -3 -6 -21 vhcurveto
          13 226 rmoveto
          -59 callsubr
          hintmask 0101100110000000
          249 hmoveto
          -59 callsubr
          -120 -800 rmoveto
          -20 callgsubr
          -46 -45 -34 -46 -66 66 -29 66 hvcurveto
          hintmask 1001100101000000
          158 49 135 159 13 hvcurveto
          -54 callsubr
          -14 28 36 -10 callsubr
          endchar
        </CharString>
        <CharString name="itilde">
          -339 15 -21 512 -20 96 -66 callgsubr
          45 -1 callsubr
          hintmask 0001010000000000
          301 701 -56 callsubr
          hintmask 0000100000000000
          -96 callsubr
          hintmask 0010010000000000
          -89 callsubr
          hintmask 1100000100000000
          -246 -204 -1 callgsubr
          hintmask 1100001000000000
          -72 callgsubr
          hintmask 1100000010000000
          -64 callsubr
        </CharString>
        <CharString name="j">
          -330 -250 86 -86 175 581 -20 98 155 hstemhm
          -168 108 104 155 -114 99 hintmask 01111100
          63 723 rmoveto
          -59 callsubr
          -120 -800 rmoveto
          -20 callgsubr
          -46 -45 -34 -46 -66 66 -29 66 hvcurveto
          hintmask 10111010
          158 49 135 159 13 hvcurveto
          -54 callsubr
          -14 28 36 -10 callsubr
          endchar
        </CharString>
        <CharString name="jcircumflex">
          -300 -250 86 -86 175 581 -20 107 -45 callsubr
          -148 108 155 99 -99 118 hintmask 01100110
          -37 -77 rmoveto
          -20 callgsubr
          -46 -45 -34 -46 -66 76 -29 66 158 49 136 158 13 hvcurveto
          hintmask 10100101
          -54 callsubr
          -24 28 36 -10 callsubr
          hintmask 00011000
          368 677 -106 callgsubr
          endchar
        </CharString>
        <CharString name="k">
          -38 15 -21 27 -21 414 98 36 callgsubr
          198 126 hintmask 01111010
          176 315 rmoveto
          hintmask 01110110
          -71 callgsubr
          72 11 102 181 76 hhcurveto
          22 5 -18 -23 -69 -85 -62 -72 -36 hvcurveto
          hintmask 10111010
          -97 39 95 -115 97 hhcurveto
          -8 callsubr
          endchar
        </CharString>
        <CharString name="kcedilla">
          -38 -250 76 64 61 49 40 -25 -21 420 98 36 callgsubr
          4 21 callsubr
          -13 126 hintmask 1101111000010000
          469 -6 rmoveto
          -8 callsubr
          hintmask 1110110100010000
          -71 callgsubr
          72 11 102 181 76 hhcurveto
          22 5 -18 -23 -69 -85 -62 -72 -36 hvcurveto
          23 -59 45 -66 53 -42 rrcurveto
          1 -7 -6 0 -5 hhcurveto
          hintmask 1110111001000000
          -55 -52 -48 -57 -18 5 -18 12 -19 hvcurveto
          5 9 16 5 13 hhcurveto
          hintmask 1110111000100000
          25 14 -9 -19 -23 -27 -13 -36 -22 -22 8 8 -13 hvcurveto
          hintmask 1101111010000000
          -58 callgsubr
          42 34 28 42 vhcurveto
          36 31 -17 36 hhcurveto
          endchar
        </CharString>
        <CharString name="kgreenlandic">
          -38 15 -21 27 -21 524 -20 hstemhm
          55 58 callgsubr
          193 100 hintmask 10101010
          180 183 rmoveto
          18 6 23 9 22 12 rrcurveto
          -117 39 95 -99 82 hhcurveto
          49 22 35 49 hvcurveto
          -81 28 -72 34 -41 119 rrcurveto
          83 51 72 67 61 vvcurveto
          60 -40 26 -60 vhcurveto
          -122 -118 -108 -96 -37 vhcurveto
          hintmask 10100110
          63 21 74 46 -4 callsubr
          -61 4 -64 -61 vvcurveto
          hintmask 01110010
          -94 -22 -94 -63 -62 callsubr
          -10 63 -6 56 -4 52 rrcurveto
          endchar
        </CharString>
        <CharString name="l">
          -319 21 -21 750 -20 hstemhm
          65 58 callgsubr
          hintmask 11010000
          63 17 callgsubr
          hintmask 11100000
          -118 -22 -112 34 callgsubr
          90 107 vvcurveto
          hintmask 11001000
          123 21 127 85 -47 callgsubr
          endchar
        </CharString>
        <CharString name="ldot">
          -112 21 -21 174 157 419 -20 hstemhm
          65 58 callgsubr
          61 157 hintmask 10101000
          63 17 callgsubr
          hintmask 10110000
          -118 -22 -112 34 callgsubr
          90 107 vvcurveto
          hintmask 10100100
          123 21 127 85 -47 callgsubr
          hintmask 01000010
          224 -424 -78 callsubr
        </CharString>
        <CharString name="less">
          -1 66 20 435 21 hstem
          538 106 rmoveto
          -118 50 -84 60 -82 71 rrcurveto
          148 79 140 79 52 vvcurveto
          21 -11 16 -28 8 vhcurveto
          -101 -77 -207 -95 -150 -73 rrcurveto
          -101 130 211 -130 96 hhcurveto
          28 22 15 25 6 hvcurveto
          endchar
        </CharString>
        <CharString name="logicalnot">
          -20 155 -21 155 65 21 -20 hstem
          388 113 vstem
          510 375 rmoveto
          -17 -145 -141 -4 -108 hhcurveto
          -38 -33 -16 -38 -16 6 -13 6 -8 hvcurveto
          19 39 66 7 66 hhcurveto
          67 67 -5 -2 42 hvcurveto
          -7 -30 -9 -33 -20 vvcurveto
          -43 27 -22 43 26 18 5 7 21 vhcurveto
          -16 36 -6 35 34 vvcurveto
          40 4 40 5 44 vhcurveto
          endchar
        </CharString>
        <CharString name="lslash">
          -236 21 -21 750 -20 hstemhm
          20 209 -123 123 -101 121 -121 204 hintmask 11000100
          104 17 callgsubr
          -18 -1 -18 -1 -18 vhcurveto
          hintmask 11100000
          -58 -23 -48 -23 -44 vvcurveto
          -24 13 -22 24 vhcurveto
          15 21 23 16 25 14 rrcurveto
          hintmask 11010000
          -6 -65 -8 -59 -48 -62 callsubr
          -16 107 -6 83 -1 91 rrcurveto
          hintmask 11000100
          57 23 47 23 44 vvcurveto
          24 -13 22 -24 vhcurveto
          hintmask 11100000
          -16 -22 -24 -17 -26 -14 rrcurveto
          hintmask 11001000
          4 108 16 107 75 -47 callgsubr
          endchar
        </CharString>
        <CharString name="m">
          296 56 callgsubr
          -8 -20 22 -20 hstemhm
          60 124 -106 126 171 121 -99 99 189 121 -99 99 hintmask 1010010010100000
          524 18 rmoveto
          -16 55 -8 43 -4 59 rrcurveto
          64 106 172 64 30 11 -20 -30 vhcurveto
          hintmask 1010010101000000
          24 callgsubr
          61 64 70 10 84 60 vvcurveto
          68 -33 40 -68 -83 -85 -94 -82 -44 vhcurveto
          2 22 1 20 18 vvcurveto
          hintmask 1001001101000000
          68 -33 40 -68 -82 -82 -84 -79 -44 vhcurveto
          3 30 4 28 30 vvcurveto
          hintmask 1000101101000000
          47 -34 30 -47 -28 -24 -6 -6 -16 vhcurveto
          8 -34 15 -76 -87 vvcurveto
          hintmask 0110010101000000
          -95 -18 -75 13 callgsubr
          hintmask 1010001101000000
          -50 callgsubr
          hvcurveto
          hintmask 1010010011000000
          -12 54 -5 45 -3 56 rrcurveto
          64 4 97 172 67 hhcurveto
          30 15 -20 -30 hvcurveto
          hintmask 1010010101000000
          -53 -22 -125 -74 vvcurveto
          -61 24 -34 61 23 22 6 6 19 vhcurveto
          endchar
        </CharString>
        <CharString name="macron">
          -131 626 61 -50 -21 81 -20 hstemhm
          hintmask 01100000
          357 616 52 callgsubr
          hintmask 10000000
          -9 -40 -53 -1 -30 hhcurveto
          hintmask 01100000
          -57 -64 10 -52 58 callsubr
          -16 3 -12 8 -9 hvcurveto
          hintmask 10000000
          9 40 53 1 30 hhcurveto
          hintmask 01100000
          57 64 -10 52 hhcurveto
          endchar
        </CharString>
        <CharString name="middot">
          -331 279 22 callgsubr
          419 -78 callsubr
        </CharString>
        <CharString name="minus">
          -63 193 46 callgsubr
          458 304 -48 callgsubr
          endchar
        </CharString>
        <CharString name="mu">
          -16 -230 -21 239 101 -74 -21 512 -20 hstemhm
          38 66 -31 99 -99 121 184 126 -109 127 hintmask 1101100010000000
          522 5 rmoveto
          hintmask 1101100100000000
          -13 64 -5 66 71 vvcurveto
          hintmask 1101100010000000
          85 18 78 60 vvcurveto
          47 -34 30 -47 vhcurveto
          hintmask 1101100100000000
          -22 -20 -4 -8 -21 hvcurveto
          hintmask 1101010010000000
          10 -45 4 -40 3 -54 rrcurveto
          -70 -108 -196 -70 -30 -15 20 30 vhcurveto
          hintmask 1101001100000000
          85 22 96 97 vvcurveto
          61 -24 28 -61 -23 -22 -4 -8 -19 vhcurveto
          19 -59 9 -61 -64 vvcurveto
          hintmask 1101100100000000
          -232 -35 -126 -120 vvcurveto
          -51 31 -32 51 39 19 14 22 23 vhcurveto
          -69 62 -26 70 -2 87 rrcurveto
          -12 17 22 -4 21 hhcurveto
          88 88 97 81 45 hvcurveto
          -4 -32 -3 -29 -31 vvcurveto
          hintmask 1011100010000000
          -47 34 -33 47 28 19 5 6 16 vhcurveto
          endchar
        </CharString>
        <CharString name="multiply">
          -139 100 -21 22 -21 338 -20 hstemhm
          hintmask 10100000
          340 418 rmoveto
          -24 -38 -27 -25 -52 -44 -4 -3 rcurveline
          66 -47 -19 41 -45 hhcurveto
          -35 -26 -36 -16 -6 hvcurveto
          38 -25 25 -28 45 -52 rrcurveto
          -70 -47 -36 -24 -42 vvcurveto
          -35 39 -24 15 -7 vhcurveto
          26 37 27 28 50 42 rrcurveto
          hintmask 01100000
          -69 47 25 -37 42 hhcurveto
          35 23 38 15 8 hvcurveto
          -38 25 -28 29 -43 52 rrcurveto
          66 42 42 27 43 vvcurveto
          33 -37 27 -16 7 vhcurveto
          endchar
        </CharString>
        <CharString name="n">
          -2 56 callgsubr
          -6 -20 hstemhm
          60 124 -106 126 183 121 -99 99 hintmask 01100110
          55 494 rmoveto
          8 -34 15 -76 -87 vvcurveto
          hintmask 01101010
          -95 -18 -75 13 callgsubr
          hintmask 01100110
          -50 callgsubr
          hvcurveto
          hintmask 01101001
          -12 54 -5 39 -3 56 rrcurveto
          74 10 100 176 70 hhcurveto
          30 15 -20 -30 hvcurveto
          hintmask 10100110
          24 callgsubr
          55 64 70 10 90 60 vvcurveto
          69 -33 39 -68 -88 -88 -95 -83 -45 vhcurveto
          4 34 4 28 33 vvcurveto
          hintmask 01011010
          47 -34 30 -47 -28 -24 -6 -6 -16 vhcurveto
          endchar
        </CharString>
        <CharString name="nacute">
          -2 156 0 110 194 endchar
        </CharString>
        <CharString name="nbspace">
          -306 endchar
        </CharString>
        <CharString name="nine">
          -32 -12 94 -94 192 90 88 210 94 hstemhm
          45 133 -121 121 203 130 hintmask 10110110
          381 409 rmoveto
          -30 -32 -46 -21 -42 hhcurveto
          -55 -28 49 55 30 9 31 13 22 hvcurveto
          16 24 16 7 31 hhcurveto
          83 27 -76 -83 hvcurveto
          -1 -85 rmoveto
          -106 -31 -136 -106 -36 -23 18 36 12 2 13 5 14 vhcurveto
          hintmask 01110110
          4 -13 -14 1 -12 hhcurveto
          -52 -43 -32 -52 -76 78 -32 76 198 102 211 198 150 -72 115 -150 hvcurveto
          hintmask 10111010
          -130 -114 -100 -130 -103 73 -59 103 54 61 19 35 44 hvcurveto
          endchar
        </CharString>
        <CharString name="ntilde">
          -2 44 17 110 196 endchar
        </CharString>
        <CharString name="numbersign">
          1 9 -21 27 -21 190 68 -56 56 -56 69 122 66 -66 79 190 -20 26 -20 hstemhm
          203 104 86 104 hintmask 1000110011100000
          521 265 rmoveto
          hintmask 1010001011100000
          -34 -8 -35 -4 -37 -1 5 26 5 26 6 27 12 56 rcurveline
          -2 28 27 0 26 hhcurveto
          29 21 17 29 11 -4 13 -7 11 hvcurveto
          hintmask 1010010011100000
          -33 -7 -34 -4 -36 -2 rrcurveto
          19 69 18 56 34 vvcurveto
          49 callsubr
          -61 -8 -72 -12 -69 -33 1 -33 3 -33 2 rrcurveto
          18 64 16 52 32 vvcurveto
          hintmask 1000101101100000
          49 callsubr
          -56 -7 -65 -10 -63 54 callgsubr
          -12 4 -12 7 -11 hvcurveto
          33 7 35 4 37 1 -3 -14 -2 -15 -3 -13 -7 -31 -7 -31 -8 -30 54 callgsubr
          hvcurveto
          hintmask 1010010011100000
          -12 4 -12 7 -11 vhcurveto
          hintmask 1001010011100000
          31 7 33 3 35 2 rrcurveto
          -20 -74 -18 -60 -25 vvcurveto
          50 callgsubr
          72 8 64 10 64 31 -1 32 -2 32 -2 rrcurveto
          -18 -68 -17 -56 -24 vvcurveto
          hintmask 0110010011100000
          50 callgsubr
          66 7 59 9 59 rrcurveto
          -2 26 26 0 25 hhcurveto
          29 21 17 29 hvcurveto
          hintmask 1000110011100000
          11 -4 13 -7 11 vhcurveto
          -280 60 rmoveto
          5 25 5 24 6 23 35 -1 35 -2 34 -2 -6 -31 rcurveline
          -8 -37 -9 -37 -10 -36 -33 1 -34 3 -34 2 4 22 5 23 5 23 rrcurveto
          endchar
        </CharString>
        <CharString name="o">
          -73 -12 85 360 85 hstem
          20 37 callsubr
          vstem
          20 -99 callsubr
          endchar
        </CharString>
        <CharString name="oacute">
          31 callsubr
          54 -2 callgsubr
          34 37 callsubr
          hintmask 11011000
          34 -99 callsubr
          hintmask 00100000
          34 202 -103 callgsubr
          endchar
        </CharString>
        <CharString name="ocircumflex">
          31 callsubr
          75 -45 callsubr
          34 37 callsubr
          hintmask 11001100
          34 -99 callsubr
          hintmask 00110000
          285 192 -106 callgsubr
          endchar
        </CharString>
        <CharString name="odieresis">
          31 callsubr
          103 10 callgsubr
          34 124 -53 -45 callgsubr
          -68 124 hintmask 11010010
          34 -99 callsubr
          hintmask 00101100
          -63 318 -107 callgsubr
          endchar
        </CharString>
        <CharString name="oe">
          235 -18 85 -85 210 31 77 133 85 hstemhm
          20 124 220 115 191 108 -84 84 hintmask 10111101
          266 518 rmoveto
          -149 -97 -137 -149 -148 63 -102 148 69 59 27 43 44 hvcurveto
          -45 34 55 -25 81 hhcurveto
          88 117 58 88 hvcurveto
          hintmask 01111101
          42 -42 22 -42 vhcurveto
          hintmask 10111110
          -67 -43 -58 -67 -85 -20 75 85 vhcurveto
          -2 18 25 -2 27 hhcurveto
          114 118 40 114 98 -75 43 -98 -70 -57 -27 -43 -43 hvcurveto
          46 -35 -57 24 -80 hhcurveto
          -104 -110 rmoveto
          18 31 32 7 38 hhcurveto
          91 10 -122 -91 -90 -16 -63 -90 -100 -14 110 100 54 4 32 14 45 hvcurveto
          318 -102 -93 callgsubr
          endchar
        </CharString>
        <CharString name="ograve">
          31 callsubr
          54 -2 callgsubr
          34 37 callsubr
          hintmask 11011000
          34 -99 callsubr
          hintmask 00100000
          170 202 -102 callsubr
          endchar
        </CharString>
        <CharString name="one">
          -186 15 -21 668 -20 hstemhm
          203 130 -97 97 hintmask 11010000
          45 514 rmoveto
          -46 17 -40 46 46 45 75 32 37 vhcurveto
          -1 -267 -32 -71 -112 vvcurveto
          -57 32 -34 57 24 21 6 6 14 vhcurveto
          -13 87 -5 95 93 vvcurveto
          hintmask 11100000
          135 11 129 13 103 vhcurveto
          9 -18 -22 5 -24 hhcurveto
          -25 -27 -7 -17 -23 hvcurveto
          -65 -47 -30 -46 -78 -31 rrcurveto
          endchar
        </CharString>
        <CharString name="onehalf">
          158 -3 67 -60 -21 221 146 -70 70 -29 -21 211 -20 162 -20 29 57 callgsubr
          213 110 58 89 hintmask 1001000000110000
          546 208 -83 callgsubr
          hintmask 1010000000110000
          27 callsubr
          hintmask 0100000100000000
          -441 -202 -94 callgsubr
          hintmask 0000111001000000
          33 callgsubr
          hintmask 0000111010000000
          -41 callsubr
        </CharString>
        <CharString name="onequarter">
          131 4 -21 32 -21 327 -21 47 -20 184 -20 162 -20 29 57 callgsubr
          301 142 hintmask 0101000001000000
          542 35 -69 callsubr
          -97 callsubr
          hintmask 1000001000000000
          -367 -152 -94 callgsubr
          hintmask 0010110010000000
          33 callgsubr
          hintmask 0010110100000000
          -41 callsubr
        </CharString>
        <CharString name="onesuperior">
          -299 321 -21 211 -20 162 57 callgsubr
          hintmask 11101000
          35 578 rmoveto
          -34 10 -33 34 28 28 39 18 22 vhcurveto
          -130 -18 -35 -56 vvcurveto
          -29 18 -18 29 25 27 8 9 14 vhcurveto
          -11 42 0 47 45 vvcurveto
          hintmask 11110000
          73 5 67 8 54 vhcurveto
          5 -15 -19 3 -23 hhcurveto
          -16 -17 -4 -9 -17 hvcurveto
          -43 -23 -17 -23 -52 -16 rrcurveto
          endchar
        </CharString>
        <CharString name="ordfeminine">
          -230 388 75 168 75 hstem
          35 88 109 72 vstem
          316 682 rmoveto
          15 -40 -41 9 -46 hhcurveto
          -106 -48 -93 -106 -63 32 -56 64 54 31 68 58 25 hvcurveto
          -7 -30 -2 -13 -23 vvcurveto
          -36 17 -20 36 13 14 2 5 11 vhcurveto
          -16 45 -3 38 49 vvcurveto
          51 3 46 9 54 vhcurveto
          -81 -58 rmoveto
          -77 -20 -42 -84 -23 hhcurveto
          -21 -6 45 22 30 3 29 13 29 hvcurveto
          8 12 21 5 14 hhcurveto
          16 18 -3 -4 15 hvcurveto
          endchar
        </CharString>
        <CharString name="ordmasculine">
          -238 384 72 177 73 hstem
          35 87 106 87 vstem
          35 534 rmoveto
          -89 37 -61 89 92 62 79 93 93 -39 57 -94 -90 -57 -83 -89 vhcurveto
          96 87 rmoveto
          8 14 16 4 18 hhcurveto
          44 5 -59 -43 -44 -7 -31 -44 -48 -7 53 48 26 3 16 6 22 hvcurveto
          endchar
        </CharString>
        <CharString name="oslash">
          -48 -18 81 -77 -21 472 81 21 -20 hstemhm
          34 122 224 122 hintmask 01111100
          34 232 rmoveto
          -82 19 -67 42 -44 vhcurveto
          -18 -23 -18 -18 -12 -11 rrcurveto
          -15 11 19 -7 20 hhcurveto
          17 21 12 23 15 hvcurveto
          hintmask 10111100
          -11 26 32 -7 37 hhcurveto
          153 104 133 153 81 -18 64 -39 43 hvcurveto
          18 25 16 22 13 14 rrcurveto
          15 -12 -17 7 -21 hhcurveto
          -19 -23 -15 -26 -12 hvcurveto
          13 -29 -37 7 -42 hhcurveto
          -149 -97 -137 -149 hvcurveto
          140 180 rmoveto
          18 32 33 7 38 hhcurveto
          28 22 -12 -18 14 hvcurveto
          -25 -47 -29 -54 -28 -45 -20 -33 -32 -46 -34 -45 rrcurveto
          -14 40 -3 51 50 vvcurveto
          55 4 33 14 46 vhcurveto
          135 -162 rmoveto
          16 26 21 33 23 35 rrcurveto
          9 -39 2 -46 -39 vvcurveto
          -93 -16 -64 -92 -30 -22 9 15 -16 vhcurveto
          32 52 41 63 32 48 rrcurveto
          endchar
        </CharString>
        <CharString name="otilde">
          31 callsubr
          64 -66 callgsubr
          34 37 callsubr
          hintmask 11000011
          34 -99 callsubr
          hintmask 00010100
          275 293 -56 callsubr
          hintmask 00001000
          -96 callsubr
          hintmask 00100100
          -61 callsubr
        </CharString>
        <CharString name="p">
          -15 -228 -21 243 89 340 89 -6 -20 hstemhm
          50 127 -103 120 226 123 hintmask 11100110
          181 -16 callgsubr
          205 vmoveto
          9 52 4 36 38 vvcurveto
          hintmask 11010110
          47 -27 30 -47 -28 -24 -6 -6 -16 vhcurveto
          19 -98 3 -139 -84 vvcurveto
          hintmask 11101010
          -122 -24 -107 -109 vvcurveto
          -52 31 -32 52 vhcurveto
          hintmask 11100110
          28 17 6 6 16 hvcurveto
          hintmask 11101010
          0 callgsubr
          -75 -110 -99 -50 hvcurveto
          endchar
        </CharString>
        <CharString name="paragraph">
          161 -142 102 638 105 -73 73 9 -20 52 -20 hstemhm
          242 245 -133 115 -80 98 hintmask 10101010
          hintmask 11001001
          392 630 rmoveto
          -27 -27 -11 -48 -36 -163 35 -79 -194 vvcurveto
          -58 -14 -65 -58 -21 -21 7 15 -21 vhcurveto
          hintmask 11001100
          -6 -19 -6 -14 -20 vvcurveto
          -45 44 -26 45 115 41 91 115 vhcurveto
          109 -18 139 124 vvcurveto
          63 5 65 17 58 vhcurveto
          -10 59 39 -14 69 hhcurveto
          hintmask 11001010
          49 32 34 49 30 -6 19 -6 14 hvcurveto
          -24 -57 -64 -17 -76 hhcurveto
          hintmask 10011100
          -80 -58 9 -110 hhcurveto
          -148 -124 -93 -148 -145 110 -85 145 hvcurveto
          hintmask 10101100
          23 25 3 7 25 hvcurveto
          -19 68 -11 71 71 vvcurveto
          69 8 100 69 vhcurveto
          endchar
        </CharString>
        <CharString name="parenleft">
          -225 -81 -21 920 -20 hstem
          55 108 vstem
          217 818 rmoveto
          -102 -124 -60 -163 -181 vvcurveto
          -230 108 -222 87 18 18 10 22 15 vhcurveto
          -90 110 -48 142 148 278 145 70 74 vvcurveto
          49 -35 17 -56 vhcurveto
          endchar
        </CharString>
        <CharString name="parenright">
          -225 -102 20 879 21 hstem
          200 108 vstem
          146 -102 rmoveto
          102 124 60 163 181 vvcurveto
          230 -108 222 -87 -18 -18 -10 -22 -15 vhcurveto
          90 -110 48 -142 -148 -278 -145 -70 -74 vvcurveto
          -49 35 -17 56 vhcurveto
          endchar
        </CharString>
        <CharString name="percent">
          273 -6 76 -66 -21 291 76 -50 76 204 76 6 -20 hstemhm
          50 95 113 95 155 95 113 95 hintmask 0100010000000000
          169 6 -94 callgsubr
          hintmask 0001101100000000
          89 480 -83 callsubr
          hintmask 1010000011000000
          363 -312 -83 callsubr
          endchar
        </CharString>
        <CharString name="period">
          -331 -6 22 callgsubr
          134 -78 callsubr
        </CharString>
        <CharString name="periodcentered">
          -331 174 22 callgsubr
          314 -78 callsubr
        </CharString>
        <CharString name="plus">
          -67 62 -21 152 96 -81 96 152 -20 hstemhm
          204 96 -79 96 hintmask 10111000
          214 208 rmoveto
          -4 -33 -6 -29 -24 vvcurveto
          -45 22 -36 45 14 16 4 8 14 vhcurveto
          -12 41 -3 38 70 vvcurveto
          hintmask 11011000
          -4 33 29 -5 23 hhcurveto
          45 36 22 45 hvcurveto
          hintmask 10111000
          14 -4 16 -8 14 vhcurveto
          hintmask 11010100
          -42 -11 -39 -3 -66 -1 rrcurveto
          4 33 6 29 24 vvcurveto
          45 -22 36 -45 -14 -16 -4 -8 -14 vhcurveto
          12 -41 3 -38 -70 vvcurveto
          hintmask 10111000
          4 -33 -29 5 -23 hhcurveto
          -45 -36 -22 -45 hvcurveto
          hintmask 11011000
          -14 4 -16 8 -14 vhcurveto
          hintmask 10111000
          42 11 39 3 66 1 rrcurveto
          endchar
        </CharString>
        <CharString name="plusminus">
          -63 5 96 -81 96 12 218 -96 96 -81 96 -96 218 hstemhm
          55 247 -96 96 -81 96 -96 249 hintmask 1000101000000000
          458 361 rmoveto
          hintmask 1010000010000000
          4 callgsubr
          -5 hlineto
          4 29 6 26 21 vvcurveto
          hintmask 1000010100000000
          38 -26 23 -38 -20 -17 -6 -6 -10 vhcurveto
          hintmask 1000100010000000
          12 -32 3 -32 -55 vvcurveto
          4 -33 -29 5 -23 hhcurveto
          hintmask 1001001000000000
          59 callgsubr
          -20 6 -17 6 -10 hvcurveto
          hintmask 1000100100000000
          42 11 39 3 66 1 rrcurveto
          -4 -29 -4 -26 -21 vvcurveto
          hintmask 1010000010000000
          -38 26 -23 38 20 17 6 6 10 vhcurveto
          hintmask 1001001000000000
          -12 33 -3 32 54 vvcurveto
          -4 33 29 -5 25 hhcurveto
          hintmask 0100100001000000
          50 31 26 38 20 -6 17 -6 10 hvcurveto
          -245 vmoveto
          hintmask 1010001000000000
          4 callgsubr
          hintmask 0110001000000000
          28 callsubr
          hintmask 1010001000000000
          -19 callgsubr
          hintmask 0110001000000000
          12 44 40 3 72 hhcurveto
          hintmask 1010000001000000
          -21 callgsubr
          hintmask 0110001000000000
          -3 callgsubr
        </CharString>
        <CharString name="q">
          -34 5 callgsubr
          244 89 344 85 hstemhm
          30 123 217 119 -102 102 hintmask 11110100
          512 474 rmoveto
          27 -68 -70 11 -81 hhcurveto
          -165 -98 -157 -165 -106 51 -90 106 95 59 105 99 46 hvcurveto
          hintmask 11111000
          -5 -132 -12 -130 -105 vvcurveto
          -47 36 -34 47 29 19 6 6 15 vhcurveto
          -16 129 -11 153 147 vvcurveto
          98 11 81 12 104 vhcurveto
          -120 -63 rmoveto
          -160 -45 -91 -168 -47 hhcurveto
          -45 -11 84 45 66 8 55 27 62 hvcurveto
          20 24 45 12 32 hhcurveto
          34 36 -6 -10 33 hvcurveto
          endchar
        </CharString>
        <CharString name="question">
          -73 -6 141 522 93 hstemhm
          55 122 -23 23 -23 131 42 133 hintmask 11001100
          327 582 rmoveto
          -118 -173 -57 -106 vvcurveto
          -44 37 -27 44 23 16 6 13 17 vhcurveto
          -4 14 -2 13 12 118 175 66 130 vvcurveto
          98 -78 50 -98 vhcurveto
          hintmask 11100100
          -110 -119 -65 -110 -53 42 -40 53 10 12 2 3 11 hvcurveto
          -4 19 -2 19 18 vvcurveto
          64 28 50 53 44 25 -28 -47 vhcurveto
          -157 -463 rmoveto
          hintmask 11010100
          -10 -17 -6 -22 -21 vvcurveto
          -39 23 -26 40 44 34 35 44 42 -24 20 -43 -19 -22 -7 -9 -17 vhcurveto
          endchar
        </CharString>
        <CharString name="questiondown">
          -73 -244 93 522 141 hstemhm
          55 133 42 131 -23 23 -23 122 hintmask 11110000
          188 -76 rmoveto
          118 173 57 106 vvcurveto
          44 -37 27 -44 -23 -16 -6 -13 -17 vhcurveto
          4 -14 2 -13 -12 -118 -175 -66 -130 vvcurveto
          -98 78 -50 98 vhcurveto
          hintmask 11100100
          110 119 65 110 53 -42 40 -53 -10 -12 -2 -3 -11 hvcurveto
          4 -19 2 -19 -18 vvcurveto
          -64 -28 -50 -53 -44 -25 28 47 vhcurveto
          157 463 rmoveto
          hintmask 11101000
          10 17 6 22 21 vvcurveto
          39 -23 26 -40 -44 -34 -35 -44 -42 24 -20 43 19 22 7 9 17 vhcurveto
          endchar
        </CharString>
        <CharString name="quotedbl">
          -134 551 55 callgsubr
          569 -60 callsubr
        </CharString>
        <CharString name="quotedblbase">
          -134 -45 55 callgsubr
          -27 -60 callsubr
        </CharString>
        <CharString name="quotedblleft">
          -84 441 20 227 21 hstemhm
          50 157 43 157 hintmask 11100000
          254 693 rmoveto
          -65 callgsubr
          hintmask 11010000
          200 hmoveto
          -65 callgsubr
          endchar
        </CharString>
        <CharString name="quotedblright">
          -84 463 -21 268 -20 hstemhm
          97 157 43 157 hintmask 11100000
          50 458 rmoveto
          -65 callsubr
          hintmask 11010000
          200 hmoveto
          -65 callsubr
          endchar
        </CharString>
        <CharString name="quoteleft">
          -284 441 20 227 21 hstem
          50 157 vstem
          254 693 rmoveto
          -65 callgsubr
          endchar
        </CharString>
        <CharString name="quoteright">
          -284 463 -21 268 -20 hstem
          97 157 vstem
          50 458 rmoveto
          -65 callsubr
          endchar
        </CharString>
        <CharString name="quotesinglbase">
          -337 -45 199 hstem
          87 114 vstem
          50 -27 -17 callsubr
          endchar
        </CharString>
        <CharString name="quotesingle">
          -334 552 198 hstem
          89 115 vstem
          50 570 rmoveto
          -9 9 12 -9 20 hhcurveto
          35 78 97 48 46 -45 7 -70 hvcurveto
          -2 -74 -13 -54 -24 -52 rrcurveto
          endchar
        </CharString>
        <CharString name="r">
          -131 21 16 callgsubr
          hstemhm
          55 124 -106 106 163 114 hintmask 10100110
          133 hmoveto
          -50 callsubr
          hintmask 11001010
          -43 callgsubr
          hintmask 10010110
          -11 callsubr
          hintmask 11001010
          -95 -18 -78 13 callgsubr
          endchar
        </CharString>
        <CharString name="rcaron">
          -126 21 16 callgsubr
          107 -45 callsubr
          60 124 -106 106 163 114 hintmask 0000110000000000
          84 742 -38 callgsubr
          hintmask 1010000110000000
          54 -742 rmoveto
          -50 callsubr
          hintmask 1100001010000000
          -43 callgsubr
          hintmask 1001000110000000
          -11 callsubr
          hintmask 1100001010000000
          -95 -18 -78 13 callgsubr
          endchar
        </CharString>
        <CharString name="rcommaaccent">
          -131 -250 201 70 16 callgsubr
          hstemhm
          55 124 -106 106 -96 127 132 114 hintmask 0101001010000000
          133 hmoveto
          -50 callsubr
          hintmask 0110010010000000
          -43 callgsubr
          hintmask 0100101010000000
          -11 callsubr
          hintmask 0110010010000000
          -95 -18 -78 13 callgsubr
          hintmask 1000000100000000
          -87 -232 -56 callgsubr
        </CharString>
        <CharString name="registered">
          211 -17 58 457 73 83 58 hstemhm
          45 69 108 101 -89 89 115 109 138 69 hintmask 11110111
          45 347 -23 callsubr
          403 -3 rmoveto
          58 19 41 54 57 vvcurveto
          72 -63 25 -84 -59 -63 -12 -16 -59 vhcurveto
          12 -62 3 -55 -65 vvcurveto
          hintmask 11111011
          -57 -12 -52 -47 vvcurveto
          -40 36 -28 38 17 14 3 4 10 vhcurveto
          -11 61 -3 90 77 vvcurveto
          40 2 39 3 40 vhcurveto
          4 20 16 3 24 hhcurveto
          32 18 -12 -24 -44 -38 -30 -53 hvcurveto
          -119 14 99 -136 69 hhcurveto
          39 22 24 39 hvcurveto
          -53 16 -54 62 -35 70 rrcurveto
          -334 3 rmoveto
          -30 callsubr
        </CharString>
        <CharString name="ring">
          -334 572 53 69 52 hstem
          39 54 68 53 vstem
          117 572 -39 callgsubr
          endchar
        </CharString>
        <CharString name="s">
          -133 -12 86 -86 196 165 169 -85 85 hstemhm
          30 108 -108 127 168 102 -102 115 hintmask 01010101
          141 182 rmoveto
          2 callsubr
          -32 -49 -84 91 -31 84 106 129 68 106 hvcurveto
          165 -283 -39 88 vvcurveto
          15 4 16 8 11 vhcurveto
          10 21 28 5 24 hhcurveto
          41 36 -18 -41 9 callsubr
          hvcurveto
          hintmask 10101010
          -1 6 8 -1 6 hhcurveto
          49 42 30 49 70 -91 20 -70 -98 -128 -65 -98 hvcurveto
          -160 285 49 -106 vvcurveto
          -48 -48 -16 -48 -55 -36 30 55 -10 callsubr
          endchar
        </CharString>
        <CharString name="section">
          -75 -250 84 -84 246 510 210 -89 89 hstemhm
          50 121 163 115 -92 116 hintmask 10101010
          50 278 rmoveto
          -218 307 57 -161 vvcurveto
          -84 -44 -38 -54 -57 -40 36 69 16 4 19 4 14 vhcurveto
          hintmask 01011010
          5 -13 -19 3 -16 hhcurveto
          -47 -35 -37 -53 -101 91 -55 101 135 106 91 135 54 -15 39 -22 29 hvcurveto
          23 35 14 41 43 248 -302 -74 158 vvcurveto
          27 6 21 10 15 vhcurveto
          10 21 28 5 22 hhcurveto
          hintmask 10101100
          50 26 -20 -61 -13 -1 -10 -4 -14 hvcurveto
          hintmask 10101010
          -2 9 10 -1 9 hhcurveto
          hintmask 10101100
          51 41 42 57 78 -73 33 -78 -120 -128 -77 -120 -55 19 -38 30 -28 hvcurveto
          -30 -31 -19 -39 -50 vvcurveto
          118 33 rmoveto
          15 4 16 3 11 vhcurveto
          88 -40 97 -26 -93 vvcurveto
          hintmask 10101010
          -13 -1 -12 -2 -11 vhcurveto
          -88 42 -101 17 94 vvcurveto
          endchar
        </CharString>
        <CharString name="semicolon">
          -309 -135 -21 307 -20 169 157 hstemhm
          72 157 -137 127 hintmask 11001000
          -27 callgsubr
          hintmask 00110000
          75 578 -78 callsubr
        </CharString>
        <CharString name="seven">
          -88 15 -21 534 116 -84 97 2 -20 hstemhm
          105 142 hintmask 10011000
          58 659 rmoveto
          -7 -17 -6 -18 -19 vvcurveto
          hintmask 11001000
          -47 35 -30 47 vhcurveto
          hintmask 10101000
          70 86 25 7 90 hvcurveto
          -35 -136 -233 -244 -125 vvcurveto
          -41 35 -20 41 24 23 5 8 19 vhcurveto
          127 39 95 77 121 vhcurveto
          76 119 41 68 58 vvcurveto
          46 -21 16 -46 vhcurveto
          hintmask 11001000
          -52 -63 -13 -61 hhcurveto
          hintmask 10011000
          -60 -62 3 12 -57 hvcurveto
          endchar
        </CharString>
        <CharString name="six">
          -32 -12 94 224 88 70 198 -94 94 hstemhm
          45 128 205 120 -120 133 hintmask 11011100
          176 340 rmoveto
          61 20 91 30 47 vhcurveto
          18 25 30 11 31 hhcurveto
          40 19 -21 -40 -11 -2 -13 -5 -14 hvcurveto
          hintmask 11101100
          -4 13 14 -1 12 hhcurveto
          53 42 33 53 78 -72 34 -78 -206 -97 -199 -206 -150 69 -119 150 hvcurveto
          hintmask 11101010
          135 112 109 135 103 -73 59 -103 -54 -61 -18 -36 -44 hvcurveto
          -3 -85 rmoveto
          32 31 43 19 39 hhcurveto
          61 31 -43 -61 -64 -39 -56 -64 -85 -17 88 85 hvcurveto
          endchar
        </CharString>
        <CharString name="slash">
          -3 15 -21 722 -20 hstem
          36 34 rmoveto
          -27 18 32 -13 32 hhcurveto
          31 33 24 41 24 hvcurveto
          26 45 98 200 38 75 41 81 63 134 73 84 rrcurveto
          27 -19 -28 11 -34 hhcurveto
          -31 -32 -20 -44 -24 hvcurveto
          -26 -48 -89 -206 -42 -78 -39 -73 -73 -148 -72 -65 rrcurveto
          endchar
        </CharString>
        <CharString name="space">
          -306 endchar
        </CharString>
        <CharString name="sterling">
          -19 -12 96 -84 84 -84 91 -84 -21 272 79 138 188 -86 86 hstemhm
          44 228 -115 115 160 108 hintmask 0001110101000000
          56 258 rmoveto
          29 7 29 4 42 1 -3 -69 -6 -54 -21 -51 rrcurveto
          1 -5 -5 0 -5 hhcurveto
          -44 -37 -20 -44 -20 6 -17 6 -10 hvcurveto
          hintmask 0100110101000000
          14 36 48 0 50 hhcurveto
          hintmask 1000110101000000
          102 93 -12 107 hhcurveto
          42 39 33 42 31 -6 22 -6 20 hvcurveto
          -32 -46 -48 -20 -70 hhcurveto
          hintmask 0010101011000000
          -77 -36 5 2 -50 hvcurveto
          35 52 13 61 4 61 rrcurveto
          -5 37 33 -2 21 hhcurveto
          33 23 16 33 20 -6 11 -6 10 hvcurveto
          -11 -35 -35 0 -56 hhcurveto
          -6 38 hlineto
          74 10 128 96 39 12 -38 -39 9 callsubr
          vhcurveto
          hintmask 1000110011000000
          1 callgsubr
          70 -65 32 -70 -163 -85 -140 -148 hvcurveto
          -30 vlineto
          2 -23 -20 2 -14 hhcurveto
          hintmask 1000110101000000
          -33 -23 -16 -33 -20 6 -12 6 -10 hvcurveto
          endchar
        </CharString>
        <CharString name="t">
          -193 -6 89 325 85 8 -20 188 -20 hstemhm
          15 180 -108 108 -91 91 -91 126 hintmask 10111000
          91 653 rmoveto
          12 -40 5 -42 -50 vvcurveto
          -8 0 -5 -1 -8 vhcurveto
          1 -8 -14 0 -9 hhcurveto
          -35 -26 -22 -35 -13 4 -14 8 -12 hvcurveto
          hintmask 11010010
          20 10 19 5 38 2 rrcurveto
          hintmask 11010100
          -88 -17 -76 -64 vvcurveto
          -126 50 -74 126 51 59 17 51 15 -4 16 -9 13 vhcurveto
          -15 -28 -25 -8 -23 hhcurveto
          -67 -22 63 67 100 15 64 6 44 hvcurveto
          -4 30 28 -9 25 hhcurveto
          42 39 21 42 20 -6 13 -6 10 hvcurveto
          -13 -42 -44 -8 -57 hhcurveto
          hintmask 11010001
          3 31 2 27 38 54 callsubr
          endchar
        </CharString>
        <CharString name="thorn">
          -11 -228 -21 243 89 340 89 238 -20 hstemhm
          55 135 -119 146 -131 104 235 123 hintmask 11110011
          186 -16 callgsubr
          -100 225 rmoveto
          hintmask 11111001
          -182 -31 -152 -154 vvcurveto
          -52 31 -32 52 28 17 6 6 16 vhcurveto
          0 callgsubr
          -71 -107 -99 -50 hvcurveto
          hintmask 11110101
          8 132 19 126 105 vvcurveto
          47 -36 34 -47 -28 -19 -6 -6 -16 vhcurveto
          hintmask 11110011
          10 -126 5 -145 -144 vvcurveto
          endchar
        </CharString>
        <CharString name="three">
          -31 -12 94 -94 212 89 74 51 248 -94 94 hstemhm
          45 127 -100 122 165 123 -103 133 hintmask 1010101100000000
          200 419 rmoveto
          -5 19 -1 19 18 vvcurveto
          27 9 28 10 18 vhcurveto
          14 18 25 6 25 hhcurveto
          47 31 -42 -47 -64 -26 -52 -64 -14 -10 1 2 -12 hvcurveto
          -4 -12 -1 -9 -10 vvcurveto
          -29 26 -17 30 vhcurveto
          hintmask 1011010010000000
          57 38 -38 -57 -71 -42 -41 -71 -50 -44 25 50 11 2 13 5 14 hvcurveto
          hintmask 0111010010000000
          55 callsubr
          99 -34 90 141 137 85 141 67 -39 54 -71 23 hvcurveto
          hintmask 1011001100000000
          51 36 29 47 63 vvcurveto
          107 -84 51 34 callsubr
          endchar
        </CharString>
        <CharString name="threequarters">
          136 4 -21 32 -21 306 69 -69 129 -82 -20 121 54 12 142 -70 70 6 -20 45 callgsubr
          238 142 hintmask 0001011001000100
          -7 callgsubr
          hintmask 0010011000101000
          -24 callgsubr
          hintmask 0010010101001000
          14 callsubr
          hintmask 0010011001010000
          -6 callsubr
          hintmask 1000000010000000
          -18 -420 -94 callgsubr
          hintmask 0100100000000010
          435 29 -69 callsubr
          -97 callsubr
          endchar
        </CharString>
        <CharString name="threesuperior">
          -244 300 69 -69 129 19 54 12 142 -70 70 45 callgsubr
          hintmask 0111010001000000
          -7 callgsubr
          hintmask 1011001010000000
          -24 callgsubr
          hintmask 1010110010000000
          14 callsubr
          hintmask 1011010100000000
          -6 callsubr
          endchar
        </CharString>
        <CharString name="tilde">
          -83 582 -66 callgsubr
          hintmask 01010000
          424 701 -56 callsubr
          hintmask 00100000
          -96 callsubr
          hintmask 10010000
          -61 callsubr
        </CharString>
        <CharString name="two">
          -77 -6 94 -82 82 326 248 -94 94 hstemhm
          44 141 -129 129 158 123 hintmask 01100110
          384 -6 rmoveto
          -53 callgsubr
          19 -3 22 -9 20 hvcurveto
          -80 -35 -87 -14 -101 -1 rrcurveto
          124 281 118 165 vvcurveto
          107 -84 60 34 callsubr
          -4 14 -2 16 17 vvcurveto
          29 6 31 14 21 vhcurveto
          hintmask 01011010
          15 18 24 6 25 hhcurveto
          47 31 -41 -47 hvcurveto
          -163 -299 -96 -146 vvcurveto
          -22 7 -23 16 -24 vhcurveto
          hintmask 10101010
          111 104 -12 102 hhcurveto
          endchar
        </CharString>
        <CharString name="twoinferior">
          -261 -3 32 callsubr
          208 -83 callgsubr
          hintmask 11011000
          27 callsubr
          endchar
        </CharString>
        <CharString name="twosuperior">
          -261 303 32 callsubr
          514 -83 callgsubr
          hintmask 11011000
          27 callsubr
          endchar
        </CharString>
        <CharString name="u">
          -36 12 callsubr
          hstemhm
          73 -16 callsubr
          hintmask 10110010
          502 12 rmoveto
          hintmask 10110100
          30 callgsubr
          hintmask 10110010
          -79 callgsubr
          hintmask 10101100
          -87 callgsubr
          hintmask 01110010
          -22 callsubr
          endchar
        </CharString>
        <CharString name="uacute">
          -80 callsubr
          -311 598 -103 callgsubr
          endchar
        </CharString>
</ttFont>
